<?xml version="1.0" encoding="UTF-8"?>
<svg id="b" data-name="Capa 2" xmlns="http://www.w3.org/2000/svg" width="192.56mm" height="88.73mm" viewBox="0 0 545.83 251.52">
  <defs>
    <style>
      .d {
        fill: #231f20;
      }

      .d, .e {
        stroke-width: 0px;
      }

      .e {
        fill: #bb9a65;
      }
    </style>
  </defs>
  <g id="c" data-name="Layer 1">
    <g>
      <path class="e" d="M418.07,153.25c-4.74,0-9.45-1.2-13.63-3.48-13.86-7.54-19-24.96-11.46-38.81,5.07-9.23,14.7-14.96,25.15-14.96,4.74,0,9.47,1.21,13.67,3.5,6.71,3.65,11.6,9.7,13.77,17.04,2.16,7.33,1.34,15.07-2.31,21.78-.11.21-.23.42-.35.62-5.09,8.83-14.61,14.31-24.83,14.31ZM418.19,111.23c-5.01,0-9.55,2.67-11.85,6.97-3.54,6.52-1.13,14.68,5.37,18.22,1.96,1.07,4.17,1.63,6.39,1.63,4.8,0,9.27-2.57,11.66-6.71l.17-.3c1.71-3.14,2.09-6.77,1.08-10.21-1.02-3.44-3.31-6.28-6.45-8-1.94-1.05-4.13-1.61-6.35-1.61Z"/>
      <path class="e" d="M199.38,133.69c-4.74,0-9.45-1.2-13.63-3.48-13.86-7.54-19-24.96-11.46-38.81,5.07-9.23,14.7-14.96,25.15-14.96,4.74,0,9.47,1.21,13.67,3.5,6.71,3.65,11.6,9.7,13.77,17.04,2.16,7.33,1.34,15.07-2.31,21.78-.11.21-.23.42-.35.62-5.09,8.83-14.61,14.31-24.83,14.31ZM199.49,91.68c-5.01,0-9.55,2.67-11.85,6.97-3.54,6.52-1.13,14.68,5.37,18.22,1.96,1.07,4.17,1.63,6.39,1.63,4.8,0,9.27-2.57,11.66-6.71l.17-.3c1.71-3.14,2.09-6.77,1.08-10.21-1.02-3.44-3.31-6.28-6.45-8-1.94-1.05-4.13-1.61-6.35-1.61Z"/>
      <g>
        <path class="d" d="M226.12,60.76h-26.53l-3.82,8.52h-9.53l26.36-57.21h.52l26.36,57.21h-9.53l-3.83-8.52ZM222.71,53.21l-9.84-21.91-9.88,21.91h19.72Z"/>
        <path class="d" d="M273.87,21.95h-15.02v47.33h-8.83V21.95h-15.02v-8.73h38.88v8.73Z"/>
      </g>
      <path class="e" d="M97.32,76.81h16.1l7.76,25.66,11.48-25.56h1.11l11.48,25.49,7.72-25.59h16.1l-18.71,56.41h-4.1l-13.11-27.72-13.01,27.72h-4.07l-18.74-56.41Z"/>
      <path class="e" d="M264.89,133.12l-14.99-24.34v24.34h-14.88l-.07-56.06h21.28c12.1,0,20.76,8.17,20.76,18.22,0,6.99-4.21,12.83-9.7,15.34l15.02,22.5h-17.42ZM249.83,101.68l6.09.04c3.16.03,6.05-2.19,6.05-5.63s-2.92-5.63-6.05-5.63h-6.09v11.23Z"/>
      <g>
        <path class="d" d="M0,186.95l6.96-4.97c2.5,4.38,7.16,6.89,12.55,6.89,6.29,0,11.06-3.03,11.06-7.3,0-5.18-7.37-8.31-13.91-11.13-6.57-2.92-13.88-6.33-13.88-15.13s7.96-15.58,18.05-15.58c8,0,13.98,3.86,16.28,10.02l-6.54,4.52c-1.74-3.79-5.6-5.91-9.67-5.91-5.15,0-9.25,3.2-9.25,7.16,0,4.38,5.18,5.95,12,8.87,8.87,3.89,15.75,8.17,15.75,17,0,9.95-8.62,16.34-20,16.34-9.22,0-16.21-4.31-19.41-10.78Z"/>
        <path class="d" d="M46.95,140.74h18.74c10.85,0,19.72,8.31,19.72,18.5s-8.87,18.12-19.72,18.12h-9.95v19.44h-8.8v-56.06ZM76.61,159.17c0-5.36-4.9-9.7-10.92-9.7h-9.95v19.16l9.95.03c6.02.04,10.92-4.24,10.92-9.49Z"/>
        <path class="d" d="M134.24,140.74v56.06h-8.8v-23.68h-24.27v23.68h-8.76v-56.06h8.76v23.65h24.27v-23.65h8.8Z"/>
        <path class="d" d="M153.82,149.39v14.36h21.21v8.76h-21.21v15.51h24.59v8.76h-33.39v-56.06h33.39v8.66h-24.59Z"/>
        <path class="d" d="M218.36,196.8l-15.09-21.7h-6.89v21.7h-8.8l-.04-56.06h17.42c10.43,0,18.99,8.03,18.99,18.01,0,7.23-4.66,13.53-11.09,15.62l16.31,22.43h-10.82ZM205.18,167.79c5.29.04,9.7-4.24,9.7-9.25s-4.49-9.08-9.7-9.08h-8.83v18.33h8.83Z"/>
        <path class="d" d="M243.89,149.39v14.36h21.21v8.76h-21.21v15.51h24.59v8.76h-33.39v-56.06h33.39v8.66h-24.59Z"/>
      </g>
      <path class="e" d="M544.9,139.4c-1.7-5.75-5.54-10.5-10.8-13.37-.43-.23-.87-.45-1.31-.66-.07-10.45-1.58-20.95-4.63-31.25-6.61-22.38-19.66-41.7-37.47-55.95-3.99-3.19-8.21-6.14-12.66-8.8l-24.26,32.65-.03-.02-1.06,1.42c-.32-.18-.63-.37-.95-.55-10.28-5.6-21.88-8.55-33.54-8.55-21.37,0-41.24,9.62-54.42,25.73l-20.2-14.18c12.34-15.83,29.3-27.43,49.05-33.26,7.84-2.32,15.88-3.64,23.95-3.95.02.05.02.11.04.16,1.7,5.75,5.54,10.5,10.81,13.37,3.28,1.78,6.98,2.73,10.7,2.73,8.02,0,15.49-4.3,19.48-11.23.09-.16.18-.33.27-.49,2.87-5.27,3.51-11.34,1.82-17.09-1.7-5.75-5.54-10.5-10.8-13.37-3.29-1.79-7-2.74-10.7-2.74-2.15,0-4.3.31-6.39.93-5.71,1.68-10.45,5.52-13.37,10.81-.3.55-.56,1.11-.81,1.67-36.36.85-69.75,19.05-90.09,48.57-.22.31-.43.62-.65.94-.24.35-.47.71-.71,1.07-.17.25-.33.5-.5.75-7.75,11.97-17.08,25.19-21.87,31.89v-19.56h-14.85v56.06h14.85v-21.32l14.19,21.32h18.05l-19-28.51,17.78-26.11,20.56,14.45c-8.12,16.05-9.8,34.28-4.69,51.59,4.07,13.8,12.09,25.74,23.03,34.62l-16.4,21.23c-14.45-12.16-25.06-28.28-30.53-46.82-1.25-4.24-2.19-8.53-2.85-12.82h-15.44c.77,5.74,1.98,11.47,3.65,17.15,6.39,21.66,18.84,40.48,35.83,54.6,3.9,3.25,8.06,6.23,12.43,8.95l24.27-31.32,2.03-2.63c9.72,4.85,20.48,7.44,31.3,7.44,20.37,0,39.58-8.85,52.79-23.75l23.87,17.59c-12.15,14.48-28.3,25.11-46.92,30.61-8.47,2.5-17.16,3.83-25.87,3.99-.06-.22-.1-.45-.16-.68-1.7-5.75-5.54-10.5-10.8-13.37-3.29-1.79-7-2.74-10.7-2.74-2.15,0-4.3.31-6.39.93-5.71,1.68-10.45,5.52-13.37,10.81-2.87,5.27-3.51,11.34-1.81,17.09,1.7,5.75,5.54,10.5,10.81,13.37,3.28,1.78,6.98,2.73,10.7,2.73,8.02,0,15.49-4.3,19.48-11.23.09-.16.18-.33.27-.49.21-.39.38-.79.57-1.18,33.7-.14,65.38-15.39,86.47-40.8,1.63-1.97,3.21-3.99,4.71-6.08,1.49-2.08,2.92-4.21,4.28-6.4,0,0,0,0,0,0l-36.22-26.66v-.02s-.04-.04-.04-.04c.07-.13.14-.25.21-.38,8.96-16.47,10.97-35.47,5.64-53.5-3.74-12.66-10.78-23.76-20.34-32.35l16.38-21.97c15.21,12.3,26.35,28.87,32,48.02,2.5,8.46,3.79,17.07,3.97,25.65-.18.05-.35.08-.53.14-5.71,1.68-10.45,5.52-13.37,10.81-2.87,5.27-3.51,11.34-1.81,17.09,1.7,5.75,5.54,10.5,10.81,13.37,3.28,1.78,6.98,2.73,10.7,2.73,8.02,0,15.49-4.3,19.48-11.23.09-.16.18-.33.27-.49,2.87-5.27,3.51-11.34,1.82-17.09ZM431.56,18.67c1.35-2.34,3.88-3.8,6.59-3.8,1.26,0,2.51.32,3.61.92,1.78.97,3.08,2.57,3.65,4.52.57,1.95.35,4-.61,5.77-1.35,2.45-3.91,3.98-6.68,3.98-1.25,0-2.51-.32-3.62-.93-1.78-.97-3.08-2.57-3.65-4.52-.57-1.95-.35-4,.62-5.78l.09-.16ZM406.85,232.69c-1.35,2.45-3.91,3.98-6.68,3.98-1.25,0-2.51-.32-3.62-.93-1.78-.97-3.08-2.57-3.65-4.52-.57-1.95-.35-4,.62-5.78l.09-.16c1.35-2.34,3.88-3.8,6.59-3.8,1.26,0,2.51.32,3.61.92,1.78.97,3.08,2.57,3.65,4.52.57,1.95.35,4-.61,5.77ZM470.98,109.03c4.17,14.12,2.59,29.02-4.45,41.96-7,12.92-18.65,22.33-32.81,26.52-5.13,1.51-10.41,2.28-15.68,2.28h0c-9.09,0-18.18-2.33-26.27-6.73-12.93-7.04-22.35-18.69-26.52-32.81-4.17-14.12-2.59-29.02,4.45-41.96,6.98-12.91,18.63-22.33,32.81-26.51,5.13-1.51,10.4-2.28,15.68-2.28,9.09,0,18.18,2.33,26.27,6.73,12.93,7.04,22.35,18.69,26.52,32.81ZM530.04,149.38c-1.35,2.45-3.91,3.98-6.68,3.98-1.25,0-2.51-.32-3.62-.93-1.78-.97-3.08-2.57-3.65-4.52-.57-1.95-.35-4,.62-5.78l.09-.16c1.35-2.34,3.88-3.8,6.59-3.8,1.26,0,2.51.32,3.61.92,1.78.97,3.08,2.57,3.65,4.52.57,1.95.35,4-.61,5.77Z"/>
    </g>
  </g>
</svg>