<svg xmlns="http://www.w3.org/2000/svg" width="634.708" height="634.708"><defs><clipPath id="a"><path data-name="Tracé 400" d="M196.288 346.63c0 175.269 142.084 317.354 317.354 317.354S831 521.9 831 346.63 688.911 29.276 513.642 29.276 196.288 171.36 196.288 346.63" transform="translate(-196.288 -29.276)" fill="none"/></clipPath></defs><g data-name="Groupe 180" transform="translate(-732 -6510.816)"><g data-name="Groupe 179"><g data-name="Groupe 178" transform="translate(732 6510.817)" clip-path="url(#a)"><path data-name="Tracé 320" d="M410.573 543.168L261.209 249.359l161.789 30.278.36.062 131.487-40.619.189-.059 96.54-60.335-1.614-2.583-96.205 60.126-130.6 40.344-163.667-30.6L138.654 8.278l-2.717 1.38 271.8 534.668 31.989 101.175 2.906-.918-32.027-101.3z"/><path data-name="Tracé 321" d="M694.918 233.49l-44.954 38.472L365.35 386.996l2.079 2.446 283.907-114.75.232-.093 45.332-38.8z"/><path data-name="Tracé 322" d="M389.002 543.275l-.037-.113-150.874-296.375 1.006-.524-1.407-2.7-.981.511L117.054 9.021l-2.715 1.382 89.228 175.277-109.74 65.823 87.109 82.565 2.1-2.21-38.4-36.394 90.755-47.269 150.751 296.136 28.8 88.622 4.353 35.364 3.024-.372-4.39-35.655zM98.834 252.052l106.12-63.651 29.056 57.078-91.71 47.768z"/><path data-name="Tracé 323" d="M485.471 395.724L381.507 186.318a13.3 13.3 0 01-6.529 3.976l103.6 208.663z"/><path data-name="Tracé 324" d="M408.517 163.332c83.7-43.313 168.384-87.236 169.229-87.675l-3.506-6.761c-52.539 27.251-126.926 65.8-192.621 99.779a13.226 13.226 0 013.177 6.929q11.443-5.919 23.721-12.273"/><path data-name="Tracé 325" d="M363.413 167.002a13.217 13.217 0 017.108-2.81l-45.793-92.237c3.125-9.711 22.389-68.283 32.834-100.008l-7.233-2.383s-8.348 25.353-16.685 50.721a37783.127 37783.127 0 00-11.455 34.9 7025.198 7025.198 0 00-3.766 11.523c-.454 1.4-.81 2.5-1.051 3.251-.493 1.535-.89 2.774-.059 4.188z"/><path data-name="Tracé 326" d="M242.552 248.847c2.53-1.268 6.215-3.138 10.893-5.524 8.848-4.516 21.815-11.174 38.54-19.79a54645.833 54645.833 0 0070.553-36.42 13.28 13.28 0 01-3.828-6.592c-66.958 34.612-120.108 61.99-123.143 63.267l3.137 6.919c.884-.376 2.082-.975 3.848-1.86"/><path data-name="Tracé 327" d="M38.809 346.542a13.211 13.211 0 01.762-4.4l-178.515 70.7 2.8 7.081L39.382 350.41a13.245 13.245 0 01-.577-3.867"/><path data-name="Tracé 328" d="M511.309 440.145l112.7 35.233 2.273-7.27-112.455-35.156a13.212 13.212 0 01-2.518 7.193"/><path data-name="Tracé 329" d="M572.582 588.311l6.822-3.387-70.585-142.173a13.226 13.226 0 01-7.094 2.838z"/><path data-name="Tracé 330" d="M783.262 340.729l-2.45-7.212-269.19 91.463a13.221 13.221 0 012.232 7.285z"/><path data-name="Tracé 331" d="M400.665 462.68l-.391.133-58.306 35.195-39.735-36.093a13.37 13.37 0 01-4.945 5.8l37.875 34.4-105.471 63.665-3.637-27.73a12.835 12.835 0 01-7.536 1.107l5.136 39.163.078-.047 7.07 48.446-76.3-23.949-.131-63.424h-7.616l.12 57.952-161.671-142.059 66.271-95.428a13.211 13.211 0 01-7.4-2.694l-69 99.358 172.313 151.41 1.641 1.147 82.996 26.052 4.9 33.6 7.535-1.1-13.656-93.579 110.242-66.55L475.116 629.24l5.121-5.637-132.384-120.248 55.652-33.6 86.474-29.381a13.208 13.208 0 01-2.677-7.135z"/><path data-name="Tracé 332" d="M170.366 352.422l107.905 98.015a13.389 13.389 0 015.3-5.475l-108.4-98.465 7.4-9.127 304.7 95.259c0-.095-.015-.187-.015-.281a13.205 13.205 0 012.05-7.062l-309.4-96.729-21.5 26.514-42.467-36.709a13.235 13.235 0 01-3.3 7.217l43.019 37.187 21.5 57.778-25.542 28.265-48.436-118.813c-.141 0-.28.021-.422.021a13.319 13.319 0 01-12.219-8.056l-32.3 12.79a13.373 13.373 0 016.089 6.549l.737-1.062 29.328-11.614 52.191 127.983.125 60.451h7.616l-.123-59.739 25.966-28.733 32.304 86.8a13.2 13.2 0 017.146-2.634l-56.395-151.521z"/><path data-name="Tracé 333" d="M92.549 308.204a13.328 13.328 0 016.675-4.3l-23.118-19.982 22.517-31.959L-65.735-27.966l-6.568 3.858 161.874 275.7-20.179 28.636-220.171-54.49-1.829 7.392 221.815 54.9z"/><path data-name="Tracé 334" d="M505.474 436.691v-8.5a.952.952 0 00-1.072-1c-.609 0-.852.268-1.12.8l-2.631 5.48h-.024l-2.655-5.48c-.268-.535-.512-.8-1.12-.8a.95.95 0 00-1.072 1v8.5a.737.737 0 00.8.731.783.783 0 00.825-.731v-6.334h.033l2.414 4.922a.834.834 0 001.558 0l2.411-4.922h.024v6.332a.786.786 0 00.829.732.737.737 0 00.8-.732"/><path data-name="Tracé 335" d="M513.854 432.265a13.3 13.3 0 00-26.6.082c0 .1.012.187.014.282 0 .206.018.41.031.614a13.323 13.323 0 0013.255 12.406c.395 0 .783-.025 1.168-.059a13.224 13.224 0 007.094-2.837 13.412 13.412 0 002.49-2.608 13.212 13.212 0 002.518-7.193c.009-.2.03-.4.03-.6v-.082m-5.663 6.9a10.306 10.306 0 01-7.635 3.433c-.109 0-.215-.013-.323-.016a10.275 10.275 0 117.958-3.417"/><path data-name="Tracé 336" d="M294.985 460.901v-8.5a.952.952 0 00-1.072-1c-.609 0-.852.268-1.12.8l-2.631 5.481h-.024l-2.655-5.481c-.268-.535-.512-.8-1.12-.8a.95.95 0 00-1.072 1v8.5a.737.737 0 00.8.731.783.783 0 00.825-.731v-6.334h.024l2.414 4.921a.834.834 0 001.558 0l2.412-4.921h.024v6.332a.786.786 0 00.829.732.737.737 0 00.8-.732"/><path data-name="Tracé 337" d="M290.067 443.256a13.212 13.212 0 00-6.5 1.706 13.378 13.378 0 00-5.3 5.475 13.281 13.281 0 0019.025 17.274 13.367 13.367 0 004.944-5.8 13.283 13.283 0 00-12.166-18.657m4.873 22.322a10.253 10.253 0 01-14.32-13.008 10.313 10.313 0 015.365-5.416 10.243 10.243 0 0113.832 12.564 10.3 10.3 0 01-4.878 5.859"/><path data-name="Tracé 338" d="M225.355 530.353v-8.5a.952.952 0 00-1.072-1c-.609 0-.852.268-1.12.8l-2.631 5.481h-.024l-2.655-5.481c-.268-.535-.512-.8-1.12-.8a.95.95 0 00-1.072 1v8.5a.737.737 0 00.8.731.783.783 0 00.825-.731v-6.334h.024l2.414 4.922a.834.834 0 001.558 0l2.411-4.922h.024v6.332a.786.786 0 00.829.732.737.737 0 00.8-.732"/><path data-name="Tracé 339" d="M220.438 512.709c-.276 0-.548.025-.82.042a13.05 13.05 0 10.82-.042m5.2 22.127a10.242 10.242 0 11-5.2-19.081c.1 0 .2.012.3.015a10.238 10.238 0 014.892 19.065"/><path data-name="Tracé 340" d="M376.553 181.779v-8.5a.952.952 0 00-1.072-1c-.609 0-.852.268-1.12.8l-2.631 5.481h-.024l-2.655-5.481c-.268-.535-.512-.8-1.12-.8a.95.95 0 00-1.072 1v8.5a.737.737 0 00.8.731.783.783 0 00.825-.731v-6.334h.024l2.414 4.922a.834.834 0 001.558 0l2.411-4.922h.024v6.332a.786.786 0 00.829.732.737.737 0 00.8-.732"/><path data-name="Tracé 341" d="M384.796 175.604a13.33 13.33 0 00-13.161-11.469c-.376 0-.746.026-1.114.056a13.393 13.393 0 1014.275 11.413m-4.777 7.719a10.239 10.239 0 11-8.384-16.141c.128 0 .253.014.379.019a10.235 10.235 0 019.86 9.915c0 .108.016.213.016.321a10.186 10.186 0 01-1.871 5.886"/><path data-name="Tracé 342" d="M57.026 350.886v-8.5a.952.952 0 00-1.072-1c-.609 0-.852.268-1.12.8l-2.631 5.481h-.024l-2.655-5.481c-.268-.535-.512-.8-1.12-.8a.95.95 0 00-1.072 1v8.5a.737.737 0 00.8.731.783.783 0 00.825-.731v-6.334h.024l2.414 4.922a.834.834 0 001.558 0l2.411-4.922h.024v6.327a.786.786 0 00.829.732.737.737 0 00.8-.732"/><path data-name="Tracé 343" d="M52.11 359.844a14.412 14.412 0 10-.634-.032c.212.01.42.032.634.032m-9.873-10.563a10.286 10.286 0 113.573 5.337 10.22 10.22 0 01-3.573-5.337"/><path data-name="Tracé 344" d="M102.757 303.415a13.3 13.3 0 000 26.6c.142 0 .281-.017.422-.021a13.294 13.294 0 00-.422-26.582m10.254 13.3a10.3 10.3 0 01-10.254 10.255c-.279 0-.554-.02-.829-.042a10.243 10.243 0 01.282-20.44c.182-.01.363-.028.547-.028a10.265 10.265 0 0110.207 9.324c.028.307.047.617.047.931"/><path data-name="Tracé 345" d="M107.674 321.06v-8.5a.952.952 0 00-1.072-1c-.609 0-.852.268-1.12.8l-2.631 5.481h-.024l-2.655-5.481c-.268-.535-.512-.8-1.12-.8a.95.95 0 00-1.072 1v8.5a.737.737 0 00.8.731.783.783 0 00.825-.731v-6.334h.024l2.414 4.921a.834.834 0 001.558 0l2.411-4.921h.024v6.332a.786.786 0 00.829.732.737.737 0 00.8-.732"/><path data-name="Tracé 346" d="M227.054 477.753a3.745 3.745 0 113.745 3.936 3.678 3.678 0 01-3.745-3.936m5.847 0c0-1.537-.768-2.519-2.1-2.519s-2.123.982-2.123 2.519.78 2.5 2.123 2.5 2.1-.97 2.1-2.5"/><path data-name="Tracé 347" d="M242.258 479.428c0 1.354-1.014 2.155-2.625 2.155h-3.478v-7.682h3.253c1.7 0 2.593.789 2.593 2.069a1.653 1.653 0 01-.982 1.632 1.843 1.843 0 011.238 1.825m-2.955-4.215h-1.622v1.909h1.675a.96.96 0 001.089-.97c0-.533-.353-.939-1.142-.939m1.354 4.107c0-.629-.437-.992-1.13-.992h-1.846v1.942h1.814c.736 0 1.162-.331 1.162-.95"/><path data-name="Tracé 348" d="M249.219 480.238v1.344h-5.366V473.9h5.24v1.343h-3.713v1.825h2.813v1.311h-2.817v1.857z"/><path data-name="Tracé 349" d="M250.814 473.901h3.456a2.452 2.452 0 012.647 2.507 2.337 2.337 0 01-1.558 2.39l1.418 2.784h-1.717L253.78 479h-1.451v2.582h-1.515zm3.211 3.808a1.143 1.143 0 001.291-1.248c0-.8-.448-1.216-1.291-1.216h-1.7v2.464z"/><path data-name="Tracé 350" d="M258.579 473.901h1.515v3.638l3.243-3.638h1.793l-2.955 3.275 2.965 4.406h-1.941l-2.165-3.211-.939 1.013v2.2h-1.515z"/><path data-name="Tracé 351" d="M270.842 479.971h-2.89l-.6 1.612h-1.557l2.912-7.681h1.493l2.9 7.681h-1.675zm-.417-1.162l-1.014-2.807-1.034 2.807z"/><path data-name="Tracé 352" d="M280.792 473.901h1.827v7.681h-1.5v-2.838c0-.79.032-1.717.107-2.411l-1.974 5.249h-1.409l-1.984-5.452a19.35 19.35 0 01.085 2.614v2.838h-1.494v-7.681h1.909l2.219 6.006z"/><path data-name="Tracé 353" d="M284.573 473.901h3.212a2.548 2.548 0 110 5.088h-1.665v2.593h-1.547zm2.987 3.776a1.16 1.16 0 001.3-1.226 1.145 1.145 0 00-1.3-1.206h-1.44v2.432z"/><path data-name="Tracé 354" d="M293.595 475.246v1.9h3.04v1.312h-3.04v3.126h-1.526v-7.683h5.153v1.344z"/><path data-name="Tracé 355" d="M463.008 405.497h3.211a2.548 2.548 0 110 5.088h-1.664v2.593h-1.547zm2.988 3.776a1.159 1.159 0 001.3-1.226 1.145 1.145 0 00-1.3-1.206h-1.441v2.432z"/><path data-name="Tracé 356" d="M474.079 411.566h-2.892l-.6 1.612h-1.558l2.912-7.681h1.494l2.9 7.681h-1.676zm-.417-1.162l-1.013-2.807-1.035 2.807z"/><path data-name="Tracé 357" d="M477.681 405.497h3.456a2.451 2.451 0 012.646 2.507 2.338 2.338 0 01-1.558 2.39l1.419 2.784h-1.718l-1.279-2.582h-1.452v2.582h-1.514zm3.211 3.808a1.143 1.143 0 001.29-1.248c0-.8-.448-1.216-1.29-1.216h-1.7v2.464z"/><path data-name="Tracé 358" d="M491.79 405.497h1.825v7.681h-1.5v-2.838c0-.79.032-1.717.107-2.411l-1.973 5.249h-1.408l-1.983-5.452a19.6 19.6 0 01.084 2.614v2.838h-1.494v-7.681h1.91l2.219 6.006z"/><path data-name="Tracé 359" d="M500.937 411.832v1.344h-5.366v-7.681h5.238v1.344h-3.713v1.825h2.816v1.311h-2.816v1.857z"/><path data-name="Tracé 360" d="M502.534 405.496h1.537l3.232 5.206v-5.206h1.5v7.681h-1.525l-3.232-5.089v5.089h-1.516z"/><path data-name="Tracé 361" d="M514.18 413.177h-1.515v-6.337h-2.39v-1.344h6.295v1.344h-2.39z"/><path data-name="Rectangle 173" d="M518.037 405.496h1.526v7.681h-1.526z"/><path data-name="Tracé 362" d="M526.883 411.832v1.344h-5.366v-7.681h5.238v1.344h-3.713v1.825h2.816v1.311h-2.816v1.857z"/><path data-name="Tracé 363" d="M528.475 405.497h3.456a2.451 2.451 0 012.647 2.507 2.337 2.337 0 01-1.557 2.39l1.418 2.784h-1.717l-1.28-2.582h-1.451v2.582h-1.515zm3.211 3.808a1.143 1.143 0 001.291-1.248c0-.8-.448-1.216-1.291-1.216h-1.7v2.464z"/><path data-name="Tracé 364" d="M297.023 171.15v4.406h-1.281l-.128-.928a2.921 2.921 0 01-2.4 1.035 3.481 3.481 0 01-3.553-3.8 3.758 3.758 0 013.82-4.1 3.313 3.313 0 013.5 2.581h-1.7a1.8 1.8 0 00-1.825-1.184c-1.334 0-2.208.96-2.208 2.561s.864 2.549 2.166 2.549a1.923 1.923 0 002.079-1.76l.1.011v-.128h-2.369v-1.248z"/><path data-name="Tracé 365" d="M298.542 171.725a3.745 3.745 0 113.745 3.936 3.678 3.678 0 01-3.745-3.936m5.847 0c0-1.537-.769-2.519-2.1-2.519s-2.123.982-2.123 2.519.78 2.5 2.123 2.5 2.1-.97 2.1-2.5"/><path data-name="Tracé 366" d="M307.648 167.875h1.536l3.232 5.206v-5.206h1.5v7.681h-1.521l-3.232-5.089v5.089h-1.515z"/><path data-name="Tracé 367" d="M321.192 172.974h1.675a3.492 3.492 0 01-3.617 2.678 3.575 3.575 0 01-3.7-3.873 3.693 3.693 0 013.777-4.011 3.4 3.4 0 013.542 2.678h-1.677a1.883 1.883 0 00-1.9-1.28c-1.333 0-2.165 1.024-2.165 2.55s.811 2.539 2.145 2.539a1.9 1.9 0 001.92-1.28"/><path data-name="Tracé 368" d="M324.089 171.725a3.745 3.745 0 113.745 3.936 3.678 3.678 0 01-3.745-3.936m5.847 0c0-1.537-.768-2.519-2.1-2.519s-2.123.982-2.123 2.519.78 2.5 2.123 2.5 2.1-.97 2.1-2.5"/><path data-name="Tracé 369" d="M334.655 172.697a1.633 1.633 0 003.265 0v-4.822h1.547v4.672a3.18 3.18 0 01-6.358 0v-4.672h1.546z"/><path data-name="Tracé 370" d="M341.331 167.875h3.457a2.45 2.45 0 012.645 2.506 2.336 2.336 0 01-1.557 2.39l1.419 2.784h-1.717l-1.28-2.582h-1.452v2.582h-1.515zm3.212 3.808a1.143 1.143 0 001.29-1.248c0-.8-.449-1.216-1.29-1.216h-1.7v2.464z"/><path data-name="Tracé 371" d="M352.378 175.555h-1.515v-6.337h-2.39v-1.344h6.295v1.344h-2.39z"/><path data-name="Tracé 372" d="M56.65 372.284h-1.514v-6.337h-2.391v-1.344h6.3v1.344h-2.391z"/><path data-name="Tracé 373" d="M65.874 370.94v1.344h-5.366v-7.681h5.238v1.343h-3.713v1.825h2.817v1.311h-2.817v1.857z"/><path data-name="Tracé 374" d="M73.818 364.603h1.825v7.681h-1.5v-2.838c0-.79.031-1.717.107-2.411l-1.974 5.249h-1.408l-1.984-5.452a19.354 19.354 0 01.085 2.614v2.838h-1.494v-7.681h1.91l2.219 6.006z"/><path data-name="Tracé 375" d="M77.599 364.603h3.212a2.548 2.548 0 110 5.088h-1.665v2.593h-1.547zm2.988 3.776a1.159 1.159 0 001.3-1.226 1.144 1.144 0 00-1.3-1.206h-1.441v2.432z"/><path data-name="Tracé 376" d="M90.119 370.886v1.4h-5.025v-7.681h1.525v6.283z"/><path data-name="Tracé 377" d="M97.05 370.94v1.344h-5.365v-7.681h5.24v1.343h-3.713v1.825h2.813v1.311h-2.817v1.857z"/><path data-name="Tracé 378" d="M15.051 308.772h3.461a2.451 2.451 0 012.647 2.506 2.338 2.338 0 01-1.557 2.39l1.418 2.784h-1.717l-1.28-2.582h-1.451v2.582h-1.515zm3.211 3.808a1.143 1.143 0 001.291-1.248c0-.8-.448-1.216-1.291-1.216h-1.7v2.464z"/><path data-name="Tracé 379" d="M28.182 315.109v1.344h-5.366v-7.681h5.238v1.344h-3.713v1.825h2.817v1.312h-2.817v1.856zm-2.23-6.881h-1.13l.938-1.611h1.281z"/><path data-name="Tracé 380" d="M29.775 308.772h3.212a2.548 2.548 0 110 5.088h-1.665v2.593h-1.547zm2.988 3.776a1.159 1.159 0 001.3-1.226 1.144 1.144 0 00-1.3-1.206h-1.441v2.432z"/><path data-name="Tracé 381" d="M38.733 313.594a1.633 1.633 0 003.265 0v-4.822h1.546v4.672a3.18 3.18 0 01-6.358 0v-4.672h1.547z"/><path data-name="Tracé 382" d="M51.51 314.298c0 1.354-1.014 2.155-2.625 2.155H45.41v-7.681h3.254c1.7 0 2.593.789 2.593 2.069a1.654 1.654 0 01-.982 1.632 1.843 1.843 0 011.238 1.825m-2.956-4.215h-1.621v1.905h1.674a.959.959 0 001.088-.97c0-.533-.352-.939-1.142-.939m1.354 4.109c0-.629-.437-.992-1.13-.992h-1.846v1.942h1.813c.736 0 1.163-.331 1.163-.95"/><path data-name="Tracé 383" d="M58.131 315.055v1.4h-5.025v-7.681h1.525v6.283z"/><path data-name="Rectangle 174" d="M59.695 308.772h1.525v7.681h-1.525z"/><path data-name="Tracé 384" d="M70.606 315.193v1.259h-.768a1.332 1.332 0 01-1.184-.469 3.768 3.768 0 01-2.07.576 3.953 3.953 0 113.734-3.936 4.218 4.218 0 01-.682 2.4c.1.117.212.171.49.171zm-4.021-.043a2.048 2.048 0 001.142-.309l-.107-.139c-.234-.3-.32-.373-.693-.373h-.629v-1.227h1.077a1.112 1.112 0 011.014.512l.128.149a3.425 3.425 0 00.171-1.141c0-1.537-.768-2.519-2.1-2.519s-2.123.982-2.123 2.519c0 1.567.779 2.528 2.123 2.528"/><path data-name="Tracé 385" d="M73.546 313.594a1.632 1.632 0 003.264 0v-4.822h1.547v4.672a3.179 3.179 0 01-6.357 0v-4.672h1.546z"/><path data-name="Tracé 386" d="M85.586 315.108v1.344H80.22v-7.681h5.238v1.343h-3.713v1.825h2.816v1.311h-2.816v1.857z"/><path data-name="Tracé 387" d="M97.307 526.412v1.9h3.04v1.312h-3.04v3.126h-1.525v-7.681h5.153v1.344z"/><path data-name="Rectangle 175" d="M102.467 525.068h1.525v7.681h-1.525z"/><path data-name="Tracé 388" d="M110.968 531.352v1.4h-5.025v-7.681h1.525v6.283z"/><path data-name="Tracé 389" d="M117.557 531.352v1.4h-5.025v-7.681h1.526v6.283z"/><path data-name="Tracé 390" d="M124.488 531.405v1.344h-5.366v-7.681h5.238v1.343h-3.713v1.825h2.816v1.311h-2.816v1.857z"/><path data-name="Tracé 391" d="M128.6 532.75v-7.681h2.807a3.84 3.84 0 110 7.681zm1.525-1.344h1.194a2.268 2.268 0 002.347-2.539 2.2 2.2 0 00-2.347-2.454h-1.194z"/><path data-name="Tracé 392" d="M138.357 529.891a1.632 1.632 0 003.264 0v-4.822h1.547v4.672a3.179 3.179 0 01-6.357 0v-4.672h1.546z"/><path data-name="Tracé 393" d="M152.86 530.167h1.675a3.49 3.49 0 01-3.616 2.678 3.575 3.575 0 01-3.7-3.873 3.693 3.693 0 013.776-4.011 3.4 3.4 0 013.541 2.678h-1.675a1.881 1.881 0 00-1.9-1.28c-1.334 0-2.166 1.024-2.166 2.55s.811 2.539 2.144 2.539a1.9 1.9 0 001.92-1.28"/><path data-name="Tracé 394" d="M160.282 531.138h-2.891l-.6 1.612h-1.558l2.912-7.681h1.494l2.9 7.681h-1.676zm-.416-1.162l-1.014-2.807-1.034 2.807z"/><path data-name="Tracé 395" d="M168.907 531.352v1.4h-5.025v-7.681h1.526v6.283z"/><path data-name="Tracé 396" d="M174.451 525.069h1.633l-2.934 7.681h-1.6l-2.922-7.681h1.653l2.113 5.835z"/><path data-name="Tracé 397" d="M180.817 531.138h-2.89l-.6 1.612h-1.557l2.912-7.681h1.494l2.9 7.681h-1.671zm-.415-1.162l-1.014-2.807-1.033 2.807z"/><path data-name="Rectangle 176" d="M184.417 525.068h1.526v7.681h-1.526z"/><path data-name="Tracé 398" d="M187.894 525.069h3.457a2.451 2.451 0 012.645 2.506 2.336 2.336 0 01-1.557 2.39l1.419 2.784h-1.718l-1.279-2.582h-1.451v2.582h-1.515zm3.212 3.808a1.143 1.143 0 001.29-1.248c0-.8-.449-1.216-1.29-1.216h-1.7v2.464z"/><path data-name="Tracé 399" d="M201.022 531.405v1.344h-5.367v-7.681h5.239v1.343h-3.714v1.825h2.816v1.311h-2.816v1.857z"/></g></g><circle data-name="Ellipse 51" cx="37" cy="37" r="37" transform="translate(1012 6791)" fill="#ad8b53"/></g></svg>