<?xml version="1.0" encoding="utf-8"?>
<!-- Generator: Adobe Illustrator 25.2.3, SVG Export Plug-In . SVG Version: 6.00 Build 0)  -->
<svg version="1.1" id="Calque_2" xmlns="http://www.w3.org/2000/svg" xmlns:xlink="http://www.w3.org/1999/xlink" x="0px" y="0px"
	 viewBox="0 0 240 100" style="enable-background:new 0 0 240 100;" xml:space="preserve">
<style type="text/css">
	.st0{fill:#333333;}
</style>
<g>
	<path class="st0" d="M109.5,51.4c0,6.9-5.4,12-12.1,12c-6.6,0-12.1-5.1-12.1-12c0-7,5.4-12,12.1-12
		C104.1,39.4,109.5,44.4,109.5,51.4z M104.2,51.4c0-4.3-3.1-7.3-6.8-7.3c-3.6,0-6.8,3-6.8,7.3c0,4.3,3.1,7.3,6.8,7.3
		C101.1,58.7,104.2,55.7,104.2,51.4z"/>
	<path class="st0" d="M135.5,51.4c0,6.9-5.4,12-12.1,12s-12.1-5.1-12.1-12c0-7,5.4-12,12.1-12S135.5,44.4,135.5,51.4z M130.2,51.4
		c0-4.3-3.1-7.3-6.8-7.3s-6.8,3-6.8,7.3c0,4.3,3.1,7.3,6.8,7.3S130.2,55.7,130.2,51.4z"/>
	<path class="st0" d="M160.4,40.1v21.6c0,8.9-5.2,12.5-11.4,12.5c-5.8,0-9.3-3.9-10.7-7.1l4.6-1.9c0.8,2,2.8,4.3,6.1,4.3
		c4,0,6.4-2.4,6.4-7v-1.7h-0.2c-1.2,1.5-3.5,2.7-6.3,2.7c-6,0-11.5-5.2-11.5-12c0-6.8,5.5-12.1,11.5-12.1c2.9,0,5.1,1.3,6.3,2.7h0.2
		v-2L160.4,40.1L160.4,40.1z M155.8,51.4c0-4.2-2.8-7.3-6.4-7.3c-3.6,0-6.7,3.1-6.7,7.3c0,4.2,3.1,7.2,6.7,7.2
		C152.9,58.7,155.8,55.6,155.8,51.4z"/>
	<path class="st0" d="M168.7,27.4v35.2h-5.1V27.4L168.7,27.4z"/>
	<path class="st0" d="M188.7,55.3l4.1,2.7c-1.3,2-4.5,5.3-10,5.3c-6.8,0-11.9-5.3-11.9-12c0-7.1,5.1-12,11.3-12
		c6.2,0,9.3,5,10.3,7.6l0.5,1.4L177,55c1.2,2.4,3.1,3.6,5.8,3.6C185.5,58.7,187.4,57.3,188.7,55.3L188.7,55.3z M176.1,51l10.7-4.5
		c-0.6-1.5-2.4-2.5-4.5-2.5C179.7,44,176,46.4,176.1,51z"/>
	<path class="st0" d="M65.9,48.2v-5.1h17.2c0.2,0.9,0.3,1.9,0.3,3.1c0,3.8-1,8.6-4.4,11.9c-3.3,3.4-7.5,5.2-13,5.2
		c-10.3,0-18.9-8.4-18.9-18.7s8.6-18.7,18.9-18.7c5.7,0,9.7,2.2,12.8,5.1l-3.6,3.6c-2.2-2-5.1-3.6-9.2-3.6
		c-7.5,0-13.4,6.1-13.4,13.6s5.9,13.6,13.4,13.6c4.9,0,7.6-2,9.4-3.7c1.4-1.4,2.4-3.5,2.8-6.3L65.9,48.2z"/>
</g>
</svg>
