<?xml version="1.0" encoding="utf-8"?>
<!-- Generator: Adobe Illustrator 25.2.3, SVG Export Plug-In . SVG Version: 6.00 Build 0)  -->
<svg version="1.1" id="Calque_1" xmlns="http://www.w3.org/2000/svg" xmlns:xlink="http://www.w3.org/1999/xlink" x="0px" y="0px"
	 viewBox="0 0 240 100" style="enable-background:new 0 0 240 100;" xml:space="preserve">
<style type="text/css">
	.st0{fill:#333333;}
</style>
<path class="st0" d="M147,77.3c0.1,0,0.2,0,0.2,0S147,77.2,147,77.3z M147.5,77.1c-0.1-0.1,0,0.1-0.1,0.1c0,0,0,0,0,0c0,0,0,0-0.1,0
	s0,0-0.1,0c0,0,0,0,0,0c0,0.1,0.1,0.1,0.3,0.1C147.6,77.3,147.6,77.2,147.5,77.1z M152.8,76.8c-0.3,0-0.6,0-0.9,0.1
	c0.3,0.1,0.6,0.1,0.9,0c0.3-0.1,0.5-0.1,0.5,0.1c0.4,0,0.5,0,0.5-0.2C153.5,76.8,153.1,76.8,152.8,76.8z M153.7,76.9
	c0,0,0.1,0,0.1,0C153.9,76.9,153.7,76.9,153.7,76.9z M146.4,77.5c0.1,0,0.2,0,0.2,0S146.4,77.5,146.4,77.5z M144.4,77.5
	c0.4-0.2,0.8-0.2,1.2-0.2c0.4,0.1,0.8,0,1.2-0.1c-0.4,0-0.9,0.1-1.4,0C144.8,77.3,144.5,77.4,144.4,77.5z M141.1,77.6
	c-0.1,0-0.3,0-0.4,0c-0.1,0-0.2,0.1-0.3,0.1c0.3-0.1,0.6-0.1,0.9,0c0.3,0.1,0.5,0,0.6-0.1C141.7,77.7,141.4,77.7,141.1,77.6z
	 M156.5,76.8c0.1,0,0.2,0,0.2,0S156.5,76.8,156.5,76.8z M156.9,76.5c-0.1,0-0.2,0,0,0.1c0.1,0,0.2,0,0.3,0c0.1,0,0-0.1,0-0.1
	C157.2,76.5,157,76.6,156.9,76.5z M156.8,76.8c0.2,0,0.3,0,0.3-0.1C156.9,76.7,156.8,76.7,156.8,76.8z M157.5,76.8
	c0.3,0,0.4,0,0.3-0.1C157.7,76.7,157.6,76.7,157.5,76.8z M154.3,76.9c0,0.1,0.1,0.1,0.1,0S154.4,76.8,154.3,76.9z M154.9,76.9
	c0,0.1,0.1,0.1,0.1,0C155.1,76.8,155,76.8,154.9,76.9z M156.3,76.6c0,0-0.1,0-0.1,0.1c0.1,0.1,0.2,0.1,0.3,0.1c0.2,0,0.2,0,0.2-0.1
	c-0.1,0-0.2,0-0.3,0C156.4,76.5,156.4,76.5,156.3,76.6z M137.1,78.2c0.6-0.1,1.2-0.1,1.8-0.1c0.5,0,1-0.1,1.5-0.3l-1.8,0.1
	C138.1,77.9,137.6,78,137.1,78.2z M175.2,73c0.1,0,0.2,0,0.2,0C175.4,72.9,175.3,72.9,175.2,73z M167.4,73
	C167.3,73,167.3,73,167.4,73C167.4,73,167.4,73,167.4,73z M171.2,73c0.1,0,0.1,0,0.1,0c-0.3-0.1-0.4-0.1-0.3,0
	C171.1,73,171.1,73,171.2,73z M170.2,73c-0.1,0-0.1,0-0.2,0c-0.1,0,0,0.1,0.4,0.1C170.3,73,170.3,73,170.2,73z M174.4,72.8
	c-0.1,0-0.2,0-0.2,0S174.4,72.9,174.4,72.8z M139.9,78c0.1,0.1,0.1,0.1,0.1,0S140,77.9,139.9,78z M158,76.7c0,0,0.1,0.1,0.1,0.1
	c0.1,0,0.1,0,0.1-0.1C158,76.6,157.9,76.6,158,76.7z M177.9,73C177.9,73,177.9,73,177.9,73C177.9,73,177.9,73,177.9,73
	C177.9,73,177.9,73,177.9,73C177.9,73,177.9,73,177.9,73L177.9,73C177.9,73,177.9,73,177.9,73z M181.2,72.9c-0.2,0-0.5,0-0.7,0
	C180.7,73,180.9,73,181.2,72.9z M136.8,78.4c0.1,0.1,0.2,0.1,0.2,0C136.8,78.3,136.7,78.3,136.8,78.4z M137.1,78.3
	c-0.1,0-0.1,0-0.1,0.1c0,0,0.1,0,0.1,0c0,0,0.1,0,0.1,0c0.1,0,0.1-0.1,0-0.1C137.3,78.2,137.2,78.3,137.1,78.3z M139.3,78.2
	c0.1,0,0.2,0,0.2,0S139.3,78.1,139.3,78.2z M134.2,75.2c-0.1,0,0,0.1,0.1,0C134.3,75.1,134.3,75.1,134.2,75.2z M145.2,74.1
	C145.2,74.1,145.2,74.1,145.2,74.1L145.2,74.1C145.2,74.1,145.2,74.1,145.2,74.1z M136.6,78.4c0.1,0,0.2,0,0.2,0
	S136.5,78.4,136.6,78.4z M160.2,73.3c-0.1,0-0.2,0-0.2,0S160.2,73.3,160.2,73.3z M142.1,77.6l1.1-0.1c0.3,0,0.6,0,0.9-0.1
	c-0.4,0-0.7,0.1-1.1,0.1C142.7,77.5,142.4,77.5,142.1,77.6z M195.1,76.8c0,0,0,0,0.2,0c0.2,0-0.2-0.1-0.3-0.1L195.1,76.8z
	 M195.7,76.9c0.2,0,0.2,0,0.2,0C195.7,76.9,195.6,76.9,195.7,76.9C195.6,76.9,195.6,76.9,195.7,76.9z M195.5,76.8L195.5,76.8
	C195.5,76.9,195.5,76.9,195.5,76.8C195.5,76.9,195.6,76.8,195.5,76.8z M183.5,76.4c0.1,0,0.1-0.1,0.2,0c0.2,0.1,0.2,0,0.2-0.1
	c0,0-0.1,0.1-0.2,0.1s-0.1,0-0.2-0.1c0,0,0,0-0.1-0.1c0,0-0.1,0-0.1,0C183.4,76.3,183.4,76.4,183.5,76.4z M195.6,76.8h-0.1
	C195.5,76.8,195.6,76.8,195.6,76.8z M190.7,76.6c0.1,0,0.2,0,0.2,0C190.9,76.6,190.7,76.5,190.7,76.6z M194.1,76.7c0,0,0,0,0.2,0
	c0.2,0-0.2,0-0.3,0L194.1,76.7z M188.5,76.5c0.2,0.1,0.3,0.1,0.2,0C188.7,76.4,188.6,76.5,188.5,76.5z M191.3,76.6c0,0,0,0,0.2,0
	c0.2,0-0.2-0.1-0.3-0.1L191.3,76.6z M183.3,76.2C183.4,76.2,183.4,76.2,183.3,76.2C183.4,76.2,183.4,76.2,183.3,76.2
	C183.4,76.2,183.4,76.2,183.3,76.2z M183.1,76.3C183.1,76.4,183.1,76.3,183.1,76.3c0.2,0.2,0.2,0.1,0.2,0.1c-0.1-0.1,0-0.1,0-0.1
	C183.3,76.2,183.2,76.2,183.1,76.3C183.1,76.2,183.1,76.3,183.1,76.3z M202.4,76.1c-0.1,0-0.1,0-0.2,0c-0.1,0-0.1,0-0.2-0.1
	c0.1,0,0.2-0.1,0.1-0.2c-0.1-0.1-0.2-0.2-0.3-0.3c0,0-0.1-0.1-0.1-0.2c0-0.1,0-0.1,0-0.2c-0.5-0.2-0.8-0.5-1.1-1
	c-0.5-0.3-1.1-0.5-1.7-0.5c-0.6,0-1.2-0.1-1.8-0.2c-0.4,0.1-0.8,0-1.2-0.1c-0.4-0.1-0.8-0.1-1.2,0c0-0.1-0.1-0.2-0.3-0.2
	c-0.2,0-0.3,0-0.3,0.1c0,0-0.1-0.1-0.1-0.1c0,0-0.1,0-0.1,0c0,0-0.1,0-0.1,0c0,0-0.1,0-0.1,0.1c-0.1-0.1-0.3-0.1-0.4-0.1
	c-0.2,0-0.5,0-0.7,0h-0.8c-0.2,0-0.3,0-0.5-0.1c-0.3,0.1-0.5,0.1-0.8,0c-0.1,0-0.2,0-0.4,0c-0.1,0-0.2,0.1-0.4,0.1
	c-1-0.2-2-0.3-3-0.3c-1.1,0-2.1,0-3.2-0.1c0,0,0,0.1,0,0.1c0,0,0,0,0.1,0.1c0,0,0,0-0.1,0c-0.2-0.1-0.4-0.2-0.6-0.2
	c-0.2,0-0.4,0-0.6,0.1V73c-0.3-0.1-0.5-0.1-0.5,0c-0.1,0.1-0.3,0-0.5-0.1c0,0.1-0.1,0.2-0.4,0.2c-0.3,0-0.5,0-0.5-0.1
	c-0.1,0-0.2,0-0.2,0.1c-0.4-0.1-0.7-0.1-1.1,0c-0.4,0.1-0.8,0.1-1.2,0c0,0.1-0.1,0.1-0.2,0.1c-0.1,0-0.1,0-0.2,0
	c-0.2-0.1-0.4-0.1-0.5,0c0-0.1,0-0.2-0.1-0.2c-0.1,0-0.2-0.1-0.3-0.1c-0.1,0-0.2,0-0.3,0.1c-0.1,0-0.1,0.1-0.2,0.1
	c-0.1,0-0.2,0-0.2-0.1c0.1,0.2,0,0.3-0.4,0.2L175,73c0,0.1-0.2,0.1-0.5,0.1c0,0,0,0.1-0.1,0c-0.1-0.1-0.1,0-0.1-0.1
	c-0.6,0.1-1.2,0.2-1.8,0.1c-0.7-0.1-1.3-0.1-2,0c-0.9,0-1.9,0-3,0.1c-1,0.1-2.1,0.1-3.1,0c-0.8,0.2-1.7,0.3-2.5,0.2
	c-0.6-0.1-1.2,0-1.8,0.1c0,0,0,0-0.1,0c0,0-0.1,0-0.1,0.1c0,0,0,0,0,0c0,0,0,0-0.1,0c0,0,0,0-0.1,0c0,0-0.1-0.1-0.1-0.1
	c-0.1,0-0.1,0-0.2,0h-0.5l-3,0.1c-1,0-1.9,0-2.7,0c-0.4,0.1-0.9,0.2-1.4,0.3c-0.5,0.1-1.1,0-1.6-0.1c-0.8,0.3-1.6,0.4-2.5,0.3
	c-0.8,0-1.7,0-2.5,0.1c0,0,0,0-0.1,0s-0.1,0-0.1-0.1c-0.4,0.1-0.8,0.2-1.2,0.1c0,0.1,0,0.1-0.1,0.1c-0.1-0.1-0.3-0.1-0.4-0.1
	c-0.2,0-0.3,0-0.4,0.1c-0.1,0.1-0.2,0.1-0.4,0.1s-0.3,0-0.4-0.1c0,0-0.1,0.1-0.2,0.1c-0.1,0-0.1,0-0.2,0c-0.1,0-0.3,0-0.4,0
	c0,0.2-0.1,0.2-0.3,0.2c-0.2-0.1-0.4,0-0.5,0.1c-0.1-0.1-0.1-0.1-0.2-0.1c0,0.1-0.1,0.1-0.2,0.1c-0.1,0-0.1-0.1-0.2-0.1
	c-0.1,0-0.1,0-0.2,0.1c-0.3,0.1-0.6,0.2-0.9,0.1c-0.4,0-0.7,0-1.1,0c-0.3,0.1-0.7,0.2-1.1,0.2c-0.5,0-1,0.1-1.5,0.1l-0.5,0.1
	c-0.1,0.1-0.3,0.1-0.4,0l-0.5,0.1c-0.2,0-0.4,0-0.4-0.1c-0.2,0.1-0.2,0.2-0.1,0.2c-0.9,0-1.8,0.1-2.7,0.2c-1,0.1-1.9,0.2-2.7,0.3
	c-0.8,0-1.7,0.1-2.5,0.3c-0.8,0.2-1.6,0.2-2.3,0.1c-0.8,0.3-1.7,0.4-2.6,0.5c-1,0.1-2,0.2-3,0.3c-0.3,0.1-0.6,0.2-1,0.2
	c-0.2,0-0.4,0-0.5,0.1c-0.2,0.1-0.3,0.2-0.4,0.3c0,0.1-0.1,0.2,0,0.4s0.1,0.2,0.2,0.3c0.2,0.2,0.4,0.3,0.6,0.4c0,0-0.1,0-0.1,0.1
	c0.2,0.2,0.4,0.3,0.6,0.3c0.3,0.1,0.4,0.2,0.3,0.4c0.3,0.2,0.6,0.4,0.9,0.6c0.3,0.2,0.7,0.4,1.1,0.5c0.5,0,1.1-0.1,1.6-0.3
	c0.5-0.2,1-0.2,1.5-0.2c0.4-0.1,0.9-0.2,1.4-0.3c0.5-0.1,1-0.1,1.5,0c0-0.1,0.1-0.2,0.1-0.3c0.3,0.1,0.7,0.1,1,0
	c0.4-0.1,0.7-0.2,1-0.3c0.3-0.1,0.1,0.1,0,0.2c-0.1,0,0,0,0.1,0c0-0.1,0.1-0.1,0.2-0.2c0.1,0,0.1,0,0,0c0,0,0,0,0,0
	c0.1-0.1,0.3-0.1,0.5-0.1c0.4,0,0.7,0,0.7-0.2c0.2-0.1,0.5-0.1,0.7,0c0.1,0,0.2,0,0.3,0s0.2-0.1,0.3-0.1c-0.1,0-0.2,0-0.2,0
	c0,0-0.1,0-0.2,0c0,0,0.1-0.1,0.2-0.1c0.1,0,0.1,0,0.2,0c0.2,0,0.4,0,0.5,0c0,0,0-0.1,0.2,0c0.2,0.1,0,0,0.1,0c0.1,0,0.1,0,0.1,0.1
	h-0.2c0,0,0,0.1-0.2,0c-0.2-0.1,0,0-0.1,0.1c-0.1,0.1-0.1,0-0.1,0.1c0.1-0.1,0.3-0.1,0.4-0.1c0.1,0,0.2,0,0.3-0.1c0.1,0,0.1,0,0.2,0
	c0,0,0,0,0.1-0.1c0,0,0.1,0,0.1,0c0,0,0.1,0,0.1,0c0,0,0.1,0,0.1,0.1c0.8-0.2,1.7-0.3,2.5-0.4c0.9-0.1,1.7-0.2,2.6-0.4
	c-0.6-0.1-1.2-0.1-1.7,0.1c-0.5,0.2-1,0.2-1.5,0.1c0,0,0,0.1-0.1,0.1c0,0-0.1,0-0.1,0c-0.1,0-0.1,0-0.2,0.1c0,0,0-0.1,0-0.1
	c0,0.1-0.1,0-0.1,0c0,0,0.2-0.2,0.4-0.2c0.1,0,0.2,0,0.3,0c0.1,0,0.2-0.1,0.2-0.1c0.8,0,1.6-0.1,2.4-0.2c0.9-0.1,1.7-0.2,2.4-0.3
	c1.2-0.1,2.1-0.2,2.8-0.2l2.6-0.2c0,0,0,0,0,0.1c0.9-0.1,1.8-0.2,2.7-0.2c1,0,1.9-0.1,2.9-0.3c0,0-0.1,0-0.1,0s-0.1,0-0.1,0
	c-0.1,0-0.1,0-0.1-0.1c0,0,0.1-0.1,0.1-0.1c0,0,0.1-0.1,0.1-0.1v0.1l0.3,0.1c0.1,0,0.1,0,0.2,0.1c-0.1,0-0.2,0-0.2,0.1
	c0,0,0,0.1-0.1,0.1c-0.1,0-0.2,0-0.3,0c-0.7,0-1.3,0.1-1.9,0.3l2.1-0.2l2-0.2c-0.4,0-0.9,0-1.3,0c0.9-0.1,1.8-0.1,2.6-0.2
	c0.4,0,0.7,0,1.1-0.1l-0.3,0c0,0.1,0,0.1,0.1,0.1c0.1,0,0,0-0.1,0.1c0.2-0.1,0.3-0.2,0.5-0.2c0.2,0,0.4,0,0.5,0
	c0.4,0.1,0.8,0,1.2-0.1c-0.4,0-0.8-0.1-1.2,0l-0.2,0c0.3,0,0.7-0.1,1-0.1c1,0,1.9,0,2.8,0c-0.4,0-0.8,0.1-1.2,0.1c0.9,0,1.8,0,2.7,0
	c0,0,0,0,0,0c0,0,0.1,0.1,0.1,0.1c0.1,0,0.1,0,0.1-0.1c-0.1,0-0.1,0-0.1,0c0,0,0,0,0.1,0c1,0,1.9-0.1,2.8-0.2
	c-1.1,0-2.1,0.1-3.1,0.1c0,0,0,0-0.1,0c1.1,0,2.2-0.1,3.3-0.2c0.2,0,0.5,0,0.8,0c-0.3,0-0.6,0.1-0.9,0.1c0.2,0,0.3,0,0.3,0.1
	c0,0.1-0.2,0-0.2,0.1c0,0.1,0,0.1,0.2,0c0.2-0.1,0.2,0,0.1-0.1c0-0.1,0-0.1,0.1-0.1c0.6,0,1.2,0,1.9,0c0.6,0,1.2,0,1.9-0.2
	c-0.7,0-1.4,0-2.1,0c1.7-0.1,3.5-0.1,5.4,0c0.6-0.1,1.2-0.1,1.9-0.1h2.2c0.8,0,1.5,0,2.3,0c0.8,0,1.4,0,2-0.1
	c0.8,0.2,1.7,0.2,2.5,0.1c0.7-0.1,1.4,0,2.1,0.1c0,0-0.1,0-0.1,0c-0.1,0-0.1,0.1-0.1,0.1c0.1,0,0.2,0,0.3,0c0,0,0.1,0,0.1,0.1
	c0,0.1,0.1-0.1,0.3,0c0.1,0.1,0.2,0,0.3-0.1c0.1,0.1,0.1,0.2,0.2,0.2c0.1,0,0.2,0,0.3,0c0.2-0.1,0.5-0.1,0.7-0.1
	c0.2,0.1,0.4,0.1,0.6,0.1c0.2,0,0.4-0.1,0.6-0.2c0,0.1,0,0.1,0.1,0.1c0.1,0,0.1-0.1,0.3-0.1v0.1c0,0,0.1,0,0.1,0.1
	c0,0.1,0.2,0.1,0.2,0c-0.1-0.1,0-0.2,0.2-0.1c0,0,0,0.1,0.2,0.2c0-0.1,0-0.1,0-0.1s0,0,0-0.1c0,0,0.1,0,0.1,0v0c0.2,0,0.5,0,0.7,0
	l-0.1,0c0.2,0,0.4,0,0.6,0c0,0,0.1,0,0.1,0c0,0,0,0.1-0.1,0.1c-0.1,0-0.1,0.1,0,0.1c0.1,0,0.1-0.1,0.2-0.1c0.1,0,0.1,0,0.2-0.1
	c0,0.1,0,0.1-0.1,0.1c0,0,0,0,0.1,0.1h0.4c0.1-0.1,0.1-0.1,0.1-0.1c0,0,0-0.1,0.1-0.1v0.2c0.1,0,0.2,0,0.4,0c0.1,0,0.1,0,0-0.1h0.2
	c0,0,0,0,0,0.1c-0.1-0.1-0.1-0.1-0.1,0c0,0,0.1,0,0.1,0c0,0,0,0,0,0c0,0,0.1,0,0.1,0c0,0,0.1,0,0.1,0c0,0,0,0,0.1,0v0.1
	c0.2,0,0.4,0,0.7,0c0.2,0,0.5,0,0.7,0.1c0-0.1,0.1-0.1,0.1-0.1c0,0,0.1,0,0.1,0c0,0,0,0.1,0.2,0.1c0.3,0,0.4,0,0.5,0
	c0.1,0,0.1,0,0.1,0s0,0,0.1,0c0.3,0.1,0.7,0.2,1,0.2c0.3,0,0.5,0,0.8,0c0,0,0-0.1,0.2,0c0.1,0,0.1,0.1,0,0.1h0.1c0,0,0,0,0.2,0
	c0.1-0.1,0.2-0.1,0.4-0.1c0.1,0,0.3,0.1,0.4,0.1c-0.2,0-0.2,0-0.2,0.1c0.7,0.2,1.5,0.2,2.3,0.2c0.8,0,1.3,0.2,1.5,0.6
	c0.3,0,0.6,0,0.8-0.1c0.3-0.1,0.6-0.1,0.9,0c0.2-0.2,0.4-0.4,0.5-0.7c0.1-0.2,0.1-0.5,0.2-0.7L202.4,76.1z M183.3,76.2
	C183.3,76.2,183.3,76.2,183.3,76.2C183.3,76.2,183.3,76.2,183.3,76.2C183.3,76.2,183.3,76.2,183.3,76.2
	C183.2,76.1,183.2,76.1,183.3,76.2c-0.2-0.1-0.2-0.1-0.2-0.1c-0.1,0-0.1-0.1-0.2-0.1c-0.1,0-0.1,0-0.2,0c-0.1,0-0.1,0.1-0.1,0.2
	c0.2,0,0.3,0,0.5,0c0,0,0,0,0,0H183.3z M182.5,76c0,0-0.1,0-0.1,0.1c0,0-0.1,0.1-0.1,0.1c-0.1,0.1-0.3,0-0.3,0c0,0,0.1,0,0.2,0
	c-0.1-0.1-0.4,0-0.5,0c0,0,0,0-0.1,0c0.3,0,0.6,0,0.9,0c0,0,0,0,0,0C182.6,76.2,182.6,76.1,182.5,76z M182.7,76.3
	C182.7,76.3,182.7,76.3,182.7,76.3c0,0-0.1,0-0.1,0C182.6,76.3,182.6,76.3,182.7,76.3z M176.9,76.2c0,0.1,0,0.2-0.1,0.2
	c0.2,0,0-0.2-0.1-0.2c-0.9,0-1.8,0-2.6,0l0,0c0,0,0,0,0,0c-0.7,0-1.4,0-2.1,0c-1.3,0-2.5,0-3.6,0.1c0,0,0,0,0,0c0,0,0,0,0,0
	c-0.2,0-0.4,0-0.6,0.1c0-0.1-0.1-0.1-0.1,0c0,0,0,0-0.1,0c0,0,0,0,0.1,0c0.1,0.1,0.1,0.1,0.1,0c0.2,0,0.3,0,0.5,0c0.1,0,0.2,0,0.2,0
	c0.1,0,0.1,0,0.2,0c0.1,0,0.2,0,0.2,0c0,0,0,0,0,0c0.1,0.1,0.2,0.1,0.1,0c0,0,0,0,0,0c0.4,0,0.7,0,1.1,0c0-0.1,0.1-0.1,0.2-0.1
	c0.2,0,0.2,0.1,0.1,0.2c0,0-0.1,0-0.1,0c-0.1,0-0.1,0-0.2,0c0,0-0.1,0-0.2,0c-0.1,0-0.1,0-0.2,0c-0.1,0-0.2,0-0.2,0.1l0.9,0.1
	c0.3,0,0.5,0,0.8,0c0-0.1,0-0.1,0-0.2c0,0,0-0.1,0.1-0.1c0.1,0,0.3,0,0.2,0.1c-0.1,0.1,0,0.1,0.1,0.1c0.1,0,0.1,0.1,0.2,0.1
	c0.1-0.1,0.2-0.1,0.3-0.1c0.1,0,0.2,0,0.3-0.1c0.4,0.2,0.8,0.2,1.2,0.1c0.4,0,0.8-0.1,1.2-0.3c0,0,0,0-0.1,0.1c0,0,0,0.1,0,0.1
	c0,0,0,0.1,0.2,0c0.2-0.1,0-0.2,0.1-0.2c0.1,0,0.3,0,0.3,0.1s-0.1,0.1-0.2,0c-0.1-0.1-0.1,0-0.1,0.1c0,0,0.1,0,0.1,0
	c0,0,0.1,0,0.1,0c0,0,0.1,0,0.1,0c0.1,0,0.1,0,0.1,0c-0.1,0-0.1-0.1,0-0.1c0.1,0,0.2,0,0.2,0.1h0.1c0-0.1,0-0.1,0.1-0.2
	c0.1,0,0.1,0,0.2,0c0.1,0,0.1,0,0.2,0.1c-0.2,0-0.3,0-0.3,0.1c0,0,0.1,0.1,0.2,0.1c0.1,0,0.1,0,0.2,0c0.1,0,0.3,0,0.4,0v0
	c0.1,0,0.1,0,0.1,0c0,0,0,0,0.1,0c0.1,0,0.2-0.1,0.3,0c0.2,0.1,0.3,0.1,0.5,0.1c-0.1-0.1,0-0.1,0-0.1c0.1,0,0.1,0,0.2,0
	c0-0.1,0-0.1,0.1-0.1v0.1c0.1,0,0.2,0,0.2,0.1c0,0,0,0.1,0.2,0l0.3-0.1c0.2-0.1,0.3-0.1,0.5,0c0,0.1,0.1,0.1,0.2,0.1
	c0.1,0,0.1-0.1,0.1-0.2h-0.2c0-0.1,0.1-0.1,0.2-0.1c0,0,0.1,0,0.1,0.1c0,0,0,0.1,0,0.1c0,0.1,0.1,0.1,0.2,0c0,0,0,0,0,0
	c0.1,0,0.1,0.1,0.1,0c0,0,0,0,0,0c0.2,0,0.3,0,0.5,0c0.3,0,0.5,0,0.6-0.2c0.2,0.3,0.4,0.3,0.6,0.1c0.1,0,0.2,0,0.2,0h0.2
	c0,0,0,0,0-0.1c0,0,0,0,0,0c0,0,0,0,0,0c-0.3,0-0.7,0-1,0C179.3,76.1,178.1,76.1,176.9,76.2z M158.4,76.7c0,0.1,0,0.1,0.3,0.1
	C158.5,76.6,158.4,76.6,158.4,76.7z M162.1,76.5c0.2,0,0.3,0,0.5,0c0.1,0,0.2,0,0.3-0.1h-0.5C162.3,76.5,162.2,76.5,162.1,76.5z
	 M163.1,76.5c0.1,0,0.2,0,0.2,0S163.1,76.5,163.1,76.5z M164.7,76.5c-0.3,0-0.4,0-0.3,0.1c-0.1,0-0.2,0-0.3-0.1c0,0-0.1,0-0.1,0
	c0,0-0.1,0-0.1,0.1c0.1,0,0.2,0,0.4,0c0.1,0,0.2,0,0.3,0c0,0,0,0,0,0c0.2-0.1,0.3-0.1,0.5,0c0.2,0,0.4,0,0.4-0.1
	C165.1,76.5,164.9,76.5,164.7,76.5z M162,76.6c0.1,0.1,0.1,0,0.1,0C162.1,76.6,161.9,76.5,162,76.6z M158.8,76.7c0.2,0,0.2,0,0.2,0
	C159,76.7,158.8,76.7,158.8,76.7z M188.1,76.4v0.1h0.2c0,0,0-0.1,0.1,0v0L188.1,76.4C188.2,76.4,188.2,76.4,188.1,76.4z M161.8,76.5
	c-0.1,0-0.3,0-0.4,0.1C161.7,76.6,161.8,76.6,161.8,76.5z M159.3,76.6c-0.1,0-0.1,0,0,0.1c0,0,0,0,0.2,0c0.2,0,0.1,0,0-0.1
	C159.5,76.6,159.4,76.6,159.3,76.6z M168.9,76.4c0.2,0,0.2,0,0.2,0C169.2,76.4,168.9,76.3,168.9,76.4z M165.4,76.5
	c0.2,0,0.2,0,0.2,0C165.5,76.4,165.4,76.5,165.4,76.5z M175.4,76.5L175.4,76.5C175.5,76.5,175.4,76.4,175.4,76.5z M166.8,76.5
	c0.2,0,0.2,0,0.2,0S166.8,76.4,166.8,76.5z M166.3,76.4c-0.1,0-0.1,0-0.1,0c0.3,0.1,0.4,0.1,0.3,0C166.4,76.4,166.4,76.4,166.3,76.4
	z M165.9,76.5c0,0,0.1,0,0.1,0c0.1,0,0.1,0,0.1,0C165.9,76.3,165.8,76.3,165.9,76.5z M166.6,76.4C166.6,76.5,166.7,76.5,166.6,76.4
	C166.7,76.3,166.6,76.3,166.6,76.4z M174.9,73c0.1-0.1-0.1-0.1-0.1,0C174.7,73,174.8,73,174.9,73z"/>
<path class="st0" d="M232.5,43.9l-5.9-9.1l5.7-8.6c0.2-0.3,0-0.8-0.5-0.8h-4.1c-0.1,0-0.2,0-0.3,0.1c-0.1,0-0.1,0.1-0.2,0.2
	l-3.2,5.1l-3.2-5.1c-0.1-0.1-0.1-0.1-0.2-0.2c-0.1,0-0.2-0.1-0.2-0.1h-4.1c-0.1,0-0.2,0-0.3,0c-0.1,0-0.2,0.1-0.2,0.2
	c0,0.1-0.1,0.2-0.1,0.3c0,0.1,0,0.2,0.1,0.3l5.6,8.6l-5.9,9.1c-0.1,0.1-0.1,0.2-0.1,0.3c0,0.1,0,0.2,0.1,0.3c0,0.1,0.1,0.1,0.2,0.2
	c0.1,0,0.2,0.1,0.3,0.1h3.9c0.1,0,0.2,0,0.3-0.1c0.1,0,0.2-0.1,0.2-0.2l3.5-5.6l3.6,5.6c0.1,0.1,0.1,0.1,0.2,0.2
	c0.1,0,0.2,0.1,0.3,0.1h3.9c0.1,0,0.2,0,0.3,0c0.1,0,0.2-0.1,0.2-0.2c0.1-0.1,0.1-0.2,0.1-0.3C232.6,44.1,232.6,44,232.5,43.9z
	 M127.4,44.9h3.3c0.1,0,0.3-0.1,0.4-0.2c0.1-0.1,0.2-0.2,0.2-0.4v-8.7l10.8,9.2c0.1,0.1,0.2,0.2,0.3,0.2c0.1,0.1,0.3,0.1,0.4,0.1
	h0.3c0.1,0,0.1,0,0.2,0c0.1,0,0.1-0.1,0.2-0.1s0.1-0.1,0.1-0.2c0-0.1,0-0.1,0-0.2V26.1c0-0.1-0.1-0.3-0.2-0.4
	c-0.1-0.1-0.2-0.2-0.4-0.2h-3.4c-0.1,0-0.3,0.1-0.4,0.2c-0.1,0.1-0.2,0.2-0.2,0.4v9.7l-10.7-8.6c-0.2-0.2-0.4-0.4-0.7-0.4h-0.5
	c-0.1,0-0.3,0.1-0.4,0.1c-0.1,0.1-0.2,0.2-0.2,0.4v17c0,0.1,0.1,0.3,0.2,0.4C127.1,44.8,127.2,44.9,127.4,44.9z M159.4,25.6h-12.4
	c-0.1,0-0.3,0.1-0.4,0.2c-0.1,0.1-0.2,0.2-0.2,0.4v3c0,0.1,0.1,0.3,0.2,0.4c0.1,0.1,0.2,0.2,0.4,0.2h4v14.7c0,0.1,0.1,0.3,0.2,0.4
	c0.1,0.1,0.2,0.2,0.4,0.2h3.3c0.1,0,0.3-0.1,0.4-0.2c0.1-0.1,0.2-0.2,0.2-0.4V29.7h4c0.1,0,0.3-0.1,0.4-0.2c0.1-0.1,0.2-0.2,0.2-0.4
	v-3c0-0.1-0.1-0.3-0.2-0.4C159.7,25.7,159.6,25.6,159.4,25.6z M163.4,44.9h3.3c0.1,0,0.3-0.1,0.4-0.2c0.1-0.1,0.2-0.2,0.2-0.4v-7
	h2.5l3.7,7.3c0,0.1,0.1,0.1,0.2,0.2c0.1,0,0.2,0.1,0.3,0.1h3.1c0.1,0,0.2,0,0.3-0.1c0.1,0,0.2-0.1,0.2-0.2c0-0.1,0.1-0.2,0.1-0.3
	c0-0.1,0-0.2-0.1-0.3l-3.8-7c1.4-0.4,2.5-1.3,3.2-2.5c0.7-1.2,1-2.6,0.8-4c-0.2-1.4-1-2.7-2.1-3.6c-1.1-0.9-2.5-1.4-3.9-1.4h-8.3
	c-0.1,0-0.1,0-0.2,0c-0.1,0-0.1,0.1-0.2,0.1c0,0-0.1,0.1-0.1,0.2c0,0.1,0,0.1,0,0.2v18.3c0,0.1,0.1,0.2,0.2,0.3
	C163.2,44.8,163.3,44.9,163.4,44.9z M167.3,29.5h4.1c0.3,0,0.6,0,0.8,0.1c0.3,0.1,0.5,0.3,0.7,0.5c0.2,0.2,0.4,0.4,0.5,0.7
	c0.1,0.3,0.2,0.5,0.1,0.8c0,0.3,0,0.6-0.1,0.8c-0.1,0.3-0.3,0.5-0.5,0.7c-0.2,0.2-0.4,0.4-0.7,0.5c-0.3,0.1-0.5,0.2-0.8,0.2h-4.1
	V29.5z M193.8,44.7c0.1-0.1,0.2-0.2,0.2-0.4v-3c0-0.1,0-0.1,0-0.2c0-0.1-0.1-0.1-0.1-0.2c0,0-0.1-0.1-0.2-0.1c-0.1,0-0.1,0-0.2,0
	h-7.7v-2.9h6.4c0.1,0,0.3-0.1,0.4-0.2c0.1-0.1,0.2-0.2,0.2-0.4v-3c0-0.1-0.1-0.3-0.2-0.4c-0.1-0.1-0.2-0.2-0.4-0.2h-6.4v-3.4h7.7
	c0.1,0,0.3-0.1,0.4-0.2c0.1-0.1,0.2-0.2,0.2-0.4v-3c0-0.1,0-0.1,0-0.2c0-0.1-0.1-0.1-0.1-0.2c0,0-0.1-0.1-0.2-0.1
	c-0.1,0-0.1,0-0.2,0h-11.5c-0.1,0-0.1,0-0.2,0c-0.1,0-0.1,0.1-0.2,0.1c0,0-0.1,0.1-0.1,0.2c0,0.1,0,0.1,0,0.2v17.4
	c0,0.1,0.1,0.3,0.2,0.4c0.1,0.1,0.2,0.1,0.4,0.1h11.5C193.5,44.9,193.7,44.8,193.8,44.7z M199.6,43.1c0.7,0.7,1.6,1.2,2.6,1.6
	s2,0.5,3,0.4c1,0,2-0.1,3-0.4c1-0.3,1.8-0.9,2.6-1.6c0.7-0.7,1.3-1.5,1.8-2.4c0.4-0.9,0.6-1.9,0.7-2.9V26c0-0.1-0.1-0.3-0.2-0.4
	c-0.1-0.1-0.2-0.2-0.4-0.2h-3.4c-0.1,0-0.1,0-0.2,0c-0.1,0-0.1,0.1-0.2,0.1c0,0-0.1,0.1-0.1,0.2c0,0.1,0,0.1,0,0.2v11.6
	c0,0.4-0.1,0.9-0.3,1.3c-0.2,0.4-0.4,0.8-0.8,1.1c-0.3,0.3-0.7,0.5-1.2,0.7c-0.4,0.1-0.9,0.2-1.3,0.1c-0.4,0-0.9,0-1.3-0.1
	c-0.4-0.1-0.8-0.4-1.1-0.7c-0.3-0.3-0.6-0.7-0.8-1.1c-0.2-0.4-0.3-0.8-0.2-1.3V26.9c0-0.1-0.1-0.3-0.2-0.4c-0.1-0.1-0.2-0.2-0.4-0.2
	h-3.4c-0.1,0-0.3,0.1-0.4,0.2c-0.1,0.1-0.2,0.2-0.2,0.4v10.9c0,1,0.2,2,0.7,2.9C198.3,41.6,198.8,42.5,199.6,43.1z M106.8,41.7
	c1.8,1.7,4.3,2.6,6.8,2.6s4.9-0.9,6.8-2.6c1.8-1.7,3-4,3.2-6.5v-0.6c0-1.3-0.3-2.6-0.8-3.8c-0.5-1.2-1.2-2.3-2.2-3.2
	c-0.9-0.9-2-1.6-3.2-2.1c-1.2-0.5-2.5-0.7-3.8-0.7c-1.3,0-2.6,0.2-3.8,0.7c-1.2,0.5-2.3,1.2-3.2,2.1c-0.9,0.9-1.7,2-2.2,3.2
	c-0.5,1.2-0.8,2.5-0.8,3.8v0.6C103.8,37.7,104.9,40,106.8,41.7z M108,34.6c0.1-1.4,0.7-2.8,1.7-3.7s2.4-1.5,3.8-1.5
	c1.4,0,2.8,0.5,3.8,1.5c1,1,1.7,2.3,1.7,3.7v0.6c-0.1,1.4-0.7,2.8-1.7,3.7c-1,1-2.4,1.5-3.8,1.5c-1.4,0-2.8-0.5-3.8-1.5
	c-1-1-1.7-2.3-1.7-3.7V34.6z M127,49.9c-2-0.8-4.1-1-6.2-0.6c-2.1,0.4-4,1.4-5.5,2.9s-2.5,3.4-2.9,5.4c-0.4,2.1-0.2,4.2,0.6,6.1
	c0.8,1.9,2.2,3.6,3.9,4.8c1.8,1.2,3.8,1.8,6,1.8c1.4,0,2.8-0.3,4.1-0.8c1.3-0.5,2.5-1.3,3.5-2.3c1-1,1.8-2.2,2.3-3.4
	c0.5-1.3,0.8-2.7,0.8-4.1c0-2.1-0.6-4.2-1.8-5.9C130.7,52.1,129,50.7,127,49.9z M128.4,62c-0.5,1.1-1.2,2-2.2,2.6s-2.1,1-3.3,1
	c-1.6,0-3.1-0.6-4.2-1.7c-1.1-1.1-1.7-2.6-1.8-4.1c0-1.2,0.3-2.3,1-3.3c0.7-1,1.6-1.7,2.7-2.2c1.1-0.4,2.3-0.6,3.4-0.3
	c1.2,0.2,2.2,0.8,3.1,1.6c0.8,0.8,1.4,1.9,1.6,3C129,59.7,128.9,60.9,128.4,62z M156.1,49.2c-0.1-0.1-0.2-0.1-0.4-0.1h-0.5
	c-0.1,0-0.2,0-0.3,0.1s-0.2,0.1-0.2,0.2l-7,13.2l-7.1-13.2c-0.1-0.1-0.1-0.2-0.2-0.2s-0.2-0.1-0.3-0.1h-0.6c-0.1,0-0.3,0.1-0.4,0.1
	c-0.1,0.1-0.2,0.2-0.2,0.3l-3.5,18.6c0,0.1,0,0.2,0,0.2c0,0.1,0.1,0.2,0.1,0.2c0.1,0.1,0.1,0.1,0.2,0.1c0.1,0,0.2,0.1,0.2,0.1h3.6
	c0.1,0,0.3,0,0.4-0.1c0.1-0.1,0.2-0.2,0.2-0.4l1.4-7.5l5.2,8c0.1,0.1,0.1,0.2,0.2,0.2c0.1,0.1,0.2,0.1,0.3,0.1h0.6
	c0.1,0,0.2,0,0.3-0.1c0.1-0.1,0.2-0.1,0.2-0.2l5.2-8h0.1l1.4,7c0,0.1,0.1,0.3,0.2,0.3c0.1,0.1,0.2,0.1,0.4,0.1h3.6
	c0.1,0,0.2,0,0.3,0c0.1,0,0.1-0.1,0.2-0.1s0.1-0.1,0.1-0.2c0-0.1,0-0.2,0-0.3l-3.5-18C156.3,49.5,156.2,49.3,156.1,49.2z
	 M177.2,49.3h-13.6c-0.2,0-0.3,0.1-0.4,0.2c-0.1,0.1-0.2,0.3-0.2,0.4v17.9c0,0.2,0.1,0.3,0.2,0.4c0.1,0.1,0.3,0.2,0.4,0.2h13.6
	c0.2,0,0.3-0.1,0.4-0.2s0.2-0.3,0.2-0.4v-3.5c0-0.2-0.1-0.3-0.2-0.4c-0.1-0.1-0.3-0.2-0.4-0.2h-9.1v-2.6h7.5c0.2,0,0.3-0.1,0.4-0.2
	c0.1-0.1,0.2-0.3,0.2-0.4V57c0-0.2-0.1-0.3-0.2-0.4c-0.1-0.1-0.3-0.2-0.4-0.2h-7.5v-2.2l9.1-0.2c0.2,0,0.3-0.1,0.4-0.2
	c0.1-0.1,0.2-0.3,0.2-0.4v-3.5c0-0.2-0.1-0.3-0.2-0.4C177.5,49.4,177.4,49.3,177.2,49.3z M190.6,49.2h-8c-0.2,0-0.3,0.1-0.4,0.2
	c-0.1,0.1-0.2,0.3-0.2,0.4v17.3c0,0.2,0.1,0.3,0.2,0.4c0.1,0.1,0.3,0.2,0.4,0.2h8c6.3,0,10.7-2.7,10.7-8.9
	C201.2,52.7,196.9,49.2,190.6,49.2z M190.5,62.9h-3.4V54h3.4c3.7,0,5.2,1.9,5.2,4.9C195.8,61.8,194.2,62.9,190.5,62.9z M221.1,49.3
	c-0.1-0.1-0.2-0.1-0.3-0.1h-4.3c-0.1,0-0.2,0-0.3,0.1c-0.1,0.1-0.2,0.1-0.2,0.2l-4.6,6.7l-4.6-6.7c-0.1-0.1-0.1-0.2-0.2-0.2
	c-0.1-0.1-0.2-0.1-0.3-0.1h-4.3c-0.1,0-0.2,0-0.3,0.1c-0.1,0.1-0.2,0.1-0.2,0.2c-0.1,0.1-0.1,0.2-0.1,0.3c0,0.1,0,0.2,0.1,0.3
	l7.2,10.8v10.3c0,0.2,0.1,0.3,0.2,0.4c0.1,0.1,0.3,0.2,0.4,0.2h3.9c0.2,0,0.3-0.1,0.4-0.2c0.1-0.1,0.2-0.3,0.2-0.4V61l7.3-10.8
	c0.1-0.1,0.1-0.2,0.1-0.3c0-0.1,0-0.2-0.1-0.3C221.3,49.4,221.2,49.4,221.1,49.3z M94.3,36.2l1.6,8.1c0,0.2,0.1,0.3,0.2,0.4
	s0.3,0.2,0.4,0.2h4.3c0.1,0,0.2,0,0.3,0s0.2-0.1,0.2-0.2s0.1-0.2,0.1-0.3c0-0.1,0-0.2,0-0.3l-4-20.9c0-0.2-0.1-0.3-0.2-0.4
	s-0.3-0.2-0.4-0.2h-0.6c-0.1,0-0.2,0-0.3,0.1c-0.1,0.1-0.2,0.1-0.3,0.2l-8.3,15.3h-0.1L78.9,23c-0.1-0.1-0.2-0.2-0.3-0.2
	c-0.1-0.1-0.2-0.1-0.3-0.1h-0.6c-0.2,0-0.3,0.1-0.4,0.2c-0.1,0.1-0.2,0.2-0.2,0.4l-4,21.6c0,0.1,0,0.2,0,0.3c0,0.1,0.1,0.2,0.1,0.3
	c0.1,0.1,0.1,0.1,0.2,0.2c0.1,0,0.2,0.1,0.3,0.1H78c0.2,0,0.3-0.1,0.4-0.2s0.2-0.2,0.2-0.4l1.6-8.7h0.1l6,9.3
	c0.1,0.1,0.2,0.2,0.3,0.3c0.1,0.1,0.2,0.1,0.4,0.1h0.6c0.1,0,0.2-0.1,0.4-0.1c0.1-0.1,0.2-0.2,0.3-0.3L94.3,36.2L94.3,36.2z
	 M111.2,69.1l-2.7-2.8c-0.1-0.1-0.1-0.1-0.2-0.1c-0.1,0-0.1,0-0.2,0c-0.1,0-0.3,0-0.4,0.1c-1,0.9-2.2,1.4-3.6,1.6
	c-1.3,0.2-2.7,0-3.9-0.6c-1.2-0.6-2.2-1.4-2.9-2.6s-1.1-2.4-1.1-3.7c0-0.9,0.1-1.8,0.4-2.6c0.3-0.8,0.8-1.6,1.4-2.3
	c0.6-0.7,1.4-1.2,2.2-1.5c0.8-0.4,1.7-0.6,2.6-0.6c1.7,0,3.4,0.6,4.7,1.7c0.1,0.1,0.2,0.2,0.4,0.2c0.1,0,0.1,0,0.2,0
	c0.1,0,0.1-0.1,0.2-0.1l2.7-2.7c0.1-0.1,0.1-0.1,0.1-0.2c0-0.1,0-0.2,0-0.2c0-0.1,0-0.2-0.1-0.2s-0.1-0.1-0.2-0.2
	c-1.1-1-2.4-1.8-3.8-2.4c-1.4-0.5-2.9-0.8-4.4-0.7c-1.6,0-3.2,0.3-4.7,0.9c-1.5,0.6-2.9,1.5-4,2.6c-1.1,1.1-2.1,2.5-2.7,3.9
	c-0.6,1.5-0.9,3.1-0.9,4.7c0,1.6,0.3,3.2,0.9,4.6c0.6,1.5,1.5,2.8,2.6,3.9c2.3,2.3,5.4,3.5,8.7,3.5c3.1,0,6-1.1,8.2-3.3
	c0.1,0,0.2-0.1,0.2-0.2c0.1-0.1,0.1-0.2,0.1-0.2c0-0.1,0-0.1,0-0.2C111.3,69.2,111.3,69.1,111.2,69.1z"/>
<g>
	<path class="st0" d="M7.1,46.4c0.1,0.7,0.1,1.3,0,2l-0.9,8.3c-0.1,1.4,0.1,2.8,0.7,4.1c0.6,1.3,1.6,2.4,2.8,3.1l7.2,4.4
		c0.6,0.3,1.1,0.7,1.6,1.2l6,5.9c1.4,1.4,3.4,2.2,5.4,2.2c0.4,0,0.9,0,1.3-0.1c0.4-0.1,0.8-0.2,1.2-0.3l8-2.8c0.5-0.2,1-0.3,1.6-0.3
		l0.5-0.1l3.7-0.4c0.1,0,0.2,0.1,0.3,0.1c0.5,0.4,0.9,0.9,1.2,1.5c0.3,0.5,0.7,0.9,1,1.5l1.4,2.3c0.3,0.5,0.7,1,1.2,1.3
		c0.1,0,0.3,0.1,0.4,0c0,0,0.1-0.1,0.1-0.1c0,0,0-0.1,0-0.1c0-0.2,0-0.5,0-0.7c-0.1-0.9-0.3-1.8-0.4-2.7c-0.1-0.7-0.1-1.3-0.2-2
		c-0.1-0.5-0.2-1.1-0.1-1.6h0.1h0.4c1.4-0.2,2.6-0.8,3.7-1.7c1-0.9,1.8-2,2.3-3.3l2.8-7.9c0.2-0.6,0.4-1.3,0.8-1.9l4.4-7.1
		c0.8-1.2,1.2-2.6,1.2-4c0-1.4-0.4-2.8-1.2-4L60.7,36c-0.4-0.6-0.7-1.2-0.9-1.8L57,26.3c-0.5-1.3-1.4-2.5-2.5-3.4
		c-1.1-0.9-2.5-1.4-3.9-1.6l-8.4-0.9c-0.7-0.1-1.3-0.2-2-0.4l-8-2.7c-1.4-0.5-2.8-0.5-4.2-0.2c-1.4,0.3-2.7,1-3.7,2.1l-6,5.9
		c-0.5,0.5-1,0.9-1.6,1.3l-7.1,4.5c-1.2,0.8-2.2,1.9-2.8,3.1c-0.6,1.3-0.9,2.7-0.7,4.1L7.1,46.4z M11.1,33l7.1-4.5
		c0.7-0.5,1.4-1,2-1.6l6-6c0.7-0.7,1.7-1.2,2.7-1.4c0.3,0,0.6-0.1,0.9-0.1c0.6,0,1.1,0.1,1.6,0.3l8,2.7c0.8,0.3,1.7,0.5,2.5,0.6
		l8.4,0.9c0.9,0.1,1.8,0.5,2.6,1c0.7,0.6,1.3,1.3,1.6,2.2l2.9,7.9c0.3,0.8,0.7,1.6,1.2,2.3l4.5,7c0.5,0.8,0.8,1.7,0.8,2.6
		c0,0.9-0.3,1.9-0.8,2.6l-4.4,7.2c-0.4,0.7-0.8,1.5-1.1,2.3l-2.8,7.9c-0.2,0.4-0.4,0.9-0.6,1.2c-0.5,0.3-1,0.6-1.4,1
		c-0.8,0.3-1.5,0.6-2.3,0.7L48,70.7l-5.9,0.7l-0.6,0.1c-0.7,0.1-1.3,0.3-1.9,0.5l-8,2.8c-0.3,0.1-0.5,0.2-0.8,0.2
		c-0.8,0.1-1.6,0.1-2.4-0.2c-0.8-0.2-1.5-0.7-2-1.2l-6-5.8c-0.6-0.6-1.3-1.1-2-1.6l-7.2-4.4c-0.8-0.5-1.4-1.2-1.9-2
		c-0.4-0.8-0.6-1.8-0.5-2.7l0.9-8.3c0.1-0.8,0.1-1.7,0-2.6l-1-8.3c-0.1-0.9,0.1-1.9,0.5-2.8C9.6,34.2,10.2,33.5,11.1,33L11.1,33z"/>
	<path class="st0" d="M30.4,52.8c0.1,0.1,0.2,0.1,0.3,0.1c0.1,0,0.2,0,0.3-0.1c0.1-0.1,0.3-0.2,0.3-0.3c0.4-0.5,0.6-1,0.6-1.6
		c0-0.1,0-0.2,0-0.2c0-0.1,0-0.1,0-0.2v-0.4c0,0,0-0.1,0-0.2c0-0.1,0-0.2,0-0.2c0-0.4-0.2-0.8-0.4-1.2c-0.1-0.2-0.2-0.4-0.4-0.5
		c-0.2-0.1-0.3-0.2-0.6-0.2c-0.2,0-0.4,0.1-0.6,0.2c-0.2,0.1-0.3,0.3-0.4,0.5c-0.3,0.6-0.4,1.2-0.4,1.8c0,0.6,0.1,1.2,0.4,1.8
		C29.9,52.4,30.1,52.6,30.4,52.8z"/>
	<path class="st0" d="M43.3,53.3c-0.4-0.1-0.8,0-1.1,0.2c-0.3,0.2-0.6,0.6-0.6,0.9v0.2l-0.1,0.5c0,0.2-0.1,0.4-0.2,0.6
		c-0.1,0.3-0.2,0.5-0.3,0.7c-0.7,1.3-1.9,2.3-3.3,2.8c-1.5,0.6-3.1,0.6-4.7,0.2c-0.5-0.1-1.1-0.3-1.5-0.6l-0.6-0.3
		c-0.2-0.1-0.4-0.1-0.6-0.1c-0.2,0.1-0.4,0.2-0.5,0.3c-0.1,0.2-0.1,0.4-0.1,0.6c0,0.2,0.2,0.4,0.3,0.5l0.6,0.4
		c0.6,0.4,1.2,0.6,1.8,0.9c1.9,0.7,3.9,0.7,5.9,0.2c0.5-0.1,1.1-0.3,1.6-0.6c0.5-0.2,1-0.5,1.4-0.8c0.8-0.6,1.5-1.4,2-2.2
		c0.2-0.3,0.4-0.7,0.5-1.1c0.1-0.3,0.2-0.6,0.3-0.8l0.2-0.8c0,0,0-0.1,0-0.1c0.1-0.4,0-0.7-0.2-1.1C43.9,53.6,43.6,53.4,43.3,53.3
		L43.3,53.3z"/>
	<path class="st0" d="M37.8,51.5c0.1-0.2,0.3-0.3,0.5-0.5c0.2-0.1,0.4-0.2,0.7-0.2c0.2,0,0.5,0.1,0.7,0.2c0.2,0.1,0.4,0.3,0.5,0.5
		c0.1,0.1,0.2,0.1,0.3,0.2c0.1,0,0.2,0.1,0.3,0.1c0.1,0,0.2,0,0.3-0.1c0.1,0,0.2-0.1,0.3-0.2c0.1-0.1,0.1-0.2,0.2-0.3
		c0-0.1,0.1-0.2,0.1-0.3c0-0.1,0-0.2-0.1-0.3c0-0.1-0.1-0.2-0.2-0.3c-0.3-0.3-0.7-0.6-1.1-0.8c-0.4-0.2-0.8-0.3-1.3-0.3
		c-0.4,0-0.9,0.1-1.3,0.3c-0.4,0.2-0.8,0.5-1.1,0.8c-0.1,0.1-0.1,0.2-0.2,0.3c0,0.1-0.1,0.2-0.1,0.3c0,0.1,0,0.2,0.1,0.3
		c0,0.1,0.1,0.2,0.2,0.3c0.1,0.1,0.2,0.1,0.3,0.2c0.1,0,0.2,0.1,0.3,0.1c0.1,0,0.2,0,0.3-0.1C37.7,51.6,37.8,51.6,37.8,51.5z"/>
	<path class="st0" d="M18.1,57.2c0.2,0.1,0.5,0.1,0.7,0c0.2-0.1,0.4-0.3,0.5-0.5l8.3-18.9l5.5,5.5l0.1,0.1c0.1,0.1,0.3,0.2,0.4,0.2
		c0.1,0,0.3,0.1,0.5,0c0.2,0,0.3-0.1,0.4-0.2c0.1-0.1,0.2-0.2,0.3-0.3l7.6-10.5c0.4,1.3,0.8,2.5,1.2,3.8c0.6,1.8,1.3,3.7,2,5.5
		c0.7,1.8,1.4,3.6,2.3,5.4c0.8,1.8,1.9,3.5,3.2,5c0.1,0.1,0.3,0.2,0.4,0.3c0.2,0.1,0.3,0.1,0.5,0.1c0.3,0,0.5-0.2,0.7-0.4
		c0.2-0.2,0.3-0.5,0.3-0.8c-0.2-2-0.7-3.9-1.4-5.7c-0.7-1.8-1.6-3.6-2.3-5.3c-0.8-1.8-1.7-3.5-2.6-5.2c-0.9-1.7-1.9-3.4-2.9-5.1
		L43.7,30c-0.1-0.1-0.2-0.2-0.3-0.3c-0.2-0.2-0.5-0.2-0.7-0.2c-0.3,0-0.5,0.2-0.7,0.4l-8.1,10.9l-5.6-7c-0.2-0.2-0.4-0.4-0.7-0.5
		c-0.2-0.1-0.4-0.1-0.6-0.1c-0.2,0-0.4,0.1-0.6,0.1c-0.2,0.1-0.4,0.2-0.5,0.4c-0.1,0.2-0.3,0.3-0.3,0.5l0,0L17.6,56
		c-0.1,0.2-0.1,0.5,0,0.7C17.7,56.9,17.9,57.1,18.1,57.2L18.1,57.2z"/>
</g>
</svg>
