<svg id="Calque_1" data-name="Calque 1" xmlns="http://www.w3.org/2000/svg" viewBox="0 0 240 100"><defs><style>.taiko-logo{fill:#333;}</style></defs><path class="taiko-logo" d="M89.32,25.94H70c-.39,0-.43,0-.43.43,0,1.32,0,2.63,0,3.95,0,.53,0,.55.56.56l14.14,0h.48v3.92c0,5.48,0,11,0,16.45a12.81,12.81,0,0,1-.66,4.43,7.27,7.27,0,0,1-4,4.39,11.82,11.82,0,0,1-7.69.56A7.35,7.35,0,0,1,67.54,57a11.64,11.64,0,0,1-1.38-5.81c0-.3-.11-.4-.4-.4-1.45,0-2.89.06-4.34.07-.31,0-.44.12-.42.42.07,1.09.07,2.19.21,3.27A12.45,12.45,0,0,0,71.28,65.63a17.63,17.63,0,0,0,8.51,0,12.76,12.76,0,0,0,8.54-6.38,11.09,11.09,0,0,0,1.37-4.56c.08-1.2.1-2.41.1-3.62q0-12.3,0-24.6C89.75,26,89.72,25.94,89.32,25.94ZM179,40.52a14.81,14.81,0,0,0-5.71-11.84A16.38,16.38,0,0,0,163,25c-4.16-.06-8.32,0-12.49,0L150,25V52.25l.12,0c1.49,0,3,0,4.48,0,.26,0,.33-.11.33-.35,0-.88,0-1.75,0-2.63l0-17.2c0-.56,0-1.12,0-1.68,0-.25.07-.34.33-.34,2.52,0,5-.05,7.56-.05a11,11,0,0,1,1.9.16,11.33,11.33,0,0,1,6.05,3A9.41,9.41,0,0,1,174,40.27c0,3.67,0,7.34,0,11a9.12,9.12,0,0,1-.2,2,8.88,8.88,0,0,1-3.56,5.29,12.2,12.2,0,0,1-7.42,2.41h-8.1V65.6H155l7.49,0a19.86,19.86,0,0,0,7.9-1.53,14.81,14.81,0,0,0,5.39-3.84A12.4,12.4,0,0,0,179,52C179,48.15,179,44.34,179,40.52ZM147,58.68,142.48,49l-3.64-7.77c-1.15-2.46-2.29-4.92-3.44-7.37s-2.4-5.1-3.61-7.65a1.67,1.67,0,0,0-.29-.31,2.07,2.07,0,0,0-.28.32c-1.17,2.31-2.33,4.63-3.5,6.95s-2.2,4.38-3.29,6.57l-3.78,7.53c-.13.25-.09.38.15.51l3.26,1.81c.42.23.51.2.73-.21l.16-.29c1-1.85,2-3.7,2.94-5.55l3.2-6c.09-.18.2-.36.31-.54h.11c2.36,4.85,4.54,9.77,6.86,14.71h-7.68c-.52,0-.53,0-.52.51l.06,3.5c0,.44,0,.46.46.47l4,0h5.61c.16,0,.3,0,.4.19.48,1.09,1,2.17,1.49,3.27.86,1.9,1.74,3.79,2.55,5.71a1,1,0,0,0,1.15.72c1.35,0,2.7,0,4.05,0,.42,0,.49-.12.33-.47Q148.63,62.17,147,58.68Zm-28-3.47q-1.86-4-3.7-7.92-2.14-4.62-4.3-9.23l-3.69-7.89c-.64-1.35-1.28-2.69-1.93-4a.47.47,0,0,0-.27-.23c-.07,0-.2.12-.24.21-1.22,2.41-2.43,4.83-3.64,7.24-.73,1.47-1.48,2.93-2.21,4.4q-1.44,2.87-2.86,5.74c-.64,1.27-1.27,2.55-1.92,3.82-.1.2-.07.32.12.42l3.41,1.88c.33.19.42.15.6-.2l1.69-3.14,4.8-9.05c.05-.08.12-.16.18-.24h.12c2.27,4.88,4.53,9.77,6.83,14.72H104.2c-.3,0-.4.09-.39.4,0,1.19,0,2.37.06,3.56,0,.51,0,.53.53.53l9.51,0a.4.4,0,0,1,.44.24c.58,1.29,1.18,2.57,1.76,3.86.83,1.84,1.65,3.69,2.48,5.52a.5.5,0,0,0,.34.24c1.55,0,3.11,0,4.67,0,.38,0,.45-.14.28-.5Z"/></svg>