<svg id="Calque_1" data-name="Calque 1" xmlns="http://www.w3.org/2000/svg" viewBox="0 0 240 100"><defs><style>.taiko-logo{fill:#333;}</style></defs><path class="taiko-logo" d="M20.38,43.47s.48-.24.48-.56a.85.85,0,0,0-.24-.71c-5.48-5.72-9.92-6.35-12.22-6.43C3.08,35.53,1.18,38.15,1,39H1c-.16.8.56,3.73,5.55,5.56C8.88,45.29,13.16,46.64,20.38,43.47ZM54,73.46s-.24-.16-.4-.08h0a.35.35,0,0,0-.24.32c-1.11,4.13-.31,6.27.32,7.38,1.43,2.54,3.41,2.7,3.81,2.54h0c.4-.16,1.75-1.59,1.19-4.44C58.31,78,57.52,75.84,54,73.46Zm-10.48.64h0c-.23-.08-.47.23-.47.23-3.26,3.89-3.49,6.51-3.41,8,.23,3.41,2.22,4.6,2.77,4.68h0c.56.08,2.7-.79,3.49-4.13.4-1.5.56-4.12-2-8.57A.55.55,0,0,0,43.47,74.1Zm18-62.61h0c-.64-.24-3.26,0-5.4,3.73-1,1.66-2.38,4.92-.79,11.11,0,0,.08.39.39.47h0a.66.66,0,0,0,.64-.08c5.32-3.57,6.35-6.9,6.74-8.81C64,13.55,62.12,11.73,61.49,11.49ZM24.59,63.94A.75.75,0,0,0,24,63.7c-6.66.24-9.2,2.7-10.55,4-3.1,3.17-2.86,5.79-2.46,6.35h0c.39.55,2.7,1.74,6.66-.32,1.75-1,4.92-2.94,7-9.21a.63.63,0,0,0-.08-.63Zm-4-9.44a1.15,1.15,0,0,0,.16-.72c-.08-.32-.48-.47-.48-.47-7-2.38-10.39-.8-12.38.08-4.52,2.14-5.39,5-5.15,5.71h0c.15.71,2.38,2.78,7.3,2.06C12.21,60.92,16.1,60.21,20.62,54.5ZM32.84,70.05h0c-.24-.16-.56.08-.56.08-4.84,3-6.11,5.79-6.5,7.46-1,3.73.79,5.79,1.35,6h0c.55.24,3.17.08,5.23-3.18.88-1.42,2.07-4.28.88-9.91C33.24,70.53,33.16,70.13,32.84,70.05Zm-7.3-37.93C23.48,24.5,20.06,22.2,18,21c-4.6-2.78-7.62-1.75-8.17-1.11h0c-.56.63-1.43,3.57,2.14,7.62,1.59,1.74,4.76,5,12.7,5.63a1,1,0,0,0,.71-.32h0A.93.93,0,0,0,25.54,32.12Zm38.25.47Zm-43,21.19Zm24.44-29h0a.79.79,0,0,0,.55-.32c3.66-5.63,3.73-9.6,3.34-11.58C48.31,8.07,45.7,7,45,7h0c-.71,0-3.25,1.35-4,6-.31,2.07-.47,5.88,3.57,11.59C44.58,24.5,44.82,24.82,45.22,24.82Zm19,7.93c5.4-.39,7.7-2.14,8.81-3.33,2.54-2.78,1.91-5.16,1.59-5.55h0c-.32-.48-2.54-1.35-5.71.47-1.43.8-3.73,2.46-5.24,7.7a.76.76,0,0,0,.08.55A.77.77,0,0,0,64.26,32.75ZM20.86,42.83ZM68.23,71.08c-.63-.87-2.06-2.3-5.47-2.86,0,0-.24,0-.32.08s-.08.32-.08.32c.32,3.41,1.67,5,2.54,5.64,1.9,1.5,3.57.95,3.81.63h0C69,74.73,69.58,73.07,68.23,71.08ZM33.71,26.41a.87.87,0,0,0,.72.07h0c.31-.07.47-.55.47-.55,1.43-7.14-.16-10.95-1.27-12.78C30.94,8.87,27.76,8.63,27.05,9h0c-.8.16-2.3,2.7-1.51,7.46C25.86,18.23,27.84,23.07,33.71,26.41ZM62.44,68.3Zm46.18-11.74a12.85,12.85,0,0,1-6,1.43c-4.6,0-4.28-3.33-4.28-3.33v-13H91.16V56c.48,5.24,6.83,5.72,6.83,5.72a18.25,18.25,0,0,0,8.17-1,10.68,10.68,0,0,0,2.78-1.43c.4,2.06,3.33,2.14,3.33,2.14h3.42V41.64h-7V56.56Zm44.52-15.32c-6.19,0-9.6,2.86-9.6,2.86-2.14-3.25-7.62-2.93-7.62-2.93-5.79.07-8.41,2.61-8.41,2.61V41.56h-6.75V58.7a3.1,3.1,0,0,0,2.7,2.78h4.13v-15A12.07,12.07,0,0,1,133.06,45c4.45-.15,4.53,2.86,4.53,2.86v11c.08,2.38,2.93,2.62,2.93,2.62h4V46.48c2.22-1.59,6.11-1.51,6.11-1.51,3.73,0,4,2.94,4,2.94V59c.16,2,2.46,2.38,2.46,2.38h4.36V47C160.68,40.69,153.14,41.24,153.14,41.24ZM58.39,59.34V47.67H43.79v3.26H47a4.07,4.07,0,0,1,2.85.87,3.41,3.41,0,0,1,1,2.3v4.13a19.61,19.61,0,0,1-5.87.08c-5.16-.56-7.38-2.39-7.38-2.39a9.44,9.44,0,0,1-3.49-8.8,9.61,9.61,0,0,1,4-7c2.06-1.66,6-1.9,6-1.9,5.4-.64,13,1.59,13,1.59v-3.1l-3.73-1.11a34,34,0,0,0-12.22-1c-7.38.63-10.71,3.89-10.71,3.89-5.71,4.76-4.13,12.14-4.13,12.14,1.51,7.77,9.21,9.84,9.21,9.84C40.7,62.35,48.23,62,48.23,62a38.33,38.33,0,0,0,8.89-1.12A1.46,1.46,0,0,0,58.39,59.34ZM179,41.17c-15.32,0-14.21,10.71-14.21,10.71.72,10.87,14,10.08,14,10.08C194,62,193,51.24,193,51.24,192.58,43.31,185.2,41.17,179,41.17Zm0,17.61s-6.19.64-6.67-6.9c0,0-.39-7.54,6.35-7.7,1.67,0,6.19.32,6.67,6.9C185.44,51.08,185.83,58.62,179,58.78Zm55.23-.71c-1.75-.72-1.59-3.1-1.59-3.1V44.66h5.87v-3.1h-5.87v-4h-7.14v4h-3.09v3.1h3.09V56.08c.24,3.81,2.94,5.16,6.9,5.64a15.35,15.35,0,0,0,6.59-.48V58.31A7.65,7.65,0,0,1,234.24,58.07ZM81.17,41.24A32.91,32.91,0,0,0,71.49,41a29.5,29.5,0,0,0-6.59,1.42v3.1a27.41,27.41,0,0,1,5.16-1.35,20.62,20.62,0,0,1,6.27-.08s3.09.24,3,2.78V48.7s-4.13,0-5.87.08-6.43.32-9,2.54a5.64,5.64,0,0,0-2.14,4.37s-.4,3.89,5.24,5.63A18.06,18.06,0,0,0,76,61a14.2,14.2,0,0,0,3.33-1.27s.56,1.83,3.89,2H86.4V46.64S87,42.67,81.17,41.24Zm-1.83,15.4a13.92,13.92,0,0,1-7.06,1.51c-.72,0-3.49-.4-3.81-2.54a3.08,3.08,0,0,1,1.82-3.49c1.75-.8,4.92-.8,7.31-.8h1.74ZM219.4,44.42c-2.54-3.81-8.57-3.18-8.57-3.18a12.73,12.73,0,0,0-7.62,2.54V41.56h-6.74V58.38c0,2.78,3.09,3,3.09,3h3.73v-15A11.62,11.62,0,0,1,209.8,45c3.89.4,3.49,3.5,3.49,3.5V58.62c.16,2.46,2.86,2.7,2.86,2.7h4V47A5.82,5.82,0,0,0,219.4,44.42Z"/></svg>