<svg id="Calque_1" data-name="Calque 1" xmlns="http://www.w3.org/2000/svg" viewBox="0 0 240 100"><defs><style>.taiko-logo{fill:#333;}</style></defs><path class="taiko-logo" d="M135.52,70.06h67.33v-.47H37.48c-.13,0-.25,0-.37,0V70c.16,0,.32,0,.48,0Z"/><path class="taiko-logo" d="M99.62,72.3H98.56v5.87h2.57v-.51H99.62Zm15.7,2.87h0c-.11-1-.21-1.92-.32-2.88h-1.08c.31,2,.61,3.93.92,5.89h1c.3-2,.61-3.92.91-5.89h-1.08ZM82.51,72.81h1v5.36h1.09V72.81h1V72.3h-3Zm9.47,0h1.13v-.52h-2.2v5.88H93.1v-.53H92V75.33h1.13v-.54H92Zm15.52,0h1.13v-.52h-2.2v5.88h2.19v-.55h-1.13V75.33h1.14v-.55H107.5Zm45.9-.51v2.47c-.27-.76-.5-1.51-.75-2.26,0-.09-.12-.21-.2-.22a4.68,4.68,0,0,0-.65,0v5.89h1V75.73h.07c.25.82.51,1.63.77,2.44h.79V72.3ZM137,78.17h1V72.29h-1Zm9.31-4.82a1.06,1.06,0,0,0-1-1.12c-1-.13-1.71.15-1.73,1.2,0,1.22,0,2.44,0,3.65a1.13,1.13,0,0,0,.4,1,1.7,1.7,0,0,0,1.67.16,1.11,1.11,0,0,0,.67-1.19V75.27h0C146.27,74.63,146.29,74,146.27,73.35Zm-1.08,1.91v2a.49.49,0,0,1-.05.25c0,.08-.15.19-.22.19a.36.36,0,0,1-.24-.19,1.54,1.54,0,0,1-.06-.48q0-1.81,0-3.63a1.18,1.18,0,0,1,0-.42c0-.1.17-.24.23-.23a.44.44,0,0,1,.26.24,1.91,1.91,0,0,1,.05.48v1.75Zm-15-.47a.74.74,0,0,1-.48-.77,6.69,6.69,0,0,1,0-.77c0-.2,0-.46.3-.45s.26.28.27.47a8.94,8.94,0,0,1,0,.9h1.1v-.51a1.35,1.35,0,0,0-1.8-1.41,1,1,0,0,0-.82.64,2.79,2.79,0,0,0,0,1.89,1.57,1.57,0,0,0,1.05.94.81.81,0,0,1,.39.31,2.21,2.21,0,0,1,0,1.54.27.27,0,0,1-.21.15c-.07,0-.16-.09-.21-.16a.48.48,0,0,1-.06-.24c0-.32-.05-.63-.07-1h-1.07c0,.35,0,.68.1,1a1.06,1.06,0,0,0,.58.81,1.39,1.39,0,0,0,2.11-1.1C131.54,75.76,131.22,75.13,130.21,74.79Zm-8.13,3.39h1V72.3h-1ZM92.19,71.09a.27.27,0,0,0-.17.08c-.2.26-.39.53-.63.87a2.2,2.2,0,0,0,.89-.06,6.28,6.28,0,0,0,.91-.89C92.8,71.09,92.49,71.08,92.19,71.09Zm15.5,0a.19.19,0,0,0-.14.07l-.63.87a5.63,5.63,0,0,0,.6,0,.72.72,0,0,0,.36-.1c.28-.22.54-.48.81-.72l-.06-.11Z"/><path class="taiko-logo" d="M118.22,30.4V60.22c0,.2.1.26.28.26s.3-.06.29-.26V34.34c0-1.18,0-2.36,0-3.53,0-.21,0-.36.29-.35,2.58.06,5.16-.14,7.73.13a5.79,5.79,0,0,1,2.89,1.09,5.19,5.19,0,0,1,1.36,1.55,5,5,0,0,0-1.93-2.31,7.12,7.12,0,0,0-3.73-1c-1.48,0-3,0-4.45,0h-2.41c-.24,0-.35.08-.32.32Zm34.84,5.82a4,4,0,0,0,0-.49,2.26,2.26,0,0,0-1.9-2.19,5.54,5.54,0,0,0-.91,0,2,2,0,0,0-2,1.46,6.15,6.15,0,0,0-.27,1.69c0,5.69,0,11.37,0,17.05a6.9,6.9,0,0,0,.18,1.42,1.93,1.93,0,0,0,.7,1.22,2.87,2.87,0,0,0,3.14.22,6,6,0,0,0,.57-.56,3.41,3.41,0,0,0,.57-2.1c0-5.61,0-11.22,0-16.83a1.1,1.1,0,0,0,0-.18c0-.06,0-.12,0-.18h0C153.05,36.56,153.06,36.39,153.06,36.22ZM135.61,60.54c.24,0,.32-.11.31-.34V30.91c0-.45,0-.45.44-.45h2.47c.2,0,.31-.05.31-.27s-.11-.31-.33-.31h-3c-.47,0-.48,0-.48.47V55.11c0,1.7,0,3.39,0,5.09C135.29,60.42,135.36,60.54,135.61,60.54Zm15-2.42a3.33,3.33,0,0,0,3.28-2.07,6.41,6.41,0,0,0,.38-2.2q0-8.61,0-17.22a5.28,5.28,0,0,0-.27-1.57,3.06,3.06,0,0,0-1.74-1.84,7.46,7.46,0,0,1,.69.68,3.91,3.91,0,0,1,.76,2.54q0,8.56,0,17.13a10.13,10.13,0,0,1-.12,1.45,2.75,2.75,0,0,1-2.21,2.43,3.94,3.94,0,0,1-.6.08,3.06,3.06,0,0,1-2.61-.91c-.17-.18-.3-.39-.49-.64A2.94,2.94,0,0,0,150.65,58.12ZM126.72,44a3.2,3.2,0,0,0,.38-.63,5.49,5.49,0,0,0,.25-1.32c0-1.33,0-2.65,0-4V36.73l0-.32a6.13,6.13,0,0,0-.11-1,1.92,1.92,0,0,0-2-1.59c-.77,0-1.53,0-2.3,0-.24,0-.34.08-.34.33,0,3.36,0,6.73,0,10.09,0,.25.09.34.34.34.7,0,1.4,0,2.09,0a4.11,4.11,0,0,0,1.1-.2A1.8,1.8,0,0,0,126.72,44Zm-16.6,16.5c.27,0,.28-.16.28-.36,0-1.67,0-3.34,0-5,0-3.35,0-6.71,0-10.06,0-2.34,0-4.68,0-7,0-.22,0-.4-.3-.41s-.34.15-.34.39q0,5.52,0,11c0,3.68,0,7.35,0,11C109.82,60.33,109.84,60.49,110.12,60.49Zm-5.91-8.32c0,.27-.15.32-.39.32s-.41,0-.31.39a.4.4,0,0,0,.27.22,3.58,3.58,0,0,0,.57,0c.23,0,.34-.07.37-.32.09-.72.2-1.44.31-2.16.29-2,.59-3.92.88-5.88.23-1.51.44-3,.67-4.52l.66-4.37c.25-1.66.5-3.31.73-5,0-.3.18-.39.47-.39H113c.23,0,.36-.05.36-.32s-.12-.32-.35-.32h-5.15a.32.32,0,0,0-.37.33c-.15,1.09-.31,2.18-.47,3.27q-.82,5.54-1.66,11.07Q104.77,48.36,104.21,52.17ZM122,45.54c0,.27.18.27.37.27h3.22a2.8,2.8,0,0,0,2.62-1.76,6.23,6.23,0,0,0,.45-2.33c0-1.64,0-3.28,0-4.92a7.48,7.48,0,0,0-.19-1.56,2.55,2.55,0,0,0-2.81-2l.08.05.23,0a2.19,2.19,0,0,1,1.72,1.41,5.08,5.08,0,0,1,.34,1.59c0,1.87,0,3.73,0,5.6a5.46,5.46,0,0,1-.13,1.14,2.41,2.41,0,0,1-1.48,2,5.48,5.48,0,0,1-1.46.21c-.86,0-1.73,0-2.59,0C122.12,45.23,122,45.26,122,45.54Zm67.45-12.27a3.36,3.36,0,0,1,1.28,2.53c0,.42.05.84.07,1.26,0,.19.11.25.28.25s.29,0,.3-.23a4.93,4.93,0,0,0-.5-2.56A2.74,2.74,0,0,0,189.41,33.27Zm-17,15.66a.25.25,0,0,0-.19.11.42.42,0,0,0,.39.51c.3,0,.61,0,.92,0s.43,0,.43-.43V40h0V30.87c0-.4,0-.41.4-.41h1.84c.2,0,.35,0,.35-.28s-.14-.3-.35-.3h-2.38c-.49,0-.49,0-.49.48V48.54c0,.36,0,.38-.37.38A5,5,0,0,0,172.43,48.93ZM101.09,36.56c.43,2.69.85,5.37,1.28,8,.32,2,.65,4,1,6,.06.38.13.76.19,1.14h.11c0-.39.1-.77.16-1.15.45-3,.91-6,1.35-9.08,0-.36,0-.72.08-1.08a1,1,0,0,0,.11-.28c.21-1.34.41-2.69.61-4,.11-.76.21-1.53.31-2.29l-2.34-1.68-1.1-.81L99.94,29.3c0,.21,0,.42.08.63C100.38,32.14,100.73,34.35,101.09,36.56Zm79.72,1.38a9.13,9.13,0,0,0,1.09,3.75,18.63,18.63,0,0,0,4,4.66,21.6,21.6,0,0,1,3.27,3.42,6.63,6.63,0,0,1,1.08,5.59,2.65,2.65,0,0,1-.88,1.45,3.36,3.36,0,0,1-2.65.65,2.75,2.75,0,0,1-1.82-.88,7.85,7.85,0,0,1-.47-.66,3,3,0,0,0,3.32,2.15,3.32,3.32,0,0,0,2.95-2.21,6.53,6.53,0,0,0,.3-2.44,7,7,0,0,0-.86-3.16,16.86,16.86,0,0,0-3.48-4c-1.09-1-2.15-2.07-3.15-3.18A7.86,7.86,0,0,1,181.83,40a10.88,10.88,0,0,1-.07-6,4.59,4.59,0,0,1,3.6-3.56,10.16,10.16,0,0,1,5,.13A4.7,4.7,0,0,1,192.73,32c.25.28.46.6.69.91A5,5,0,0,0,190.51,30a8.92,8.92,0,0,0-5-.3,5.38,5.38,0,0,0-4.29,3.91A11.29,11.29,0,0,0,180.81,37.94ZM143.58,53.38a13.75,13.75,0,0,0,.17,2.22,6,6,0,0,0,2.32,4,5.75,5.75,0,0,0,1.92.91c-.35-.2-.73-.36-1.07-.57a5.41,5.41,0,0,1-2.23-3,11.84,11.84,0,0,1-.54-4q0-8,0-16a10.2,10.2,0,0,1,.34-2.7,5.28,5.28,0,0,1,4.37-4.1,10.18,10.18,0,0,1,4.36.16,5.06,5.06,0,0,1,3.56,2.78l.08.13a.45.45,0,0,0,0-.08A5.4,5.4,0,0,0,154,30.19a9,9,0,0,0-5.94-.33,5.39,5.39,0,0,0-3,2,7.37,7.37,0,0,0-1.45,4.55C143.55,42.05,143.56,47.71,143.58,53.38ZM162,30.44V59.93a2.25,2.25,0,0,1,0,.26c0,.21.09.29.29.29s.3-.09.29-.29a2.81,2.81,0,0,1,0-.29v-29c0-.46,0-.46.46-.46h4.24c0-.46-.08-.57-.4-.57h-4.57c-.24,0-.33.1-.31.33A1.77,1.77,0,0,1,162,30.44Zm7.3,5q1.5,5.7,3,11.4c.12.46.25.93.38,1.4a.4.4,0,0,0,.06-.23c0-3.78,0-7.57,0-11.35a2.91,2.91,0,0,0-.05-.4,1.57,1.57,0,0,0,.05-.3v-3l-1.09-.74-3.9-2.82a1.22,1.22,0,0,0,0,.27Zm-2.72,2c-.22.09-.08.25,0,.37l1.08,4.05,3.15,11.86q.87,3.23,1.72,6.45c.06.21.13.36.37.32s.32-.07.26-.31c-.74-2.72-1.46-5.44-2.18-8.16q-1.71-6.42-3.41-12.84c-.14-.5-.27-1-.41-1.5A.39.39,0,0,0,166.54,37.43Zm15,15.29h2.24c.2,0,.3-.07.3-.28s-.07-.3-.28-.3h-3c-.2,0-.27.09-.27.28a14.68,14.68,0,0,0,.29,3.68,5.68,5.68,0,0,0,3.36,4.19,6.35,6.35,0,0,0,2.43.49l-.48-.11a5.87,5.87,0,0,1-4.42-3.74,10,10,0,0,1-.6-3.83C181.17,52.73,181.18,52.72,181.56,52.72ZM52,36.29c0,1.11,0,2.22,0,3.33,0,.37,0,.39-.39.39H47.75c-.13,0-.26,0-.4,0s-.06-.25-.07-.38V36.73A4.57,4.57,0,0,0,47.05,35a2,2,0,0,0-1-1.21,3.2,3.2,0,0,0-2.3-.12,1.74,1.74,0,0,0-1.21,1.1,5.19,5.19,0,0,0-.33,1.59q0,8.87,0,17.74a3.78,3.78,0,0,0,.07.74,2.54,2.54,0,0,0,3.9,1.69,2.83,2.83,0,0,0,.5-.4,3,3,0,0,0,.64-2c0-1.5,0-3,0-4.51,0-.42,0-.42.44-.42h2.44c0-.52,0-1.05,0-1.57,0-1.72,0-3.44,0-5.15a1.36,1.36,0,0,1,.07-.35l.33.23,2.56,1.85h0c.64.46,1.33.92,2,1.38,0-.48,0-8.11,0-10.05a1,1,0,0,0-.16-.56c-.34-.51-.73-1-1.1-1.47l-.18-.17c-.94-.68-1.87-1.37-2.81-2L50.39,31l-.46-.29c.21.25.42.49.62.75A8.38,8.38,0,0,1,52,36.29ZM48.89,50.47h2.18c.23,0,.36,0,.36-.31s-.12-.32-.36-.32H48.29c-.36,0-.37,0-.37.38,0,1.24,0,2.49,0,3.73a6.54,6.54,0,0,1-.06.89,3.13,3.13,0,0,1-1,2,3.38,3.38,0,0,1-2.66.64,2.72,2.72,0,0,1-1.84-.91c-.13-.15-.24-.32-.36-.48a2.78,2.78,0,0,0,2.29,2,4.34,4.34,0,0,0,1.08,0,3.2,3.2,0,0,0,2.76-2,5.9,5.9,0,0,0,.42-2.24c0-1,0-2,0-3C48.54,50.56,48.62,50.46,48.89,50.47Zm-.66-11.09c.26,0,.32-.12.32-.35,0-.8,0-1.61,0-2.41a6.43,6.43,0,0,0-.36-1.73,2.77,2.77,0,0,0-1.65-1.63,2.92,2.92,0,0,1,1.06,1.33,7.32,7.32,0,0,1,.32,1.6c.05.94,0,1.89,0,2.84C47.91,39.25,48,39.38,48.23,39.38ZM66.38,60.27a.34.34,0,0,0,.19.2c.29.07.37,0,.37-.39V47.17c0-.28-.09-.35-.37-.32s-.2.22-.2.37V60A.87.87,0,0,0,66.38,60.27Zm-10.65-.05c0,.2.1.26.29.26s.29-.06.28-.26,0-.21,0-.32v-29c0-.4,0-.41.4-.41h2.41c.21,0,.35,0,.35-.29s-.14-.29-.35-.29h-2.9c-.49,0-.49,0-.49.49V60.22ZM202.09,55a16.93,16.93,0,0,0-4.53-5.65,23.62,23.62,0,0,1-3-3,6.21,6.21,0,0,1-1.32-5.27,2.29,2.29,0,0,1,.2-.53l.08-.17.62.42,0,0L198,43.6a.38.38,0,0,0,.23.08h4.43c.15,0,.2-.06.2-.21a13.35,13.35,0,0,0-.4-4A6.49,6.49,0,0,0,200.16,36c-.73-.55-1.49-1.08-2.24-1.62-.4-.29-.82-.57-1.23-.85l-.17-.16-3.86-2.78a.86.86,0,0,0,.11.19,6.73,6.73,0,0,1,1.78,3.29,12.86,12.86,0,0,1,.3,3.5c0,.37,0,.39-.39.39h-3.88a2.6,2.6,0,0,0-.39.05,2.47,2.47,0,0,1-.11-.36c0-.26-.05-.53-.07-.8,0,0,.05-.11.07-.17a.35.35,0,0,0,0-.17,9.64,9.64,0,0,0-.12-1.08,2.09,2.09,0,0,0-1.77-1.87,3.83,3.83,0,0,0-.68,0,2.09,2.09,0,0,0-2.29,1.85,6.05,6.05,0,0,0,.74,4.4,14.49,14.49,0,0,0,3,3.34,31.57,31.57,0,0,1,3.24,3.2,10.43,10.43,0,0,1,2.66,6,11.6,11.6,0,0,1-.56,4.9,5.83,5.83,0,0,1-3.45,3.63,9.46,9.46,0,0,1-5.81.34,16.05,16.05,0,0,1-1.82-.68L183,60.4a6.66,6.66,0,0,1-.77-.61,13.9,13.9,0,0,1-1.45-2.12,6.58,6.58,0,0,1-.35-.87,15.79,15.79,0,0,1-.47-5c0-.18.08-.26.26-.26h4.52c0,1,0,2.08.06,3.12a2.34,2.34,0,0,0,.78,1.68,2.77,2.77,0,0,0,2.31.49,3.72,3.72,0,0,0,.82-.31,1.43,1.43,0,0,0,.27-.15,2.25,2.25,0,0,0,.75-1.28l-1-.69-1.27-.93-2.26-1.65c0-1.6,0-3.21,0-4.81,0-.15,0-.29,0-.43l-.15-.17c-.83-.87-1.7-1.71-2.48-2.62a8.61,8.61,0,0,1-.72-1l-.42-.66-.25-.38h0l-.34-.82a10.68,10.68,0,0,1-.71-4.41,9.68,9.68,0,0,1,1-4.39l-.86-.6-3.1-2.22V60.75c0,.27-.08.37-.36.37-1,0-2,0-3,0h-1.38l-.34.06c-.13-.44-.29-.87-.41-1.31-.58-2.17-4.31-16.3-5.4-20.4a9.28,9.28,0,0,0-.4-1.23V60.61c0,.5,0,.5-.48.5h-3.68c-.12,0-.24,0-.36,0h0c0-.14-.09-.29-.13-.44h0c0-.12.05-.24.07-.37a2.2,2.2,0,0,0,0-.36V34.48l-.3-.15-1.19-.82a1,1,0,0,0-.15-.14l-2.26-1.64-1.5-1.05c.21.25.42.49.62.75a7.56,7.56,0,0,1,1.55,4.69c0,5.87,0,11.73,0,17.59a10.07,10.07,0,0,1-.42,3,6.19,6.19,0,0,1-3.26,4,9.35,9.35,0,0,1-6.12.58,5.13,5.13,0,0,1-.74-.21c-.4-.14-.8-.31-1.21-.45h0l-.11,0a6.85,6.85,0,0,1-2.35-2.49l-.34-.75a9.48,9.48,0,0,1-.63-3.4q0-8.67,0-17.33a9.11,9.11,0,0,1,.56-3.27,2.66,2.66,0,0,0,.18-1.18l-3.9-2.82a3.93,3.93,0,0,0-.06.48V60.66c0,.45,0,.45-.44.45h-4.11c-.13,0-.26,0-.39,0,.78.57,1.55,1.14,2.34,1.7L138.73,64s.05.06.08.08l3.73,2.68a.64.64,0,0,0,.37.1h4.48c.26,0,.33-.07.32-.33,0-1.63,0-3.27,0-4.91l.58.38,2.18,1.52a.63.63,0,0,0,.11.13c1.06.76,2.12,1.54,3.2,2.29a7.57,7.57,0,0,0,3.95,1.26,9.78,9.78,0,0,0,3.61-.36,6,6,0,0,0,3.73-3l2.13,1.5,1.9,1.38a.7.7,0,0,0,.37.11c1.34,0,2.68,0,4,0,.26,0,.32-.08.32-.33,0-1.37,0-2.73,0-4.1l.47.32L176,64a.74.74,0,0,0,.13.12c1.19.86,2.38,1.73,3.58,2.58a1,1,0,0,0,.52.16c1.49,0,3,0,4.48,0,.43,0,.43,0,.43-.43,0-1.49,0-3,0-4.45l2.12,1.49a.73.73,0,0,0,.08.09l2.47,1.78a9.56,9.56,0,0,0,2.28,1.36,9.78,9.78,0,0,0,5.14.38,6.1,6.1,0,0,0,4.9-3.82,9.49,9.49,0,0,0,.67-3.07A10.69,10.69,0,0,0,202.09,55ZM39.45,58.53a7.56,7.56,0,0,1-1.07-4.17c0-5.94,0-11.88,0-17.82a8.64,8.64,0,0,1,.52-2.9,4.94,4.94,0,0,1,3.49-3.26,9.48,9.48,0,0,1,5.33.15,4.77,4.77,0,0,1,2.9,2.38s0,.07,0,.11l.08-.08a5.3,5.3,0,0,0-2.85-2.81,8.8,8.8,0,0,0-5.39-.37,5.48,5.48,0,0,0-4.09,3.51,10.48,10.48,0,0,0-.63,3.83c0,3.82,0,7.63,0,11.44,0,2,0,4,.06,5.92a7.53,7.53,0,0,0,1,3.67,4.94,4.94,0,0,0,1.76,1.76A14.64,14.64,0,0,1,39.45,58.53ZM134.35,34a.83.83,0,0,1-.15-.17,2.41,2.41,0,0,0-.24-.21l-2.12-1.54c-.51-.37-1-.72-1.55-1.08.21.25.43.49.62.75a7.08,7.08,0,0,1,1.39,3.6,59.21,59.21,0,0,1,.1,6.66,8.56,8.56,0,0,1-.68,3.34,5.82,5.82,0,0,1-3.92,3.47,8.45,8.45,0,0,1-2.55.36H123c-.45,0-.45,0-.45.44V60.72c0,.38,0,.39-.39.39h-4.14c-.48,0-.48,0-.48-.47V32.38a4.93,4.93,0,0,0,0-.54l-.52-.37-3-2.18q0,13.13,0,26.25v5.15c0,.42,0,.42-.41.42h-3.91c-.44,0-.45,0-.45-.44V38.42h0c-.08.49-.16,1-.23,1.47-.3,2-.59,4-.89,6.08-.36,2.43-.72,4.87-1.07,7.3s-.71,4.78-1.06,7.16c-.12.81,0,.68-.83.69h-3.68c-.27,0-.38-.09-.42-.37-.52-3.26-1.06-6.52-1.58-9.78l-1.2-7.43c-.25-1.53-.48-3-.72-4.57a.36.36,0,0,0-.11-.22V60.54c0,.11,0,.21,0,.32s-.09.25-.27.25H93.2c-.24,0-.28-.13-.28-.33,0-1.18,0-2.36,0-3.53s0-2.63,0-3.94a4.93,4.93,0,0,0,0-.54h0a3.44,3.44,0,0,0,0-.45c0-5.57,0-11.13,0-16.7V34.53l-.52-.36-2.8-2c-.36-.26-.71-.53-1.08-.79L85.63,29.3c.11.79.23,1.57.35,2.36.51,3.2,1,6.41,1.54,9.61.41,2.57.83,5.14,1.24,7.71q.93,5.81,1.85,11.6c.09.53.08.53-.46.53H86.07a2.63,2.63,0,0,0-.39.06c-.05-.23-.13-.45-.17-.68-.12-.75-.23-1.5-.35-2.25s-.2-1.5-.31-2.25,0-.63-.76-.63H79c-.27,0-.38.07-.42.36-.24,1.65-.49,3.29-.73,4.94-.07.46-.06.46-.54.46H73.53c-.36,0-.37,0-.31-.35l1-6.55c.2-1.22.39-2.45.58-3.68a1.36,1.36,0,0,0,0-.2v-.2c0-.08,0-.15.07-.22.36-2.29.73-4.57,1.09-6.86s.69-4.32,1-6.49l.45-2.6a2.64,2.64,0,0,1-.38-.18l-2.26-1.6-4-2.87a3.91,3.91,0,0,0,0,.48q0,15.38,0,30.75c0,.57,0,.57-.58.57H65.91c-.21,0-.17-.28-.17-.42,0-3.44,0-12,0-12.83,0-.36,0-.38-.38-.38H60.53c-.43,0-.43,0-.43.43v12.6a2.09,2.09,0,0,0,0,.25c0,.27-.08.36-.34.35H55.1l-.06,0a2.34,2.34,0,0,1,0-.26,2.09,2.09,0,0,0,0-.25q0-4.36,0-8.71a2.16,2.16,0,0,0-.11-.49l-2.92-2.1c0,1.41,0,2.83,0,4.25a11.18,11.18,0,0,1-.48,3.4A6.07,6.07,0,0,1,47.66,61a9.46,9.46,0,0,1-3.62.46,8.82,8.82,0,0,1-2.5-.45c-.4-.14-.78-.32-1.17-.48l4.09,2.93s0,.07.07.09L47,65.34a9,9,0,0,0,2.57,1.46,10.26,10.26,0,0,0,4.3.36,7.13,7.13,0,0,0,3.5-1.31A6.93,6.93,0,0,0,59,64h.05q1.9,1.38,3.82,2.75a.67.67,0,0,0,.36.12h4.57c.23,0,.29-.08.28-.3V62.84c.08,0,.16.09.24.15l1.42,1,3.8,2.74a.77.77,0,0,0,.42.13c1.5,0,3,0,4.51,0,.29,0,.39-.07.37-.37s0-.81,0-1.28l.34.24,1.73,1.24a.68.68,0,0,0,.35.15c1.44,0,2.87,0,4.31,0a.31.31,0,0,0,.22-.18c.16-1,.31-2.1.47-3.15.09-.57.19-1.14.28-1.72l1.33,1L89.64,64l.15.13,3.56,2.57a.9.9,0,0,0,.5.16c1.49,0,3,0,4.48,0h.34l-.28-1.78a2.75,2.75,0,0,1,.24.15l2.07,1.49a.91.91,0,0,0,.42.14H105c.25,0,.31-.09.31-.32,0-.66,0-1.32,0-2,0-.1,0-.2,0-.33l.19.12c.89.64,1.8,1.24,2.65,1.92a2.55,2.55,0,0,0,1.83.6c1.17-.06,2.34,0,3.51,0,.2,0,.29,0,.3-.26a7.32,7.32,0,0,1,.11-.8c.06-.37.12-.74.19-1.14l.28.19,2.56,1.85a.68.68,0,0,0,.35.15h4.46c.17,0,.21-.08.2-.23V64.29l.33.22c1,.73,2,1.46,3,2.18a.89.89,0,0,0,.49.16c1.46,0,2.92,0,4.37,0,.41,0,.41,0,.41-.4V55.28c0-.37,0-.36.38-.37l3.75-.12c0-1.65,0-3.29,0-4.94h0v-15A1,1,0,0,0,134.35,34ZM59.85,44.15H66.6c.39,0,.4,0,.4-.41V37.32h0c0-2.14,0-4.29,0-6.43,0-.27.09-.4.35-.41l.34,0h2.25c.2,0,.35,0,.35-.29s-.14-.29-.35-.29H66.85c-.48,0-.48,0-.48.49q0,6.36,0,12.73c0,.39,0,.41-.4.41H60a.75.75,0,0,0-.26,0,.45.45,0,0,0-.22.23C59.42,44.08,59.5,44.15,59.85,44.15ZM83.93,41.6c-.21-1.39-.41-2.78-.61-4.18-.15-.94-.29-1.89-.45-2.83a.36.36,0,0,0-.22-.26c-.34-.07-.41,0-.34.42l1,6.91,1.38,9.46c.08.5.08.5-.42.5-1.61,0-3.22,0-4.83,0-.31,0-.34.16-.35.39s.2.18.33.19H85.1c.34,0,.37,0,.32-.37-.1-.71-.2-1.42-.31-2.13C84.72,47,84.32,44.3,83.93,41.6Zm9.91,18.88c.21,0,.3-.08.29-.29s0-.21,0-.32v-29c0-.44,0-.44.43-.44h4.57c.33,0,.36-.05.3-.37s-.23-.2-.38-.2c-1.67,0-3.34,0-5,0-.49,0-.49,0-.49.49V60.19C93.55,60.39,93.63,60.48,93.84,60.48Zm6.8-9.32c-.44-2.72-.87-5.45-1.31-8.17-.25-1.58-.52-3.16-.76-4.73,0-.22-.13-.28-.33-.26s-.31.08-.26.31c.13.79.24,1.57.37,2.36.3,1.8.59,3.61.89,5.41l1.26,7.86c.24,1.49.47,3,.71,4.48.1.59.19,1.19.29,1.78,0,.25.17.33.44.28s.16-.22.14-.36l-.39-2.53C101.34,55.45,101,53.3,100.64,51.16Zm-15.28,4,.72,4.8c.08.56.07.56.66.54,0-.08,0-.15,0-.21l-.42-2.81c-.12-.82-.25-1.65-.37-2.47,0-.14-.06-.25-.24-.26C85.34,54.7,85.3,54.75,85.36,55.14Zm-2-4.15a2.25,2.25,0,0,0,.36-.06l.36.07L84,50.69l-.16-.84a4.36,4.36,0,0,0,0-.51q-.51-3.54-1-7.08l-1-7a1.06,1.06,0,0,0-.06-.19.35.35,0,0,0-.11.19q-.46,3.22-.94,6.45c-.44,3-.88,6-1.31,8.95-.06.35,0,.37.32.37Zm-22.89-8.1h4.85c.42,0,.42,0,.42-.41V33.28c-.09-.06-.2-.1-.29-.16l-1.38-1L62.51,31,60.1,29.29V42.55C60.1,42.82,60.21,42.89,60.46,42.89Zm15.45,5.44-.57,3.6c-.29,1.91-.59,3.82-.88,5.73-.14.86-.27,1.72-.41,2.58,0,.17,0,.23.19.24s.42,0,.46-.33.12-.76.17-1.14q.43-2.73.85-5.48c.2-1.26.4-2.53.59-3.8q.43-2.73.85-5.48c.19-1.24.39-2.49.59-3.74.28-1.84.56-3.67.85-5.51.21-1.37.43-2.74.64-4.11,0-.27.13-.38.42-.38l5.14-.05c.33,0,.41-.08.28-.39,0-.09-.21-.17-.32-.18-.94,0-1.88,0-2.82,0s-1.86,0-2.79,0c-.28,0-.38.1-.42.37-.39,2.54-.79,5.07-1.19,7.61-.25,1.59-.51,3.19-.76,4.79Z"/></svg>