<svg id="Calque_1" data-name="Calque 1" xmlns="http://www.w3.org/2000/svg" viewBox="0 0 240 100"><defs><style>.taiko-logo{fill:#333;}</style></defs><path class="taiko-logo" d="M33.43,39.6,30.8,56.73c0,.42-.41.42-.41,0L27.21,42.09a3.6,3.6,0,0,0-3.59-2.91A3.32,3.32,0,0,0,20.16,42L16.84,57c-.13.41-.27.41-.27,0L14.22,39.6c-.42-3.18-2.9-3.73-6.22-3.73l4,22.94c.14.27.14.55.27.83a4.29,4.29,0,0,0,8,0,1.26,1.26,0,0,0,.14-.7L23.2,48.3a.43.43,0,0,1,.83,0l2.63,10.51a2,2,0,0,0,.27.83,4.35,4.35,0,0,0,4,2.76,4.22,4.22,0,0,0,4-2.76c.13-.28.13-.56.27-.83l4-22.94C36.33,35.87,33.84,36.56,33.43,39.6Z"/><path class="taiko-logo" d="M72.81,41h-2.9c-2.35,0-4.42,1.66-5.25,4.56l-.14-1.66c-.14-1.38-.69-2.35-2.07-2.35H59.54V61.85H61.2c2.35,0,3.32-1,3.59-2.08a2.29,2.29,0,0,0,.14-1v-6.5c0-3.18,2.9-5.66,5.12-5.66a2.75,2.75,0,0,0,2.76-2.77Z"/><path class="taiko-logo" d="M122.69,52.31V47.06c0-4.14-2.21-6.08-6.21-6.08a6.5,6.5,0,0,0-3.18,1A6.08,6.08,0,0,0,111,45.54l-.14-1.66c-.28-1.24-.69-2.21-1.93-2.35H105.7V61.85h1.66c2.35,0,3.31-1,3.59-2.08a2.29,2.29,0,0,0,.14-1V48c1.1-1.8,2.35-2.77,3.87-2.77s2.21.56,2.21,2.91V62.12h1.66c2.34,0,3.31-1,3.59-2.07a2.34,2.34,0,0,0,.14-1C122.69,58.67,122.69,52.45,122.69,52.31Z"/><path class="taiko-logo" d="M48.07,41.39c-6.08,0-9.25,4.7-9.25,10.65,0,3.17.82,5.8,2.62,7.6s4.15,2.76,7.46,2.76a12.46,12.46,0,0,0,7.74-2.76h0l-.69-1a3.22,3.22,0,0,0-3.87-1.11,5.55,5.55,0,0,1-2.62.56c-2.49,0-4.15-1-4.56-4.56H55.12a2,2,0,0,0,2.07-2.08h0C57.19,45.13,53.74,41.39,48.07,41.39Zm2.22,8.71H44.76c.27-3.59,1.38-4.84,3.45-4.84s2.9,1.52,3.18,3.74A1.08,1.08,0,0,1,50.29,50.1Z"/><path class="taiko-logo" d="M94.09,41.39c-6.08,0-9.26,4.7-9.26,10.65,0,3.17.83,5.8,2.63,7.6s4.14,2.76,7.46,2.76a12.48,12.48,0,0,0,7.74-2.76h0l-.69-.83A3.22,3.22,0,0,0,98.1,57.7a5.55,5.55,0,0,1-2.63.55c-2.49,0-4.14-1-4.56-4.56h10.23a2,2,0,0,0,2.07-2.07h0C103.35,45.13,99.89,41.39,94.09,41.39Zm2.35,8.71H90.91c.28-3.59,1.38-4.84,3.46-4.84s2.9,1.52,3.17,3.74A1.18,1.18,0,0,1,96.44,50.1Z"/><path class="taiko-logo" d="M82.62,56.73a4,4,0,0,0-1.24.28,4,4,0,0,1-1.11.28c-.69,0-.69-.56-.69-1.52V36.28c0-4.83-5.53-4.42-5.53-4.42V56.73a5.77,5.77,0,0,0,.56,2.77,4.81,4.81,0,0,0,4.69,2.76A18.08,18.08,0,0,0,83.45,62a2.9,2.9,0,0,0,1.8-2.34V59.5A2.59,2.59,0,0,0,82.62,56.73Z"/><path class="taiko-logo" d="M192.2,45.13l-2.76,10.5a.43.43,0,0,1-.83,0l-2.76-10.5c-.83-3.18-3.18-3.6-6.64-3.6l5.53,17.83c0,.14.14.28.14.41a6.32,6.32,0,0,1-2.21,5.81A23.31,23.31,0,0,1,174,69.86a3.6,3.6,0,0,0,4.29,2.21c5-1,10.64-4.42,14.23-12.16.41-1,.83-1.93,1.24-3,1.66-4.83,5-15.34,5-15.34C195.52,41.39,193,42,192.2,45.13Z"/><path class="taiko-logo" d="M159.59,59.77l-1.52-20.59a4.2,4.2,0,0,0-4.15-3.87,4.28,4.28,0,0,0-4.14,3.32l-3,13.27a.43.43,0,0,1-.83,0l-3.18-13.41a4.16,4.16,0,0,0-4.14-3.18,4.11,4.11,0,0,0-4.15,3.87l-1.66,20.59-.14,2.08c2.49,0,4.56-.42,5.26-2.08a5,5,0,0,0,.41-1.65l.41-7a81.13,81.13,0,0,0,.14-8.15c0-.14.28-.28.28,0l3.73,13.4a3.41,3.41,0,0,0,6.63,0l3.6-13.54c0-.14.27-.14.27,0,0,2.48.14,5,.28,8.15l.41,7a3.28,3.28,0,0,0,.42,1.66c.83,1.65,2.9,2.07,5.39,2.07Z"/><path class="taiko-logo" d="M170.37,41.39c-6.08,0-9.26,4.7-9.26,10.65a10.93,10.93,0,0,0,2.63,7.73c1.65,1.8,4.14,2.77,7.32,2.77a12,12,0,0,0,7.74-2.77h0l-.69-1a3.22,3.22,0,0,0-3.87-1.11,5.55,5.55,0,0,1-2.63.55c-2.48,0-4.14-1-4.56-4.56h10.23a2.12,2.12,0,0,0,2.07-2.07h0C179.49,45.13,176,41.39,170.37,41.39Zm2.21,8.71h-5.53c.28-3.59,1.38-4.84,3.46-4.84s2.9,1.52,3.18,3.74A1,1,0,0,1,172.58,50.1Z"/><path class="taiko-logo" d="M207.26,41.39c-6.08,0-9.25,4.7-9.25,10.65a11,11,0,0,0,2.62,7.73c1.66,1.8,4.15,2.77,7.33,2.77a12,12,0,0,0,7.73-2.77h0l-.69-1a3.22,3.22,0,0,0-3.87-1.11,5.51,5.51,0,0,1-2.62.55c-2.49,0-4.15-1-4.56-4.56h10.22a2,2,0,0,0,2.08-2.07h0C216.38,45.13,212.93,41.39,207.26,41.39Zm2.22,8.71H204c.27-3.59,1.38-4.84,3.45-4.84s2.9,1.52,3.18,3.74A1,1,0,0,1,209.48,50.1Z"/><path class="taiko-logo" d="M231.86,41H229c-2.35,0-4.42,1.66-5.25,4.56l-.14-1.66c-.14-1.38-.69-2.35-2.07-2.35h-2.9V61.85h1.65c2.22,0,3.18-1,3.6-2.08.14-.41.14-.69.27-1.1v-6.5c0-3.17,2.91-5.66,5.12-5.66A2.75,2.75,0,0,0,232,43.74,17.27,17.27,0,0,1,231.86,41Z"/></svg>