<svg id="Calque_1" data-name="Calque 1" xmlns="http://www.w3.org/2000/svg" viewBox="0 0 240 100"><defs><style>.taiko-logo{fill:#333;}</style></defs><path class="taiko-logo" d="M56.81,38.31c-2.64,0-5,1.22-7.47,2.92V38.55H39v.29L42.5,42.5V70.92L39,73.71V74H53.78v-.29l-4.29-2.84v-8.1h4c6.93,0,13.82-3.81,13.82-13.33C67.36,43.73,64.43,38.31,56.81,38.31ZM53.49,60.86a8.57,8.57,0,0,1-4-1.12V42.6a10.52,10.52,0,0,1,4-1c4.3,0,6.64,3.22,6.64,9C60.18,56.67,57.35,60.86,53.49,60.86Z"/><path class="taiko-logo" d="M82.55,63.26a14.85,14.85,0,0,0,11-4.74v-.63a12.42,12.42,0,0,1-6.15,1.56c-5.47,0-8.35-3.08-9.33-7.47l14.21-2.93,1.91-.39C93,41.87,89,38.31,83,38.31c-7.76,0-12.45,5.81-12.45,12.79S75.46,63.26,82.55,63.26Zm.14-23.44c2.39,0,3.76,3.12,4.1,7.86l-8.93,3.17a17.07,17.07,0,0,1-.2-2.83C77.66,43.48,79.32,39.82,82.69,39.82Z"/><polygon class="taiko-logo" points="80.54 35.96 81.03 35.96 91.09 27.86 83.47 27.86 80.54 35.96"/><path class="taiko-logo" d="M106.13,47.05a4.23,4.23,0,0,1,2.59-4.11l6.4,3.67h.19v-8.3A10.86,10.86,0,0,0,106,43.43h-.1V38.79H95.63v.3l3.52,3.22V59.64l-3.52,2.84v.29h15v-.29l-4.45-2.84Z"/><path class="taiko-logo" d="M127.91,30.05a4.07,4.07,0,0,0-4.2-4.05,4,4,0,0,0-4.15,4.05,4,4,0,0,0,4.15,4.06A4,4,0,0,0,127.91,30.05Z"/><polygon class="taiko-logo" points="116.68 62.48 116.68 62.77 130.69 62.77 130.69 62.48 127.18 59.64 127.18 38.79 116.68 38.79 116.68 39.09 120.19 42.36 120.19 59.64 116.68 62.48"/><path class="taiko-logo" d="M149.05,38.31c-2.63,0-5,1.22-7.47,2.92V38.55H131.23v.29l3.52,3.66V70.92l-3.52,2.79V74H146v-.29l-4.3-2.84v-8.1h4.05c6.94,0,13.82-3.81,13.82-13.33C159.6,43.73,156.67,38.31,149.05,38.31Zm-3.32,22.55a8.64,8.64,0,0,1-4-1.12V42.6a10.52,10.52,0,0,1,4.05-1c4.3,0,6.64,3.22,6.64,9C152.42,56.67,149.59,60.86,145.73,60.86Z"/><polygon class="taiko-logo" points="171.96 26.15 161.31 26.15 161.31 26.44 165.02 30.05 165.02 59.74 161.51 62.48 161.51 62.77 175.47 62.77 175.47 62.48 171.96 59.74 171.96 26.15"/><path class="taiko-logo" d="M184.9,52l14.21-2.93,1.9-.39c-1.22-6.79-5.17-10.35-11.18-10.35-7.76,0-12.45,5.81-12.45,12.79s4.93,12.16,12,12.16a14.87,14.87,0,0,0,11-4.74v-.63a12.47,12.47,0,0,1-6.15,1.56C188.76,59.45,185.88,56.37,184.9,52Zm-.39-4c0-4.54,1.66-8.2,5-8.2,2.39,0,3.76,3.12,4.1,7.86l-8.94,3.17A18.25,18.25,0,0,1,184.51,48Z"/></svg>