<svg id="Calque_1" data-name="Calque 1" xmlns="http://www.w3.org/2000/svg" viewBox="0 0 240 100"><defs><style>.taiko-logo{fill:#333;}</style></defs><path class="taiko-logo" d="M38.24,64.72a8.39,8.39,0,0,1-1.94-5.93V41.21a8.39,8.39,0,0,1,1.94-5.93,7.28,7.28,0,0,1,5.63-2.1,7.28,7.28,0,0,1,5.63,2.1,8.44,8.44,0,0,1,1.94,5.93v3.46H46.58V40.89c0-2-.86-3-2.57-3s-2.57,1-2.57,3V59.16c0,2,.86,3,2.57,3s2.57-1,2.57-3v-5h4.86v4.63a8.44,8.44,0,0,1-1.94,5.93,7.28,7.28,0,0,1-5.63,2.1A7.28,7.28,0,0,1,38.24,64.72Z"/><path class="taiko-logo" d="M54.52,33.64h7.62q4,0,5.8,1.85t1.82,5.68v2q0,5.09-3.37,6.45v.09A4,4,0,0,1,69,52a11.43,11.43,0,0,1,.78,4.63v5.74c0,.94,0,1.7.09,2.27a5.6,5.6,0,0,0,.47,1.71H65.13a7.8,7.8,0,0,1-.37-1.5,23.38,23.38,0,0,1-.09-2.52v-6a5.13,5.13,0,0,0-.73-3.14,3.07,3.07,0,0,0-2.5-.88H59.66v14H54.52Zm7,14a3.11,3.11,0,0,0,2.32-.79,3.79,3.79,0,0,0,.77-2.67V41.68A4.16,4.16,0,0,0,64,39.11a2.38,2.38,0,0,0-2-.79H59.66v9.34Z"/><path class="taiko-logo" d="M77.33,33.64h7l5.32,32.72H84.48l-.93-6.5V60H77.71l-.94,6.41H72Zm5.61,21.87L80.65,39.34h-.09L78.31,55.51Z"/><path class="taiko-logo" d="M91.26,61.78l9.53-23.46H91.73V33.64h14.58v4.58L96.77,61.68h9.54v4.68h-15Z"/><path class="taiko-logo" d="M113.93,52.43l-6.22-18.79h5.47l3.5,12h.1l3.5-12h5l-6.21,18.79V66.36h-5.14Z"/><path class="taiko-logo" d="M127.62,33.64H135l3.27,23.42h.09l3.27-23.42h7.34V66.36h-4.86V41.59H144l-3.74,24.77h-4.3L132.2,41.59h-.09V66.36h-4.49Z"/><path class="taiko-logo" d="M156.74,33.64h7L169,66.36h-5.14l-.94-6.5V60h-5.84l-.94,6.41h-4.76Zm5.6,21.87-2.29-16.17H160l-2.24,16.17Z"/><path class="taiko-logo" d="M173,64.7a8.67,8.67,0,0,1-2-6.1V41.4a8.67,8.67,0,0,1,2-6.1,8.72,8.72,0,0,1,11.4,0,8.67,8.67,0,0,1,2,6.1v2.8H181.5V41.07c0-2.15-.89-3.22-2.66-3.22s-2.67,1.07-2.67,3.22V59q0,3.18,2.67,3.18c1.77,0,2.66-1.06,2.66-3.18v-6.4h-2.57V47.9h7.43V58.6a8.67,8.67,0,0,1-2,6.1,8.72,8.72,0,0,1-11.4,0Z"/><path class="taiko-logo" d="M189.68,33.64h14v4.68h-8.88V47h7.06v4.68h-7.06v10h8.88v4.68h-14Z"/></svg>