<?xml version="1.0" encoding="UTF-8"?>
<svg id="b" data-name="Capa 2" xmlns="http://www.w3.org/2000/svg" width="10mm" height="10mm" xmlns:xlink="http://www.w3.org/1999/xlink" viewBox="0 0 28.35 28.35">
  <defs>
    <style>
      .e {
        clip-path: url(#d);
      }

      .f {
        fill: none;
      }

      .f, .g, .h {
        stroke-width: 0px;
      }

      .g {
        fill: #fff;
      }

      .h {
        fill: #bb9964;
      }
    </style>
    <clipPath id="d">
      <rect class="f" width="28.35" height="28.35"/>
    </clipPath>
  </defs>
  <g id="c" data-name="Capa 1">
    <g>
      <rect class="h" width="28.35" height="28.35"/>
      <g class="e">
        <g>
          <path class="g" d="M12.9,19.1c0-.46-.09-.92-.25-1.36-.38-1.06-1.15-1.91-2.18-2.39-.64-.3-1.35-.44-2.04-.4-1.54.09-2.91,1.02-3.58,2.42-.28.6-.41,1.24-.4,1.86.03,1.56.92,3.05,2.42,3.76.64.3,1.34.44,2.04.4,1.51-.09,2.86-.98,3.54-2.32.02-.03.03-.06.05-.09.28-.59.41-1.23.4-1.87M6.69,19.19c0-.29.06-.59.19-.88.3-.65.95-1.09,1.69-1.13.33-.02.66.04.95.18.48.23.84.62,1.02,1.12.08.21.11.43.12.64,0,.3-.06.6-.19.87l-.02.05c-.32.63-.95,1.05-1.66,1.09-.33.02-.66-.05-.96-.19-.71-.33-1.12-1.03-1.14-1.76"/>
          <path class="g" d="M27.68,21.32c0-.36-.07-.72-.2-1.07-.3-.83-.91-1.5-1.71-1.88-.07-.03-.13-.06-.2-.09-.1-1.54-.41-3.07-.95-4.57-1.17-3.24-3.26-5.98-6-7.93-.62-.44-1.26-.83-1.94-1.19l-3.3,5.02h0s-.14.22-.14.22c-.05-.02-.1-.05-.14-.07-1.56-.74-3.3-1.07-5.02-.97-3.15.18-6,1.77-7.8,4.26l-3.1-1.92c1.68-2.44,4.08-4.29,6.94-5.32,1.14-.41,2.31-.67,3.5-.79v.02c.31.83.91,1.5,1.71,1.88.5.23,1.05.34,1.6.31,1.18-.07,2.25-.77,2.78-1.82l.04-.07c.22-.47.33-.96.32-1.46,0-.36-.07-.72-.2-1.07-.3-.83-.91-1.5-1.71-1.88-.5-.24-1.05-.34-1.6-.31-.32.02-.63.08-.93.19-.83.3-1.49.9-1.88,1.71-.04.08-.07.17-.1.25-5.35.44-10.12,3.41-12.86,7.93-.03.05-.06.1-.09.14-.03.05-.06.11-.1.16-.02.04-.05.08-.07.11-1.04,1.83-2.3,3.86-2.95,4.89l-.17-2.88-2.19.13.48,8.26,2.19-.13-.18-3.14,2.27,3.02,2.66-.15-3.04-4.04,2.4-4,3.15,1.95c-.6,1.38-.89,2.83-.86,4.3.02,1.13.22,2.26.62,3.35.72,2,2,3.69,3.69,4.9l-2.23,3.27c-2.23-1.67-3.94-3.95-4.9-6.64-.22-.61-.4-1.24-.53-1.87l-2.28.13c.16.84.39,1.68.69,2.5,1.13,3.14,3.12,5.8,5.75,7.74.6.44,1.24.85,1.91,1.21l3.31-4.82.28-.41c1.47.63,3.08.92,4.68.83,3-.17,5.76-1.64,7.58-3.95l3.67,2.39c-1.67,2.24-3.96,3.94-6.65,4.91-1.23.44-2.5.71-3.78.81-.01-.03-.02-.07-.03-.1-.3-.83-.91-1.5-1.71-1.88-.5-.24-1.05-.34-1.6-.31-.32.02-.63.08-.93.19-.83.3-1.49.9-1.88,1.71-.22.47-.33.96-.32,1.46,0,.36.07.72.2,1.07.3.83.91,1.5,1.71,1.88.5.23,1.05.34,1.6.31,1.18-.07,2.25-.77,2.77-1.82l.04-.07c.03-.06.05-.12.07-.18,4.97-.31,9.5-2.83,12.39-6.76.22-.3.44-.62.64-.94.2-.32.39-.65.58-.98h0s-5.57-3.62-5.57-3.62h0s0,0,0,0l.03-.06c.68-1.45,1.02-3.01.99-4.57-.02-1.13-.22-2.26-.62-3.36-.66-1.83-1.79-3.41-3.28-4.59l2.23-3.38c2.35,1.68,4.13,4.03,5.13,6.8.44,1.22.71,2.48.8,3.75l-.08.02c-.83.3-1.49.9-1.88,1.71-.22.47-.33.96-.32,1.46,0,.36.07.72.2,1.07.3.83.91,1.5,1.71,1.88.5.23,1.05.34,1.6.31,1.18-.07,2.25-.77,2.77-1.82l.04-.08c.22-.47.33-.96.32-1.46M23.25,21.39c0-.17.03-.34.11-.5v-.02c.19-.36.55-.59.95-.62.19-.01.37.03.54.11.27.13.48.35.58.63.04.12.06.24.07.36,0,.17-.03.34-.11.49-.18.37-.54.62-.95.64-.18.01-.37-.03-.54-.11-.27-.13-.48-.35-.58-.63-.04-.12-.06-.24-.07-.36M.53,19.29c-.02-1.23.24-2.45.78-3.59.92-1.96,2.55-3.45,4.61-4.19.74-.27,1.51-.43,2.29-.47,1.34-.08,2.7.19,3.93.77,1.97.93,3.45,2.56,4.19,4.61.31.86.47,1.74.48,2.63.02,1.23-.24,2.45-.78,3.59-.92,1.96-2.56,3.45-4.61,4.19-.74.27-1.51.43-2.29.47h0c-1.34.08-2.7-.19-3.93-.77-1.97-.93-3.45-2.56-4.19-4.61-.31-.86-.47-1.74-.48-2.63M9.63,3.95c0-.17.03-.34.11-.5v-.03c.19-.36.55-.59.95-.62.19-.01.37.03.54.1.27.13.48.35.58.63.04.12.06.24.07.36,0,.17-.03.34-.11.49-.18.37-.54.62-.95.64-.18.01-.37-.03-.54-.11-.27-.13-.48-.35-.58-.63-.04-.12-.06-.24-.07-.36M5.81,34.73c0-.17.03-.34.11-.5v-.02c.19-.36.55-.59.95-.62.19-.01.37.03.54.11.27.13.48.35.58.63.04.12.06.24.07.36,0,.17-.03.34-.11.49-.18.37-.54.62-.95.64-.18.01-.37-.03-.54-.11-.27-.13-.48-.35-.58-.63-.04-.12-.06-.24-.07-.36"/>
        </g>
      </g>
    </g>
  </g>
</svg>