<?xml version="1.0" encoding="UTF-8"?>
<svg id="b" data-name="Capa 2" xmlns="http://www.w3.org/2000/svg" width="341.55mm" height="341.55mm" xmlns:xlink="http://www.w3.org/1999/xlink" viewBox="0 0 968.17 968.17">
  <defs>
    <style>
      .e {
        fill: #c3e1cb;
      }

      .e, .f, .g, .h, .i, .j, .k, .l, .m {
        stroke-width: 0px;
      }

      .n {
        stroke-width: 24px;
      }

      .n, .h, .o, .p, .q {
        fill: none;
      }

      .n, .o, .p, .q {
        stroke-miterlimit: 10;
      }

      .n, .q {
        stroke: #595a5b;
      }

      .r {
        clip-path: url(#d);
      }

      .g {
        fill: #bb9a64;
      }

      .i {
        fill: #d1d2d4;
      }

      .j {
        fill: #fff;
      }

      .k {
        fill: #f9f9fa;
      }

      .o {
        stroke: #d1d2d4;
        stroke-width: 12px;
      }

      .l {
        fill: #282829;
      }

      .p {
        stroke: #bb9a64;
      }

      .m {
        fill: #595a5b;
      }

      .q {
        stroke-width: 20px;
      }
    </style>
    <clipPath id="d">
      <circle class="h" cx="484.09" cy="484.09" r="484.09"/>
    </clipPath>
  </defs>
  <g id="c" data-name="Capa 1">
    <g class="r">
      <g>
        <g>
          <path class="e" d="M591.6,126.04l-30.39-33.03-64.73,25.1s-35.67,23.78-36.99,56.81c-1.32,33.03,15.85,77.95,15.85,77.95l43.6-23.78,72.66-103.05Z"/>
          <path class="e" d="M649.73,215.88l61.65,65.61s-32.59,114.05-51.08,132.55c-18.49,18.49-35.67,35.67-35.67,35.67l-47.56,11.89-21.14-5.28-15.85-15.85,84.55-194.2,25.1-30.39Z"/>
        </g>
        <path class="i" d="M-32.51,469.49l503.67,270.85,5.73-10.54L-32.51,455.83v13.66ZM582.39,846.04l69.62-11.25,82.38-19.11,25.02,103.5-150.84,30.94-26.18-104.08ZM746.07,812.96l29.47-6.84,24.76,104.66-29.14,5.98-25.09-103.8ZM787.24,803.41l27.9-6.48,22.88,106.11-25.95,5.33-24.83-104.96ZM826.83,794.23l49.21-11.42,25.73,107.16-21.09,4.33-13.81-48.57-11.54,3.28,13.56,47.71-19.12,3.92-22.94-106.41ZM728.33,739.57l29.87-6.77,14.59,61.66-29.53,6.85-14.93-61.74ZM769.91,730.14l29.4-6.67,13.31,61.74-28.14,6.53-14.57-61.6ZM811,720.82l47.57-10.79,14.67,61.11-48.94,11.36-13.3-61.68ZM870.28,707.38l16.87-3.83,14.05,61.1-16.26,3.77-14.66-61.05ZM548.4,710.91l70.58-12.75,17.72,72.28-41.13,9.4-7.42-27.82-11.59,3.09,20.38,76.42-17.48,2.83-31.05-123.45ZM532.17,646.38l70.86-13.29,13.09,53.38-70.65,12.76-13.3-52.86ZM785.12,600.78l44.63-10.78,26.02,108.37-47.29,10.73-23.35-108.32ZM841.42,587.17l17.97-4.34,25.07,109.03-16.98,3.85-26.06-108.54ZM520.07,598.29l70.58-15.69,9.52,38.82-70.94,13.3-9.16-36.43ZM498.75,562.71l6.06,24.1-16.78.51,10.72-24.61ZM172.52,544.58l45.48-85.27,15.9,8.72-45.49,85.33-15.89-8.78ZM544.27,458.14l18.35,10.09,25.18,102.71-69.61,15.47-1.1.03-9.51-37.79-3.05.77,39.74-91.28ZM811,460.48l19.15-4.83,26.55,115.48-18.09,4.37-27.62-115.03ZM148.17,531.13l45.44-85.2,13.87,7.61-45.46,85.24-13.85-7.65ZM122.83,517.12l44.84-85.44,15.42,8.46-45.43,85.17-14.84-8.2ZM96.38,502.51l44.84-85.34,15.92,8.74-44.83,85.41-15.94-8.81ZM72.04,489.06l45.08-85.12,13.58,7.45-44.83,85.31-13.84-7.65ZM146.81,406.55l1.91-3.64,20.71-.4-6.7,12.77-15.91-8.73ZM250.06,463.22l32.68-61.31,136.01,64.49,113.12-9.84-56.69,130.21-225.12-123.55ZM173.25,421.06l9.87-18.8,20.39-.39-14.77,27.7-15.49-8.5ZM199.26,435.34l17.99-33.73,18.12-.35-22.24,41.69-13.87-7.61ZM223.65,448.72l25.46-47.73,20.74-.4-30.31,56.85-15.89-8.72ZM316.39,404.59l2.56-4.93,237.37-4.54-19.15,48.94-116.21,10.11-104.57-49.58ZM255.73,388.57l.53.28h-.69s.16-.28.16-.28ZM87.09,387.46l8.15,4.47-10.75.21,2.6-4.68ZM231.24,375.37l13.93,7.51-3.34,6.25-18.12.35,7.52-14.11ZM204.73,361.08l15.95,8.59-10.7,20.06-20.49.39,15.25-29.05ZM178.21,346.8l15.95,8.59-18.37,35-20.7.4,23.12-43.99ZM154.24,333.88l13.41,7.23-26.25,49.95-17.62.34,30.46-57.51ZM92.92,376.97l32.58-58.58,18.17,9.79-31.45,59.38-19.3-10.59ZM329.33,314.52l15.9,8.55-33.64,64.73-21.54.41,39.28-73.69ZM269.46,382.34l-8.08-4.36,41.45-77.72,15.94,8.57-41.23,77.34-8.08-3.83ZM236.88,364.79l41.44-77.71,13.93,7.49-41.45,77.72-13.93-7.51ZM210.3,350.46l40.92-77.96,16.54,8.9-41.44,77.7-16.02-8.63ZM183.79,336.18l40.95-77.92,15.91,8.56-40.91,77.95-15.95-8.59ZM159.85,323.27l41.19-77.77,13.13,7.06-40.94,77.91-13.38-7.21ZM131.33,307.9l42.76-76.89,16.38,8.81-41.18,77.76-17.96-9.68ZM100.86,291.49l40.28-78.2,22.38,12.04-42.76,76.89-19.9-10.72ZM69.19,275.23l42.69-77.68,18.69,10.05-40.28,78.19-21.1-10.56ZM629.91,249.18l30.13-42.68,35.45-10.64,17.3,8.14,3.52,35.19-27.26,106.47-52.94,89.09-26.82,15.85-40.44,7.36-19.76-10.87,1.84-4.23-.42.04,20.21-51.65h0s59.2-142.07,59.2-142.07ZM191.66,19.03l-84.74,162.22-35.76-19.23L149.74,19.03h-13.69L62.33,153.18v23.84l2.77-4.64,11.38,6.12-14.15,28.74v27.17l24.72-50.22,14.31,7.7L8.68,354.38l3.06,11.74,50.58-81.77,52.6,28.34-32.53,58.5L-4.85,328.85v13.69l81.42,39.14-5.96,10.72-73.16,1.04v12l66.41-.91-102.41,163.29,27.57-22.21,88.71-141.34,25.9-.49L-6.98,590.98l.68,10.21,68.63-103.79,406.15,224.42,5.8-10.5-275.37-152.15,45.5-85.36,225.96,124.02-19.02,43.69,11,4.79,20.38-46.82,25.07-.76,9.61,38.21-55.07,10.33,2.21,11.8,55.79-10.46,13.28,52.78-51.42,9.29,2.13,11.81,52.22-9.43,31,123.24-48.26,7.8,1.92,11.84,49.28-7.96,26.3,104.57-23.01,4.72h59.73l128.7-26.4,6.38,26.4h12.35l-6.97-28.82,29.08-5.97,8.23,34.78h12.33l-8.8-37.19,25.72-5.28,9.16,42.47h12.27l-9.68-44.88,19.88-4.08,13.91,48.96h12.47l-14.6-51.38,20.61-4.23,5.75,23.95v-51.42l-22.59-94.09,16.15-3.75,6.45,28.03v-53.55l-11.48-49.92,51.96-15.11v-12.3l-54.65,15.72-25.1-109.19,148.18-31.59v-12.35l-150.87,32.24-4.66-20.28,155.53-31.56v-12.24l-158.22,32.1-5.07-22.04,163.29-35.89v-12.38l-165.98,36.57-11.47-49.88,177.45-39.38v-12.37l-180.13,40.05-6.86-29.84,151.51-30.71v-12.3l-154.19,31.31-.91-3.96-11.7,2.69,10.52,45.75-19.27,4.86-2.02-8.43-11.67,2.8,32.45,135.14-44.36,10.72-8.1-37.55-11.73,2.53,34.01,157.73-82.97,18.82,17.76,73.46-81.67,18.95-41.05,6.64-10.18-38.18,40.9-9.35,5.67,23.11,11.65-2.86-26.06-106.32,58.29-10.53-2.13-11.81-59.02,10.66-13.1-53.46,103.36-19.38-2.21-11.8-104.01,19.5-9.61-39.21,96.22-21.38,43.52-20.24-5.09-10.87-41.68,19.53-95.82,21.29-24.35-99.33,38.38-6.98,31.31-18.5,55.39-93.22,28.22-110.2-4.37-43.72,96.21,54.78,57.38-8.52,83.85,356.32,4.85-34.21-76.78-323.88,20.72-3.08v-12.13l-23.64,3.51-21.93-87.93.81-.25,2.09-.67,42.66,27.02v-14.21l-27.76-17.58,27.76-8.87v-12.6l-40.98,13.09-9.62-6.09-19.23-77.11-11.64,2.9,16.19,64.9-94.06-59.57-38.2,106.12,11.29,4.07,33.13-92.04,92.05,58.3,1.12,4.48-120.51,37.36,3.55,11.46,119.86-37.16,21.48,86.14-52.13,7.74-93.32-53.14-5.82,10.22-27.06-12.73-43.82,13.15-29.03,41.12-67.64-60.26-7.98,8.96,69.09,61.55-37.46,67.89-79.7-29.88-4.21,11.23,87.67,32.88-22.22,53.34-235.89,4.52,30.55-58.78,31.08,16.72,66.05,31.71,5.2-10.82-65.81-31.58-10.29-5.53,44.41-81.43-10.53-5.75-44.45,81.49-10.13-5.45,41.39-79.65-10.65-5.53-41.32,79.5-15.79-8.49,42.62-79.95-10.59-5.65-42.6,79.91-15.93-8.57,41.38-77.58-10.59-5.65-41.36,77.55-13.93-7.5,42.1-78.93-10.59-5.65-42.08,78.9-16.61-8.93,114.21-217.6-10.62-5.58-114.15,217.49-15.91-8.56,41.6-79.17-10.62-5.58-41.55,79.07-13.1-7.04,41.48-78.31-10.6-5.62-41.44,78.25-16.16-8.69,103.82-186.69-10.48-5.83-103.91,186.83-51.92-27.93L205.19,19.03h-13.54Z"/>
        <rect class="i" x="388.79" y="811.64" width="129.51" height="12" transform="translate(-465.6 989.13) rotate(-71.55)"/>
        <path class="i" d="M62.5,755.87l7.64-21.43-7.67-2.74.04,24.17ZM96.24,838.15l28.09-81.3,5.63-38.8,25.42,13.11.13-.24,15.27,6.97-11.6,33.63-25.9,79.05-37.05-12.42ZM312.04,910.49l22.36-65.22,43.17-130.83,25.23,8.09,5.56,26.7-58.34,173.99-37.98-12.73ZM255.98,891.7l26.82-72.65,35.52-123.61,17.42,5.59-45.71,124.44,11.27,4.14,45.89-124.92,18.95,6.08-43.12,130.67-22.36,65.23-44.68-14.98ZM200.75,873.19l25.27-71.34,44.08-121.87,36.8,11.8-35.43,123.33-26.87,72.78-43.85-14.7ZM230.79,752.07l-43.4-19.8,45.16-64.35,26.12,8.38-43.95,121.5-25.35,71.57-44.7-14.99,25.89-79.05,11.19-32.45,44.06,20.1,4.98-10.91ZM161.45,720.44l36.12-63.74,23.02,7.38-44.29,63.12-14.84-6.77ZM-4.34,598.3l190.23,54.66-35.27,62.24-77.81-40.12-7.19.75-3.23,5.19,1.7,3.06,54.6,28.15-5.89,41.23-27.93,80.86-22.25-7.46.02,12.66,18.31,6.14-18.22,52.76.06,36.6,29.55-85.54,37.24,12.48-31.21,95.28h12.62l29.96-91.47,44.43,14.9-27.12,76.57h12.73l25.77-72.76,43.7,14.65-21.45,58.11h12.79l20.04-54.29,44.95,15.07-13.45,39.22h12.69l12.14-35.41,38.06,12.76-7.59,22.65h12.65l6.32-18.83,56.18,18.83h37.74l-90.11-30.21,58.86-175.53.52-1.54-7.65-36.72-213.98-68.64-6.46-3.66-.76,1.34L-4.34,585.7v12.6Z"/>
        <rect class="i" x="672.79" y="71.1" width="12" height="99.32" transform="translate(25.06 339.78) rotate(-28.61)"/>
        <line class="o" x1="702.57" y1="644.35" x2="669.1" y2="649.64"/>
        <g>
          <path class="i" d="M716.39,164.73c-6.5,0-11.8,5.29-11.8,11.8s5.29,11.8,11.8,11.8,11.8-5.29,11.8-11.8-5.29-11.8-11.8-11.8M716.39,198.75c-12.25,0-22.22-9.97-22.22-22.22s9.97-22.22,22.22-22.22,22.22,9.97,22.22,22.22-9.97,22.22-22.22,22.22"/>
          <path class="n" d="M927.16,32.24l-288,940.62M898.1,29.6l-288,940.62"/>
          <path class="q" d="M15.6,727.14l513.91,178.35,140.04-17.17,303.85-63.41M22.21,709.97l150.6,56.81,788.7-29.06"/>
        </g>
        <polygon class="n" points="627.27 163.03 676.15 133.97 707.86 128.68 728.99 131.33 740.88 136.61 760.7 149.82 773.91 165.68 781.84 177.56 784.48 219.84 714.46 433.86 670.87 488.02 643.12 506.52 571.78 522.37 520.26 522.37 497.8 506.52 485.91 488.02 480.63 460.28 544.04 305.71 583.67 219.84 627.27 163.03"/>
        <path class="q" d="M467.42,266.08L27.49,37.53M339.27,15.07l144,105.69M-10.82,698.08l79.27-18.49,66.06-42.27L475.34,252.87s-19.82-51.52-15.85-77.94c3.96-26.42,39.63-64.73,54.17-71.34,14.53-6.6,99.08-19.82,99.08-19.82M538.76,967.58l-118.9-507.3,99.08-231.19,93.8-145.32,311.78-59.45M483.57-16.34l228.25,298.27,114.93,35.67,137.39-29.06"/>
        <rect class="j" x="743.57" y="612.55" width="3.25" height="14.01" transform="translate(-65.66 1150.29) rotate(-72.95)"/>
        <polygon class="j" points="742.78 603.55 750.91 606.05 740.73 610.21 739.95 612.78 753.34 616.89 754.28 613.82 746.15 611.33 756.33 607.14 757.11 604.6 743.72 600.49 742.78 603.55"/>
        <g>
          <path class="j" d="M756.44,602.08l-2.01-1.77c1.17-.88,2.26-2.39,2.75-3.99.57-1.84.18-2.77-.64-3.03-2.51-.77-3.17,7.55-8.15,6.02-2.28-.69-3.61-3.12-2.44-6.92.52-1.69,1.45-3.29,2.61-4.29l2.06,1.68c-1.09,1.02-1.83,2.2-2.2,3.39-.56,1.84-.09,2.76.75,3.02,2.47.75,3.16-7.55,8.08-6.05,2.24.69,3.59,3.13,2.41,6.96-.65,2.12-1.94,4.07-3.22,4.98"/>
          <path class="j" d="M755.89,587.55l-7.5-2.3.95-3.1,7.39,2.27c2.54.78,3.94,0,4.51-1.88.58-1.9-.14-3.31-2.68-4.09l-7.39-2.27.94-3.06,7.5,2.3c3.94,1.21,5.43,4.14,4.26,7.95-1.17,3.81-4.04,5.39-7.98,4.19"/>
          <path class="j" d="M757.3,565.21l-.77,2.52,4.67,1.43.77-2.52c.58-1.89,0-3.12-1.46-3.57-1.47-.45-2.63.24-3.21,2.14M769.07,565.64l-4.52,1.44-.05.16-.83,2.69,3.73,1.15-.95,3.1-13.4-4.11,1.78-5.8c1.1-3.59,3.64-5.25,6.64-4.33,2.01.62,3.17,2.08,3.39,4.05l5.23-1.69-1.02,3.33Z"/>
          <path class="j" d="M766.63,548.95l.87-2.83,5.43,1.67c.66,1.82.63,4.02.04,5.94-1.29,4.21-5.13,6.43-9.17,5.19-4.04-1.24-5.98-5.23-4.67-9.49.72-2.36,2.12-4.06,4.03-4.9l1.23,2.55c-1.33.66-2.16,1.64-2.58,3-.8,2.6.4,4.92,2.94,5.7,2.51.77,4.84-.46,5.62-3.03.26-.84.34-1.67.17-2.59l-3.92-1.2Z"/>
        </g>
        <polygon class="j" points="761.89 541.27 775.28 545.38 778.46 535.01 775.97 534.24 773.74 541.53 770.64 540.58 772.54 534.36 770.13 533.62 768.23 539.84 765.32 538.95 767.48 531.91 764.99 531.14 761.89 541.27"/>
        <polygon class="j" points="768.65 519.21 776.78 521.71 766.61 525.88 765.82 528.44 779.21 532.55 780.16 529.49 772.02 526.99 782.21 522.81 782.99 520.26 769.59 516.15 768.65 519.21"/>
        <polygon class="j" points="770.1 514.5 772.62 515.28 773.93 510.99 784.81 514.33 785.76 511.22 774.88 507.89 776.2 503.6 773.68 502.83 770.1 514.5"/>
        <polygon class="j" points="774.18 501.17 787.58 505.29 790.76 494.91 788.28 494.14 786.04 501.44 782.93 500.48 784.84 494.27 782.43 493.53 780.53 499.75 777.62 498.86 779.78 491.81 777.29 491.05 774.18 501.17"/>
        <path class="j" d="M789.87,493.1l-2.01-1.77c1.17-.88,2.26-2.39,2.75-3.99.56-1.84.18-2.77-.64-3.02-2.51-.77-3.18,7.55-8.15,6.02-2.28-.7-3.61-3.11-2.44-6.92.52-1.69,1.45-3.28,2.62-4.29l2.06,1.68c-1.09,1.03-1.83,2.2-2.19,3.39-.57,1.84-.09,2.76.75,3.01,2.47.76,3.15-7.55,8.07-6.05,2.24.69,3.59,3.13,2.41,6.96-.66,2.12-1.94,4.07-3.23,4.98"/>
        <path class="j" d="M795.27,475.49l-2.01-1.77c1.17-.88,2.26-2.39,2.75-3.99.56-1.84.18-2.77-.64-3.02-2.51-.77-3.18,7.55-8.15,6.02-2.28-.7-3.61-3.12-2.44-6.93.52-1.68,1.45-3.28,2.61-4.29l2.06,1.67c-1.09,1.03-1.83,2.2-2.2,3.39-.56,1.84-.09,2.76.75,3.02,2.47.76,3.16-7.55,8.08-6.05,2.24.69,3.58,3.13,2.41,6.96-.65,2.12-1.94,4.07-3.22,4.98"/>
        <path class="j" d="M794.73,460.95l-7.5-2.3.95-3.1,7.38,2.26c2.55.78,3.94,0,4.51-1.88.58-1.9-.14-3.31-2.68-4.09l-7.39-2.27.94-3.06,7.5,2.3c3.94,1.21,5.43,4.14,4.26,7.95-1.17,3.81-4.04,5.4-7.98,4.19"/>
        <path class="j" d="M796.14,438.62l-.77,2.53,4.67,1.43.77-2.53c.58-1.89,0-3.12-1.46-3.57-1.47-.45-2.63.24-3.21,2.13M807.9,439.05l-4.52,1.44-.05.15-.83,2.7,3.73,1.15-.95,3.1-13.4-4.11,1.78-5.8c1.1-3.58,3.64-5.25,6.64-4.33,2.01.62,3.18,2.08,3.39,4.05l5.23-1.68-1.02,3.33Z"/>
        <g>
          <path class="m" d="M107.98,321.27c-.38-7.09,4.79-12.46,12.13-12.85,4.07-.22,7.54,1.08,9.91,3.65l-3.33,3.42c-1.68-1.73-3.71-2.57-6.07-2.44-4.4.23-7.37,3.5-7.13,7.93.24,4.44,3.54,7.37,7.94,7.13,2.36-.13,4.29-1.18,5.77-3.11l3.67,3.04c-2.07,2.84-5.39,4.5-9.5,4.72-7.29.39-13.01-4.39-13.4-11.49"/>
          <path class="m" d="M152.38,318.88c-.24-4.47-3.56-7.36-7.77-7.14-4.2.23-7.2,3.46-6.96,7.93.24,4.47,3.57,7.36,7.77,7.14,4.2-.23,7.2-3.45,6.96-7.93M132.14,319.97c-.37-6.99,4.8-12.46,12.23-12.86,7.4-.39,13.15,4.45,13.53,11.48.38,7.03-4.83,12.47-12.22,12.87-7.43.4-13.16-4.48-13.54-11.48"/>
          <polygon class="m" points="161.39 306.6 162.65 330.13 179.9 329.21 179.66 324.77 167.86 325.4 166.83 306.31 161.39 306.6"/>
          <path class="m" d="M200.7,316.28c-.24-4.47-3.56-7.36-7.77-7.14-4.2.23-7.2,3.46-6.96,7.93.24,4.47,3.57,7.37,7.77,7.14,4.21-.23,7.2-3.45,6.96-7.93M180.46,317.37c-.37-6.99,4.8-12.46,12.22-12.86,7.4-.4,13.15,4.45,13.53,11.48.38,7.03-4.83,12.47-12.22,12.86-7.43.4-13.15-4.49-13.53-11.48"/>
          <polygon class="m" points="225.91 303.13 226.68 317.42 214.21 303.76 209.7 304 210.97 327.54 216.35 327.25 215.58 312.96 228.08 326.62 232.55 326.38 231.29 302.84 225.91 303.13"/>
          <rect class="m" x="237.52" y="302.38" width="5.45" height="23.57" transform="translate(-16.52 13.35) rotate(-3.08)"/>
          <path class="m" d="M258.26,306.75l4.22,8.81-7.47.4,3.25-9.21ZM255.32,301.55l-9.23,24.1,5.58-.3,1.81-5.15,10.93-.59,2.36,4.93,5.72-.31-11.79-22.97-5.38.29Z"/>
          <g>
            <path class="m" d="M110.16,361.64c-.38-7.09,4.8-12.46,12.13-12.86,4.07-.22,7.54,1.08,9.91,3.65l-3.33,3.42c-1.67-1.73-3.71-2.57-6.07-2.44-4.4.23-7.36,3.5-7.12,7.93.24,4.44,3.53,7.37,7.93,7.13,2.36-.13,4.29-1.18,5.77-3.11l3.67,3.04c-2.08,2.85-5.39,4.5-9.5,4.73-7.29.39-13.02-4.39-13.4-11.49"/>
            <path class="m" d="M154.55,359.26c-.24-4.47-3.57-7.36-7.77-7.14-4.2.23-7.2,3.46-6.96,7.93.24,4.47,3.56,7.36,7.77,7.14,4.2-.23,7.2-3.45,6.96-7.93M134.31,360.35c-.38-6.99,4.8-12.46,12.23-12.87,7.39-.39,13.15,4.45,13.53,11.48.38,7.03-4.83,12.47-12.22,12.86-7.43.4-13.16-4.48-13.54-11.48"/>
          </g>
          <polygon class="m" points="179.76 346.1 180.53 360.39 168.06 346.73 163.56 346.97 164.82 370.51 170.21 370.22 169.44 355.93 181.94 369.59 186.41 369.35 185.14 345.81 179.76 346.1"/>
          <path class="m" d="M202.19,364.02c4.67-.25,7.58-3.2,7.34-7.72-.24-4.5-3.46-7.13-8.13-6.88l-4.98.27.79,14.59,4.98-.27ZM190.74,345.51l10.69-.58c7.7-.41,13.23,3.95,13.61,11.07.38,7.13-4.65,12.05-12.35,12.47l-10.69.57-1.27-23.54Z"/>
          <polygon class="m" points="218.53 344.02 219.8 367.56 238.02 366.58 237.78 362.21 224.97 362.9 224.68 357.45 235.61 356.86 235.38 352.62 224.45 353.21 224.18 348.1 236.55 347.44 236.32 343.06 218.53 344.02"/>
          <path class="m" d="M240.39,364.12l1.64-4.2c2.06,1.34,5.07,2.19,7.9,2.04,3.23-.18,4.48-1.32,4.4-2.77-.24-4.4-13.76-.64-14.23-9.38-.21-4,2.84-7.5,9.53-7.86,2.96-.16,6.02.38,8.28,1.65l-1.46,4.22c-2.25-1.13-4.54-1.61-6.62-1.5-3.23.17-4.41,1.45-4.33,2.93.23,4.34,13.76.61,14.22,9.26.21,3.93-2.87,7.47-9.59,7.83-3.73.2-7.56-.71-9.74-2.21"/>
          <path class="m" d="M272.91,346.46l4.21,8.81-7.46.4,3.25-9.21ZM269.97,341.25l-9.23,24.1,5.58-.3,1.82-5.15,10.93-.59,2.36,4.93,5.72-.31-11.79-22.97-5.38.29Z"/>
        </g>
        <g>
          <path class="m" d="M724.9,799.72l-4.22.23.42,7.79,4.22-.23c3.16-.17,4.67-1.72,4.55-4.15-.13-2.46-1.81-3.81-4.97-3.64M730.73,817.59l-4.65-6-.26.02-4.5.24.34,6.23-5.18.28-1.2-22.35,9.68-.52c5.97-.32,9.88,2.57,10.15,7.59.18,3.35-1.38,5.9-4.22,7.31l5.4,6.91-5.56.3Z"/>
          <path class="m" d="M757.19,804.96c-.23-4.25-3.38-6.99-7.38-6.78-3.99.22-6.84,3.28-6.61,7.53.23,4.25,3.39,7,7.38,6.78,3.99-.21,6.84-3.28,6.61-7.53M737.96,805.99c-.36-6.64,4.55-11.84,11.61-12.21,7.02-.38,12.49,4.23,12.85,10.9.36,6.68-4.59,11.84-11.61,12.22-7.06.38-12.5-4.26-12.86-10.91"/>
        </g>
        <polygon class="m" points="786.62 792.17 779.13 806.5 770.02 793.07 765.74 793.3 766.94 815.65 771.8 815.39 771.09 802.26 778.22 812.67 780.55 812.55 786.53 801.14 787.28 814.55 792.14 814.29 790.87 791.94 786.62 792.17"/>
        <path class="m" d="M806.08,796.22l4,8.37-7.09.38,3.09-8.75ZM803.28,791.28l-8.76,22.89,5.3-.29,1.72-4.9,10.38-.56,2.24,4.68,5.43-.29-11.2-21.82-5.11.27Z"/>
        <g>
          <path class="m" d="M829.1,810.1l1.55-3.99c1.96,1.27,4.82,2.08,7.5,1.93,3.07-.16,4.26-1.25,4.18-2.62-.22-4.19-13.07-.61-13.51-8.92-.2-3.8,2.69-7.12,9.04-7.47,2.81-.15,5.72.36,7.87,1.57l-1.39,4.02c-2.14-1.07-4.31-1.54-6.29-1.43-3.07.17-4.18,1.38-4.11,2.78.22,4.12,13.07.58,13.51,8.79.2,3.73-2.73,7.09-9.11,7.44-3.54.19-7.17-.67-9.24-2.1"/>
          <path class="m" d="M850.64,801.28l-.68-12.52,5.18-.28.66,12.33c.23,4.25,2.18,5.9,5.31,5.73,3.16-.17,4.88-2.02,4.66-6.27l-.66-12.32,5.11-.27.68,12.52c.35,6.58-3.22,10.42-9.57,10.76-6.36.34-10.32-3.09-10.67-9.68"/>
          <path class="m" d="M884.95,791.12l-4.22.23.42,7.79,4.22-.23c3.16-.17,4.68-1.72,4.55-4.15-.13-2.46-1.81-3.81-4.97-3.64M890.78,808.99l-4.64-6-.26.02-4.5.24.34,6.23-5.17.28-1.2-22.35,9.68-.52c5.97-.32,9.88,2.57,10.14,7.59.18,3.35-1.38,5.9-4.22,7.31l5.4,6.91-5.56.3Z"/>
        </g>
        <g>
          <polygon class="m" points="252.91 868.37 249.62 890.08 266.43 892.62 267.04 888.59 255.23 886.8 255.99 881.78 266.07 883.3 266.66 879.4 256.58 877.87 257.29 873.15 268.71 874.88 269.32 870.85 252.91 868.37"/>
          <g>
            <path class="m" d="M269.07,890.83l2.28-3.53c1.63,1.61,4.22,2.95,6.83,3.35,2.97.45,4.33-.36,4.54-1.69.61-4.06-12.43-3.18-11.21-11.25.56-3.69,4-6.31,10.17-5.38,2.73.41,5.43,1.49,7.25,3.07l-2.13,3.58c-1.84-1.45-3.83-2.32-5.76-2.61-2.98-.45-4.29.49-4.5,1.85-.61,4,12.43,3.15,11.23,11.12-.55,3.63-4.03,6.27-10.22,5.33-3.45-.52-6.77-2.07-8.46-3.85"/>
            <path class="m" d="M290.52,885.16c.99-6.55,6.73-10.47,13.49-9.44,3.75.56,6.67,2.41,8.35,5.2l-3.68,2.49c-1.2-1.9-2.9-3.04-5.07-3.37-4.07-.62-7.38,1.8-8,5.9-.62,4.09,1.83,7.38,5.9,8,2.17.33,4.13-.27,5.85-1.75l2.78,3.47c-2.43,2.2-5.77,3.09-9.55,2.52-6.73-1.02-11.05-6.46-10.06-13.01"/>
          </g>
          <path class="m" d="M324.37,884.23l2.18,8.83-6.88-1.04,4.7-7.79ZM322.67,878.92l-12.97,20.24,5.15.78,2.63-4.36,10.08,1.53,1.22,4.94,5.27.8-6.42-23.18-4.96-.75Z"/>
          <polygon class="m" points="354.56 883.75 352.57 896.93 343.77 882.12 339.61 881.49 336.33 903.2 341.29 903.95 343.29 890.77 352.11 905.59 356.24 906.21 359.52 884.5 354.56 883.75"/>
          <g>
            <path class="m" d="M371.64,904.33c4.31.65,7.52-1.5,8.15-5.65s-1.8-7.16-6.11-7.81l-4.59-.69-2.04,13.46,4.59.69ZM364.69,885.29l9.86,1.49c7.1,1.08,11.33,6.09,10.33,12.67-1,6.58-6.51,10.12-13.62,9.04l-9.86-1.49,3.29-21.71Z"/>
            <path class="m" d="M403.14,884.73l5.21.79-6.29,3.62-3.79-.58,4.86-3.83ZM405.98,902.64c.63-4.13-1.86-7.39-5.74-7.97-3.88-.59-7.22,1.79-7.84,5.92-.62,4.12,1.86,7.39,5.74,7.97,3.88.59,7.22-1.8,7.84-5.92M387.31,899.81c.98-6.45,6.73-10.47,13.58-9.43,6.82,1.03,11.16,6.54,10.18,13.03-.98,6.48-6.76,10.46-13.58,9.43-6.85-1.03-11.16-6.57-10.18-13.02"/>
          </g>
          <polygon class="m" points="431.46 895.39 429.47 908.57 420.67 893.76 416.51 893.13 413.23 914.84 418.19 915.59 420.18 902.41 429.01 917.22 433.14 917.85 436.42 896.14 431.46 895.39"/>
        </g>
        <path class="j" d="M422.35,757.9c-.14-4.22,2.99-7.35,7.35-7.5,2.42-.08,4.47.73,5.85,2.28l-2.01,2c-.97-1.05-2.18-1.57-3.58-1.52-2.62.09-4.42,1.99-4.33,4.63.09,2.64,2.02,4.42,4.63,4.33,1.4-.05,2.57-.64,3.47-1.77l2.15,1.84c-1.26,1.67-3.25,2.62-5.7,2.7-4.34.15-7.68-2.76-7.82-6.99"/>
        <polygon class="j" points="447.24 750.04 447.43 755.56 441.07 755.78 440.88 750.25 437.63 750.37 438.11 764.37 441.36 764.26 441.16 758.52 447.52 758.3 447.72 764.05 450.96 763.94 450.48 749.93 447.24 750.04"/>
        <rect class="j" x="454.03" y="749.76" width="3.24" height="14.02" transform="translate(-25.49 15.94) rotate(-1.95)"/>
        <polygon class="j" points="460.34 749.59 460.82 763.6 471.08 763.25 470.99 760.61 463.97 760.85 463.59 749.48 460.34 749.59"/>
        <path class="j" d="M481.45,753.96c-.05-1.54-1.09-2.4-3.07-2.34l-2.64.09.16,4.86,2.64-.09c1.98-.07,2.95-1,2.9-2.52M484.73,753.85c.11,3.12-2.16,5.15-5.91,5.27l-2.82.1.13,3.86-3.25.11-.48-14.01,6.06-.21c3.75-.12,6.15,1.74,6.25,4.88"/>
        <path class="j" d="M492.24,751.7l2.41,5.29-4.44.15,2.03-5.44ZM490.55,748.57l-5.77,14.22,3.32-.11,1.13-3.05,6.5-.22,1.35,2.96,3.4-.12-6.74-13.8-3.2.11Z"/>
        <polygon class="j" points="511.1 747.87 511.39 756.38 504.14 748.11 501.46 748.2 501.94 762.2 505.13 762.1 504.85 753.59 512.12 761.86 514.78 761.77 514.31 747.76 511.1 747.87"/>
        <path class="j" d="M516.97,754.68c-.14-4.22,2.99-7.36,7.35-7.5,2.43-.08,4.47.73,5.85,2.29l-2.01,1.99c-.97-1.04-2.18-1.57-3.58-1.52-2.62.09-4.42,1.99-4.33,4.63.09,2.64,2.02,4.42,4.63,4.33,1.4-.05,2.57-.64,3.47-1.78l2.15,1.85c-1.27,1.67-3.25,2.62-5.7,2.7-4.34.15-7.68-2.76-7.82-6.99"/>
        <rect class="j" x="532.5" y="747.09" width="3.25" height="14.02" transform="translate(-25.35 18.61) rotate(-1.95)"/>
        <polygon class="j" points="548.46 746.6 548.75 755.11 541.5 746.84 538.81 746.93 539.29 760.93 542.49 760.83 542.2 752.32 549.48 760.59 552.14 760.5 551.66 746.49 548.46 746.6"/>
        <g>
          <path class="j" d="M564.66,752.84l2.96-.1.19,5.68c-1.5,1.22-3.6,1.91-5.6,1.98-4.4.15-7.75-2.76-7.89-6.98-.14-4.22,3-7.36,7.46-7.51,2.46-.08,4.53.68,5.95,2.22l-2.02,1.99c-1.06-1.05-2.25-1.51-3.67-1.46-2.72.09-4.52,1.98-4.43,4.64.09,2.62,2.01,4.42,4.7,4.33.88-.03,1.69-.22,2.5-.68l-.14-4.1Z"/>
          <path class="j" d="M581.78,752.48c-.09-2.66-2.03-4.42-4.53-4.33-2.5.09-4.32,1.97-4.23,4.63.09,2.67,2.04,4.42,4.54,4.33,2.5-.08,4.32-1.96,4.23-4.63M569.74,752.89c-.14-4.16,2.99-7.36,7.42-7.5,4.4-.15,7.76,2.8,7.91,6.98.14,4.18-3.02,7.36-7.41,7.51-4.43.15-7.77-2.82-7.91-6.98"/>
        </g>
        <path class="j" d="M225.89,800.36l3.86-4.34.34,5.8-4.2-1.45ZM218.8,803.68l3.14,1.09,2.16-2.43,6.15,2.13.19,3.24,3.21,1.12-1.33-15.3-3.02-1.05-10.5,11.19Z"/>
        <polygon class="j" points="238.27 810.44 241.3 811.49 251.62 800.24 248.57 799.17 241.2 807.22 240.46 796.36 237.15 795.21 238.27 810.44"/>
        <g>
          <path class="j" d="M247.33,811.67c.38-1.09,1.44-1.53,2.46-1.18,1.02.36,1.58,1.36,1.2,2.45-.37,1.08-1.45,1.57-2.48,1.22-1.02-.35-1.56-1.41-1.19-2.49"/>
          <path class="j" d="M264.8,807.39l-1.08,3.12,3.05,1.05c1.49.52,2.49.27,2.85-.76.36-1.05-.28-1.84-1.77-2.35l-3.05-1.06ZM268.39,816.48c.39-1.12-.28-1.94-1.87-2.49l-3.58-1.24-1.13,3.27,3.58,1.24c1.59.55,2.61.36,3-.78M271.37,817.87c-.8,2.29-3.07,2.98-6.55,1.78l-6.85-2.38,4.59-13.24,6.47,2.25c3.31,1.15,4.53,3.12,3.82,5.18-.46,1.33-1.49,2.11-2.76,2.3,1.31.98,1.86,2.45,1.29,4.11"/>
        </g>
        <polygon class="j" points="272.42 822.28 282.68 825.84 283.53 823.38 276.32 820.88 277.39 817.82 283.53 819.95 284.36 817.57 278.21 815.44 279.21 812.56 286.17 814.98 287.03 812.52 277.02 809.04 272.42 822.28"/>
        <polygon class="j" points="285.1 826.68 288.13 827.73 290.92 819.7 294.73 830.02 297.25 830.89 301.84 817.65 298.81 816.6 296.02 824.65 292.23 814.32 289.69 813.44 285.1 826.68"/>
        <path class="j" d="M299.09,829.63l2.41-1.45c.39,1.22,1.01,1.98,1.95,2.31,1.23.42,2.13-.09,2.63-1.55l2.19-6.3-4.65-1.62.85-2.46,7.7,2.67-2.98,8.59c-1.14,3.27-3.34,4.31-6.46,3.24-1.78-.62-3.11-1.84-3.64-3.43"/>
        <path class="j" d="M315.65,831.49l3.86-4.34.34,5.8-4.2-1.46ZM308.57,834.82l3.14,1.09,2.16-2.44,6.15,2.13.19,3.25,3.21,1.11-1.33-15.3-3.02-1.05-10.49,11.19Z"/>
        <polygon class="j" points="324.78 840.45 327.66 841.45 330.35 833.67 332.02 841.39 333.4 841.87 339.57 836.68 336.83 844.63 339.71 845.62 344.26 832.37 341.74 831.49 334.01 838.03 331.91 828.09 329.37 827.2 324.78 840.45"/>
        <rect class="j" x="339.65" y="838.99" width="14.02" height="3.25" transform="translate(-561.11 893.14) rotate(-70.9)"/>
        <polygon class="j" points="349.03 848.85 352.05 849.91 354.84 841.87 358.65 852.2 361.17 853.07 365.76 839.83 362.74 838.77 359.95 846.82 356.15 836.49 353.62 835.61 349.03 848.85"/>
        <polygon class="j" points="369.64 856.01 372.71 857.07 374.38 852.24 380.51 854.37 381.36 851.91 375.23 849.79 376.45 846.29 383.39 848.7 384.24 846.23 374.23 842.77 369.64 856.01"/>
        <path class="j" d="M391,851.38l-2.49-.86-1.6,4.62,2.49.86c1.87.66,3.12.11,3.62-1.33.51-1.45-.15-2.63-2.02-3.29M390.15,863.12l-1.27-4.57-.15-.06-2.66-.92-1.28,3.69-3.07-1.06,4.59-13.24,5.73,1.98c3.54,1.23,5.11,3.84,4.08,6.8-.69,1.98-2.2,3.09-4.17,3.23l1.5,5.29-3.29-1.15Z"/>
        <path class="j" d="M400.95,861.08l3.86-4.34.34,5.8-4.2-1.46ZM393.87,864.41l3.14,1.09,2.15-2.44,6.15,2.13.19,3.25,3.21,1.11-1.33-15.29-3.03-1.05-10.49,11.19Z"/>
        <polygon class="j" points="410.08 870.03 413.1 871.08 415.89 863.05 419.71 873.38 422.22 874.24 426.82 861 423.79 859.95 421 867.99 417.21 857.67 414.67 856.79 410.08 870.03"/>
        <polygon class="j" points="425.35 875.33 428.39 876.38 429.55 873.04 431.97 871.81 434.41 878.47 437.98 879.71 434.72 870.36 442.25 866.36 438.85 865.17 430.84 869.33 432.99 863.14 429.94 862.09 425.35 875.33"/>
        <polygon class="j" points="439.33 880.18 449.03 883.55 449.9 881.05 443.26 878.75 446.99 868 443.92 866.94 439.33 880.18"/>
        <polygon class="j" points="450.74 884.13 453.81 885.2 458.4 871.96 455.33 870.89 450.74 884.13"/>
        <polygon class="j" points="456.94 886.29 459.96 887.34 462.75 879.3 466.57 889.63 469.08 890.5 473.67 877.26 470.65 876.2 467.86 884.25 464.07 873.92 461.53 873.05 456.94 886.29"/>
        <path class="j" d="M613.26,150.59l5.67-1.27-3.11,4.91-2.56-3.63ZM605.56,149.16l1.91,2.72,3.17-.72,3.75,5.32-1.74,2.74,1.96,2.78,7.85-13.19-1.85-2.62-15.05,2.96Z"/>
        <polygon class="j" points="617.43 166 619.27 168.62 634.22 165.52 632.36 162.88 621.69 165.1 627.42 155.85 625.41 152.99 617.43 166"/>
        <g>
          <path class="j" d="M624.07,172.3c.95-.67,2.07-.41,2.69.48.62.89.5,2.03-.45,2.7-.93.66-2.1.43-2.72-.45-.62-.88-.45-2.06.49-2.72"/>
          <path class="j" d="M629.93,181.36l2.63-.51c-.03,1.46.5,3.25,1.47,4.62,1.11,1.57,2.08,1.84,2.78,1.34,2.14-1.51-4.02-7.13.24-10.13,1.95-1.38,4.67-.94,6.97,2.32,1.01,1.44,1.7,3.15,1.78,4.69l-2.59.6c-.14-1.49-.62-2.8-1.33-3.81-1.11-1.57-2.12-1.76-2.84-1.26-2.11,1.49,4.04,7.12-.17,10.09-1.92,1.35-4.67.92-6.98-2.35-1.28-1.82-2.03-4.04-1.95-5.6"/>
          <path class="j" d="M648.94,198.59c2.18-1.53,2.58-4.12,1.15-6.16-1.44-2.05-4.02-2.54-6.19-1.01-2.18,1.53-2.58,4.12-1.14,6.17,1.44,2.04,4.01,2.53,6.19,1M642,188.73c3.41-2.4,7.79-1.52,10.34,2.09,2.54,3.6,1.91,8.03-1.51,10.44-3.42,2.41-7.81,1.5-10.34-2.1-2.55-3.62-1.89-8.05,1.51-10.44"/>
        </g>
        <polygon class="j" points="646.49 207.28 648.34 209.91 655.29 205.01 652.36 215.62 653.9 217.8 665.35 209.73 663.51 207.11 656.55 212.01 659.5 201.41 657.95 199.22 646.49 207.28"/>
        <g>
          <path class="j" d="M667.96,225.6c2.18-1.53,2.59-4.12,1.15-6.17-1.44-2.05-4.02-2.53-6.19-1-2.18,1.53-2.58,4.12-1.14,6.16,1.44,2.05,4.01,2.54,6.19,1.01M661.02,215.74c3.41-2.4,7.79-1.51,10.34,2.1,2.54,3.6,1.91,8.03-1.51,10.44-3.42,2.41-7.81,1.51-10.34-2.09-2.55-3.62-1.89-8.05,1.51-10.45"/>
          <path class="j" d="M678.2,232.56l-1.52-2.16-4,2.81,1.52,2.16c1.14,1.62,2.47,1.91,3.72,1.04,1.26-.89,1.42-2.23.28-3.85M670.66,241.6l1.63-4.46-.09-.12-1.62-2.31-3.19,2.25-1.87-2.66,11.46-8.07,3.49,4.96c2.16,3.06,1.91,6.09-.66,7.91-1.72,1.21-3.59,1.24-5.28.2l-1.87,5.16-2.01-2.84Z"/>
        </g>
        <path class="j" d="M680.61,246.25l5.67-1.27-3.11,4.91-2.56-3.63ZM672.92,244.81l1.91,2.72,3.17-.72,3.75,5.32-1.74,2.75,1.96,2.78,7.85-13.2-1.84-2.62-15.05,2.96Z"/>
        <g>
          <path class="j" d="M581.14,85.89l1.78,2.77-2.48.45.7-3.21ZM579.94,84.28l-2.07,8.44,1.85-.33.39-1.8,3.62-.65,1,1.55,1.89-.34-4.9-7.18-1.79.32Z"/>
          <polygon class="j" points="591.31 82.23 589.9 88.24 586.52 83.09 584.57 83.45 589.35 90.65 591.13 90.32 593.1 81.9 591.31 82.23"/>
          <path class="j" d="M594.16,88.74c-.12-.65.29-1.16.89-1.27.6-.11,1.16.23,1.28.88.12.64-.28,1.18-.89,1.29-.6.11-1.16-.26-1.28-.9"/>
          <path class="j" d="M603.21,81.91l1.78,2.77-2.48.45.7-3.21ZM602.01,80.3l-2.07,8.44,1.85-.33.39-1.8,3.62-.65.99,1.55,1.89-.34-4.9-7.18-1.78.32Z"/>
          <polygon class="j" points="608.09 79.2 609.5 87.01 615.22 85.98 614.95 84.5 611.04 85.21 609.9 78.88 608.09 79.2"/>
          <polygon class="j" points="619.98 77.05 618.58 83.07 615.2 77.92 613.24 78.27 618.02 85.47 619.81 85.15 621.78 76.73 619.98 77.05"/>
          <path class="j" d="M625.81,77.83l1.78,2.77-2.48.45.7-3.21ZM624.61,76.22l-2.07,8.43,1.85-.33.39-1.8,3.62-.65.99,1.55,1.89-.34-4.9-7.18-1.78.32Z"/>
          <g>
            <path class="j" d="M634.24,76l-1.47.27.49,2.72,1.47-.27c1.1-.2,1.57-.81,1.41-1.66-.16-.86-.8-1.26-1.91-1.06M637.07,82.03l-1.9-1.9-.09.02-1.57.28.39,2.17-1.81.33-1.41-7.81,3.38-.61c2.09-.38,3.58.47,3.9,2.22.21,1.17-.22,2.14-1.16,2.76l2.2,2.19-1.94.35Z"/>
            <path class="j" d="M645.81,76.43c-.27-1.48-1.5-2.31-2.89-2.06-1.39.25-2.26,1.46-1.99,2.94.27,1.48,1.5,2.31,2.89,2.06,1.39-.25,2.26-1.46,1.99-2.94M639.09,77.64c-.42-2.32,1.08-4.36,3.54-4.81,2.45-.44,4.58.93,5,3.27.42,2.33-1.09,4.36-3.54,4.81-2.46.44-4.58-.95-5-3.27"/>
            <path class="j" d="M658.36,74.16c-.27-1.48-1.5-2.31-2.89-2.06-1.4.25-2.26,1.46-1.99,2.94.27,1.48,1.5,2.31,2.89,2.06,1.39-.25,2.26-1.45,1.99-2.94M651.65,75.37c-.42-2.32,1.08-4.36,3.54-4.81,2.45-.44,4.58.93,5,3.27.42,2.33-1.09,4.37-3.54,4.81-2.46.44-4.58-.95-5-3.27"/>
            <path class="j" d="M667.17,74.21c-.12-.66-.68-.88-1.62-.71l-2.11.38.35,1.93,2.11-.38c.94-.17,1.39-.55,1.27-1.22M662.88,70.72l.33,1.84,1.8-.33c.88-.16,1.31-.56,1.19-1.17-.11-.61-.65-.83-1.53-.67l-1.8.32ZM669.02,74.07c.24,1.35-.69,2.32-2.74,2.7l-4.04.73-1.41-7.81,3.81-.69c1.95-.35,3.1.28,3.32,1.5.14.78-.15,1.45-.73,1.9.92.13,1.6.69,1.78,1.67"/>
            <path class="j" d="M672.9,69.03l-1.47.26.49,2.72,1.47-.26c1.1-.2,1.57-.81,1.42-1.66-.16-.86-.81-1.26-1.91-1.06M675.74,75.06l-1.9-1.9-.09.02-1.57.28.39,2.17-1.81.33-1.41-7.81,3.38-.61c2.09-.38,3.59.47,3.9,2.22.21,1.17-.22,2.14-1.16,2.76l2.2,2.19-1.94.35Z"/>
          </g>
          <polygon class="j" points="677.54 66.67 678.95 74.48 685 73.39 684.74 71.93 680.49 72.7 680.16 70.9 683.79 70.24 683.53 68.84 679.91 69.49 679.6 67.8 683.71 67.05 683.44 65.6 677.54 66.67"/>
          <g>
            <path class="j" d="M690.95,68.15l1.65-.3.57,3.17c-.74.8-1.86,1.36-2.98,1.56-2.45.44-4.56-.91-4.99-3.27-.42-2.35,1.08-4.36,3.57-4.81,1.37-.25,2.59.02,3.51.76l-.97,1.28c-.68-.5-1.39-.66-2.18-.52-1.52.27-2.37,1.48-2.1,2.96.26,1.46,1.49,2.31,2.98,2.04.49-.09.93-.26,1.35-.59l-.41-2.28Z"/>
            <path class="j" d="M697.45,60.76l1.87-.34-1.73,1.97-1.36.25,1.22-1.88ZM700.51,66.56c-.27-1.48-1.5-2.31-2.89-2.06-1.39.25-2.26,1.46-1.99,2.94.27,1.48,1.5,2.31,2.89,2.06,1.39-.25,2.26-1.45,1.99-2.94M693.8,67.77c-.42-2.32,1.08-4.36,3.54-4.81,2.45-.44,4.58.93,5,3.27.42,2.33-1.09,4.37-3.54,4.81-2.46.44-4.58-.95-5-3.27"/>
          </g>
          <polygon class="j" points="708.36 61.11 709.22 65.85 704.48 61.81 702.98 62.08 704.39 69.89 706.18 69.56 705.32 64.82 710.07 68.86 711.55 68.59 710.14 60.79 708.36 61.11"/>
        </g>
        <polygon class="m" points="565.05 693.95 565.39 696.03 568.93 695.45 570.39 704.41 572.95 704 571.49 695.04 575.02 694.46 574.68 692.38 565.05 693.95"/>
        <polygon class="m" points="576.06 692.15 577.86 703.2 585.96 701.88 585.62 699.79 580.07 700.7 578.61 691.73 576.06 692.15"/>
        <path class="m" d="M590.82,692.31l2.44,3.95-3.51.57,1.07-4.52ZM589.16,690.01l-3.12,11.85,2.62-.43.59-2.53,5.13-.84,1.36,2.21,2.69-.44-6.75-10.24-2.53.41Z"/>
        <polygon class="m" points="604.1 687.57 602.19 691.57 599.06 688.39 596.15 688.87 600.93 693.66 597.75 699.95 600.69 699.47 602.68 695.21 605.98 698.61 608.93 698.13 603.88 693.09 606.86 687.12 604.1 687.57"/>
        <path class="m" d="M608.3,692.56c-.54-3.33,1.62-6.13,5.06-6.69,1.91-.31,3.62.12,4.87,1.22l-1.39,1.79c-.88-.73-1.89-1.02-2.99-.84-2.07.34-3.3,2.03-2.96,4.11.34,2.09,2.04,3.3,4.11,2.96,1.1-.18,1.96-.77,2.57-1.76l1.89,1.24c-.83,1.45-2.31,2.41-4.24,2.72-3.43.56-6.37-1.41-6.91-4.74"/>
        <path class="m" d="M624.58,686.81l2.44,3.94-3.5.57,1.07-4.51ZM622.91,684.5l-3.12,11.85,2.62-.43.59-2.53,5.13-.84,1.37,2.21,2.68-.44-6.75-10.24-2.52.41Z"/>
        <polygon class="m" points="631.54 683.09 633.35 694.14 641.44 692.82 641.1 690.74 635.56 691.64 634.1 682.68 631.54 683.09"/>
        <path class="m" d="M646.31,683.26l2.44,3.94-3.51.58,1.07-4.52ZM644.65,680.95l-3.12,11.85,2.62-.43.59-2.53,5.13-.84,1.37,2.21,2.68-.44-6.75-10.24-2.53.41Z"/>
        <path class="j" d="M499.35,409.01l5.81.02-1.71,4.1-4.1-4.12ZM497.04,406.29l-1.24,2.96,10.53,11.16,1.28-3.07-2.3-2.3,2.51-6.01h3.25s1.31-3.13,1.31-3.13l-15.35.38Z"/>
        <polygon class="j" points="505.05 387.09 511.1 395.21 501.04 396.7 500.01 399.17 512.94 404.57 514.12 401.77 506.52 398.59 514.33 397.41 514.89 396.06 510.09 389.58 517.85 392.8 519.03 390 506.08 384.63 505.05 387.09"/>
        <path class="j" d="M518.6,387.43l-1.83-1.95c1.25-.76,2.48-2.16,3.13-3.71.74-1.77.45-2.74-.34-3.07-2.42-1.01-3.9,7.2-8.7,5.2-2.2-.92-3.29-3.46-1.75-7.13.68-1.62,1.76-3.12,3.01-4.01l1.89,1.88c-1.18.91-2.03,2.01-2.52,3.16-.74,1.77-.36,2.74.45,3.07,2.38,1,3.88-7.21,8.62-5.23,2.16.9,3.27,3.47,1.72,7.16-.85,2.05-2.33,3.87-3.7,4.64"/>
        <polygon class="j" points="511.6 371.41 514.04 372.43 515.76 368.29 526.26 372.68 527.51 369.68 517.01 365.3 518.75 361.16 516.3 360.14 511.6 371.41"/>
        <polygon class="j" points="516.97 358.55 529.9 363.95 534.08 353.94 531.68 352.94 528.74 359.97 525.75 358.72 528.26 352.72 525.93 351.75 523.42 357.75 520.62 356.58 523.45 349.78 521.05 348.78 516.97 358.55"/>
        <g>
          <path class="j" d="M526.85,341.76l-1.02,2.44,4.51,1.88,1.02-2.44c.76-1.83.3-3.11-1.11-3.7-1.42-.59-2.64-.02-3.4,1.81M538.51,343.33l-4.64.99-.06.15-1.09,2.6,3.6,1.51-1.25,2.99-12.93-5.4,2.34-5.6c1.44-3.46,4.14-4.86,7.04-3.66,1.94.81,2.95,2.38,2.97,4.37l5.37-1.17-1.34,3.21Z"/>
          <path class="j" d="M540.67,331.25c1.07-2.57.24-4.89-2.23-5.92-2.47-1.03-4.71,0-5.78,2.58l-1.14,2.73,8.01,3.35,1.14-2.73ZM527.8,332.61l2.45-5.88c1.77-4.23,5.53-6.07,9.44-4.43,3.92,1.64,5.25,5.6,3.49,9.83l-2.45,5.88-12.93-5.4Z"/>
        </g>
        <path class="j" d="M539.34,313.25l5.81.02-1.72,4.1-4.09-4.12ZM537.02,310.52l-1.24,2.96,10.52,11.16,1.28-3.07-2.29-2.3,2.51-6h3.25s1.31-3.13,1.31-3.13l-15.34.38Z"/>
        <polygon class="j" points="545.03 291.32 551.08 299.45 541.02 300.93 539.99 303.41 552.92 308.81 554.1 306 546.51 302.83 554.31 301.64 554.87 300.29 550.07 293.82 557.84 297.04 559.01 294.23 546.06 288.87 545.03 291.32"/>
        <path class="f" d="M597.34,422.94c-1.42-.59-2.64-.01-3.4,1.82l-1.02,2.44,4.49,1.87,1.02-2.44c.77-1.83.32-3.1-1.08-3.69M598.6,419.91c2.89,1.2,3.78,4.11,2.33,7.57l-1.09,2.6,3.56,1.49-1.25,3-12.93-5.4,2.34-5.6c1.44-3.46,4.14-4.86,7.04-3.65"/>
        <path class="f" d="M599.76,412.18l5.81.02-1.71,4.1-4.1-4.12ZM597.45,409.46l-1.23,2.96,10.53,11.16,1.28-3.07-2.29-2.3,2.5-6h3.25s1.31-3.13,1.31-3.13l-15.35.38Z"/>
        <g>
          <path class="f" d="M605.13,397.93l-1.02,2.44,4.51,1.88,1.02-2.44c.77-1.83.3-3.11-1.11-3.7-1.42-.59-2.64-.02-3.4,1.81M616.8,399.51l-4.65.99-.06.15-1.09,2.61,3.6,1.5-1.25,2.99-12.93-5.4,2.34-5.6c1.44-3.46,4.14-4.87,7.04-3.66,1.94.81,2.95,2.38,2.97,4.37l5.37-1.17-1.34,3.21Z"/>
          <path class="f" d="M619.31,386.95c.97-2.31,0-4.75-2.45-5.77-2.46-1.02-4.86.01-5.83,2.32-.97,2.31,0,4.75,2.45,5.77,2.46,1.03,4.86,0,5.83-2.32M626.24,380.77c.68,1.29.73,2.73.13,4.16-.81,1.92-2.07,2.98-5.01,4.09-1.92,3.36-5.65,4.73-9.16,3.27-3.84-1.61-5.44-5.78-3.73-9.87,1.7-4.06,5.78-5.89,9.64-4.29,3.03,1.27,4.65,4.14,4.39,7.26.93-.35,1.4-.81,1.67-1.46.33-.79.31-1.62-.08-2.5l2.14-.67Z"/>
          <path class="f" d="M619.79,376.34l-7.25-3.02,1.25-2.99,7.14,2.98c2.45,1.03,3.92.38,4.67-1.43.77-1.83.19-3.31-2.27-4.33l-7.14-2.98,1.24-2.96,7.25,3.03c3.8,1.59,5,4.65,3.46,8.32-1.54,3.68-4.55,4.98-8.36,3.39"/>
        </g>
        <polygon class="f" points="618.66 358.66 631.6 364.06 635.78 354.05 633.38 353.05 630.44 360.08 627.45 358.83 629.95 352.83 627.62 351.86 625.12 357.86 622.31 356.69 625.15 349.89 622.74 348.89 618.66 358.66"/>
        <polygon class="f" points="631.06 328.97 637.11 337.09 627.05 338.58 626.01 341.06 638.95 346.46 640.12 343.65 632.53 340.48 640.33 339.29 640.9 337.94 636.1 331.47 643.86 334.69 645.03 331.88 632.08 326.52 631.06 328.97"/>
        <path class="f" d="M633.37,323.43l12.94,5.4,4.18-10.01-2.4-1-2.94,7.04-2.99-1.25,2.51-6-2.33-.97-2.51,6-2.81-1.17,2.84-6.8-2.4-1-4.09,9.78ZM632.04,316.17l1.62,3.6.94-2.25-1.26-4.46-1.3,3.11Z"/>
        <polygon class="f" points="641.85 303.12 644.83 307.79 639.39 309.02 637.97 312.41 646.23 310.52 650.8 318.06 652.24 314.62 649.03 309.68 654.82 308.43 656.26 304.97 647.57 307.01 643.2 299.89 641.85 303.12"/>
        <rect class="f" x="649.29" y="292.6" width="3.24" height="14.02" transform="translate(123.72 784.91) rotate(-67.35)"/>
        <g>
          <path class="f" d="M652.48,295.87c-3.9-1.63-5.44-5.78-3.75-9.81.93-2.24,2.52-3.76,4.51-4.37l.97,2.66c-1.36.45-2.33,1.33-2.88,2.62-1.01,2.42-.02,4.85,2.41,5.86,2.45,1.02,4.86,0,5.87-2.41.54-1.29.48-2.6-.17-3.89l2.57-1.18c.99,1.84,1.02,4.05.08,6.3-1.67,4.01-5.72,5.84-9.61,4.21"/>
          <path class="f" d="M662.65,271.49c-2.46-1.02-4.87.01-5.83,2.32-.96,2.31,0,4.75,2.45,5.78,2.46,1.03,4.86-.01,5.83-2.32.96-2.31,0-4.75-2.45-5.77M658.01,282.61c-3.84-1.6-5.44-5.78-3.73-9.87,1.7-4.06,5.78-5.9,9.64-4.29,3.86,1.61,5.43,5.8,3.73,9.87-1.7,4.09-5.8,5.89-9.64,4.28"/>
          <path class="f" d="M483.09,181.66c-1.31-.81-2.6-.44-3.65,1.25l-1.39,2.24,4.13,2.56,1.39-2.24c1.05-1.69.81-3.01-.48-3.81M484.82,178.88c2.66,1.65,3.07,4.66,1.1,7.84l-1.49,2.39,3.28,2.03-1.71,2.76-11.91-7.39,3.2-5.16c1.98-3.18,4.86-4.15,7.53-2.49"/>
        </g>
        <path class="f" d="M487.2,171.43l5.73.94-2.34,3.78-3.39-4.72ZM483.66,171.1l8.63,12.7,1.75-2.82-1.9-2.64,3.42-5.53,3.21.53,1.79-2.89-15.22-2.06-1.69,2.72Z"/>
        <g>
          <path class="f" d="M494.76,158.21l-1.39,2.25,4.16,2.57,1.39-2.24c1.05-1.69.79-3.02-.51-3.83-1.31-.81-2.6-.43-3.65,1.25M506.02,161.62l-4.74.24-.08.14-1.49,2.39,3.32,2.06-1.71,2.76-11.91-7.39,3.2-5.16c1.97-3.18,4.86-4.15,7.53-2.49,1.79,1.11,2.54,2.82,2.24,4.78l5.48-.3-1.84,2.96Z"/>
          <path class="f" d="M510.5,149.62c1.32-2.12.76-4.69-1.5-6.09-2.27-1.4-4.81-.76-6.12,1.36-1.32,2.12-.76,4.69,1.5,6.09,2.26,1.4,4.8.76,6.12-1.36M518.33,144.63c.47,1.38.28,2.81-.53,4.12-1.09,1.77-2.52,2.61-5.59,3.24-2.43,3.02-6.32,3.78-9.56,1.78-3.54-2.19-4.45-6.57-2.12-10.34,2.32-3.74,6.64-4.9,10.2-2.7,2.8,1.73,3.94,4.82,3.18,7.87.97-.2,1.51-.57,1.88-1.17.45-.73.57-1.55.32-2.48l2.22-.32Z"/>
          <path class="f" d="M512.66,139.22l-6.68-4.14,1.71-2.76,6.57,4.08c2.26,1.4,3.8,1,4.84-.67,1.05-1.69.71-3.24-1.55-4.64l-6.57-4.07,1.69-2.72,6.68,4.14c3.5,2.17,4.2,5.38,2.1,8.77-2.1,3.39-5.28,4.19-8.78,2.02"/>
        </g>
        <polygon class="f" points="514.35 121.59 526.27 128.98 531.99 119.75 529.77 118.38 525.75 124.86 523 123.15 526.43 117.63 524.28 116.29 520.85 121.82 518.27 120.22 522.15 113.96 519.94 112.59 514.35 121.59"/>
        <polygon class="f" points="494.49 199.17 506.41 206.56 512.13 197.33 509.91 195.96 505.89 202.45 503.14 200.73 506.57 195.21 504.42 193.88 500.99 199.41 498.41 197.81 502.29 191.54 500.07 190.17 494.49 199.17"/>
        <g>
          <path class="f" d="M511.72,195.36l-1.49-2.22c1.36-.55,2.79-1.73,3.68-3.16,1.01-1.63.88-2.64.15-3.09-2.23-1.38-4.99,6.5-9.42,3.75-2.03-1.25-2.69-3.93-.59-7.32.93-1.5,2.24-2.81,3.62-3.48l1.56,2.15c-1.31.72-2.33,1.66-2.98,2.72-1.01,1.64-.79,2.65-.04,3.11,2.19,1.36,4.97-6.5,9.34-3.79,1.99,1.24,2.67,3.94.56,7.34-1.17,1.89-2.91,3.44-4.39,3.99"/>
          <path class="f" d="M517.28,172.06c-1.3-.81-2.6-.43-3.64,1.25l-1.4,2.25,4.13,2.56,1.4-2.25c1.04-1.68.81-3.01-.49-3.81M519.01,169.27c2.66,1.65,3.07,4.66,1.1,7.84l-1.49,2.4,3.28,2.03-1.71,2.76-11.91-7.38,3.2-5.16c1.97-3.18,4.86-4.15,7.53-2.49"/>
        </g>
        <path class="f" d="M521.39,161.83l5.73.94-2.34,3.78-3.39-4.72ZM517.85,161.5l8.62,12.69,1.75-2.82-1.9-2.64,3.43-5.53,3.21.53,1.79-2.89-15.21-2.06-1.69,2.73Z"/>
        <path class="f" d="M530.38,141.3l11.91,7.38-1.4,2.26-10.91,1.46,7.23,4.48-1.69,2.72-11.91-7.39,1.41-2.28,10.91-1.44-7.23-4.48,1.69-2.72ZM524.76,148.04l-.83,1.34c-1.5-.97-1.99-2.34-1.25-3.53.73-1.17,2.19-1.09,2.57-1.71.29-.46.12-1-.41-1.39l.84-1.34c1.44.95,1.94,2.31,1.2,3.5-.73,1.18-2.16,1.11-2.55,1.72-.29.46-.15.99.45,1.41"/>
        <path class="f" d="M537.98,135.07l5.74.94-2.34,3.78-3.39-4.72ZM534.44,134.74l8.62,12.7,1.75-2.83-1.9-2.63,3.43-5.53,3.21.52,1.79-2.89-15.21-2.06-1.69,2.72Z"/>
        <path class="m" d="M492.16,642.64l2.44,3.94-3.5.57,1.07-4.51ZM490.5,640.33l-3.12,11.85,2.62-.43.59-2.53,5.12-.83,1.37,2.21,2.69-.44-6.75-10.24-2.52.41Z"/>
        <g>
          <path class="m" d="M507.31,643.08l2.34-.38.73,4.48c-1.07,1.11-2.66,1.88-4.24,2.14-3.47.57-6.41-1.4-6.96-4.73-.55-3.33,1.62-6.13,5.14-6.71,1.94-.32,3.66.09,4.93,1.16l-1.39,1.78c-.94-.72-1.94-.96-3.05-.78-2.15.35-3.38,2.03-3.04,4.12.34,2.07,2.04,3.29,4.16,2.95.7-.11,1.32-.34,1.91-.8l-.53-3.23Z"/>
          <path class="m" d="M512.06,643.16l-1.01-6.19,2.56-.42,1,6.09c.34,2.1,1.4,2.82,2.94,2.57,1.56-.26,2.32-1.27,1.98-3.37l-.99-6.09,2.52-.42,1.01,6.19c.53,3.25-1.04,5.36-4.18,5.87-3.14.51-5.3-.98-5.83-4.23"/>
        </g>
        <path class="m" d="M528.49,636.71l2.44,3.95-3.5.57,1.07-4.52ZM526.83,634.4l-3.12,11.85,2.62-.43.59-2.53,5.13-.84,1.37,2.21,2.68-.44-6.75-10.24-2.52.41Z"/>
        <g>
          <path class="m" d="M536.22,643.1l.55-2.07c1.04.52,2.51.77,3.83.55,1.52-.25,2.05-.85,1.94-1.53-.34-2.07-6.53.4-7.2-3.7-.31-1.88.95-3.7,4.09-4.21,1.39-.23,2.86-.12,3.99.35l-.47,2.07c-1.12-.42-2.23-.53-3.2-.37-1.52.25-2.01.92-1.9,1.61.33,2.03,6.52-.42,7.19,3.64.3,1.85-.97,3.68-4.13,4.19-1.75.28-3.6.05-4.7-.54"/>
          <path class="m" d="M545.74,636.99c-.55-3.33,1.62-6.13,5.06-6.7,1.91-.31,3.62.13,4.86,1.22l-1.39,1.79c-.88-.73-1.89-1.02-2.99-.84-2.07.34-3.3,2.03-2.96,4.11.34,2.09,2.05,3.29,4.11,2.96,1.11-.18,1.96-.77,2.57-1.76l1.88,1.24c-.83,1.45-2.31,2.41-4.24,2.72-3.42.56-6.37-1.41-6.91-4.74"/>
        </g>
        <path class="m" d="M562.01,631.23l2.44,3.95-3.5.57,1.06-4.52ZM560.35,628.93l-3.12,11.85,2.62-.43.59-2.53,5.13-.83,1.37,2.21,2.68-.44-6.75-10.24-2.53.41Z"/>
        <polygon class="m" points="568.97 627.52 570.78 638.57 578.87 637.25 578.54 635.17 572.99 636.07 571.53 627.11 568.97 627.52"/>
        <rect class="m" x="579.4" y="625.69" width="2.59" height="11.19" transform="translate(-94.2 101.9) rotate(-9.28)"/>
        <polygon class="m" points="583.69 625.13 585.49 636.17 594.05 634.77 593.71 632.72 587.7 633.7 587.28 631.15 592.41 630.31 592.08 628.32 586.96 629.16 586.57 626.76 592.37 625.82 592.04 623.76 583.69 625.13"/>
        <polygon class="m" points="601.89 622.15 602.99 628.86 596.4 623.05 594.28 623.39 596.09 634.44 598.61 634.03 597.52 627.32 604.12 633.13 606.22 632.79 604.42 621.74 601.89 622.15"/>
        <polygon class="m" points="605.79 621.52 606.14 623.6 609.67 623.02 611.13 631.99 613.69 631.57 612.23 622.61 615.77 622.03 615.43 619.95 605.79 621.52"/>
        <polygon class="m" points="616.8 619.72 618.61 630.77 627.16 629.37 626.82 627.32 620.81 628.3 620.4 625.75 625.52 624.91 625.2 622.92 620.07 623.76 619.68 621.36 625.48 620.41 625.15 618.36 616.8 619.72"/>
        <path class="m" d="M628.15,628.09l.55-2.07c1.04.52,2.51.77,3.83.55,1.52-.25,2.05-.86,1.94-1.53-.34-2.07-6.53.4-7.2-3.7-.31-1.88.95-3.7,4.1-4.21,1.39-.23,2.86-.12,3.99.35l-.47,2.07c-1.12-.42-2.23-.53-3.2-.37-1.52.25-2.01.91-1.89,1.61.33,2.04,6.52-.41,7.19,3.64.3,1.85-.97,3.68-4.13,4.19-1.75.29-3.6.05-4.7-.54"/>
        <g>
          <path class="g" d="M705.9,560.6c3.15-.82,6.06-2.08,8.8-3.7,3.27-1.93,6.14-4.37,8.65-7.27,2.76-3.19,4.9-6.71,6.32-10.62,1.36-3.72,2.32-7.58,1.94-11.63-.14-1.73.21-3.5-.26-5.21-.51-1.85-.82-3.73-1.46-5.56-1.01-2.91-2.32-5.62-4.05-8.16-2.04-3-4.5-5.59-7.34-7.86-2.3-1.85-4.84-3.31-7.48-4.55-1.71-.81-3.56-1.36-5.42-1.87-2.74-.75-5.51-1.19-8.32-1.31-3.76-.16-7.43.43-11.09,1.38-3.54.92-6.8,2.4-9.84,4.3-3.99,2.49-7.35,5.76-10.01,9.66-2.97,4.34-4.85,9.14-5.69,14.35-.4,2.48-.18,4.97-.21,7.45-.03,2.12.52,4.18,1.07,6.21.54,1.98,1.28,3.89,2.15,5.76,1.18,2.52,2.7,4.82,4.45,6.96,2.87,3.52,6.34,6.29,10.3,8.54,3.22,1.83,6.65,3.09,10.22,3.77M695.36,641.91c-3.14-4.46-6.27-8.8-9.22-13.26-2.22-3.35-4.41-6.73-6.66-10.05-2.16-3.19-4.25-6.43-6.3-9.68-2.09-3.31-4.16-6.65-6.15-10.03-2.07-3.51-4.18-7-6.19-10.55-2.47-4.37-4.91-8.75-7.19-13.22-1.28-2.51-2.6-5.02-3.83-7.56-1.68-3.46-3.21-6.99-4.67-10.54-1.1-2.66-2.13-5.34-3.01-8.07-1.2-3.71-2.33-7.44-2.9-11.32-.91-6.18-.9-12.29.16-18.48.81-4.74,2.28-9.23,4.26-13.54,1.85-4.03,4.28-7.75,7.11-11.2,2.43-2.96,5.11-5.68,8.04-8.11,2.9-2.4,6.02-4.49,9.38-6.23,2.22-1.15,4.45-2.28,6.79-3.13,2.7-.98,5.46-1.77,8.26-2.42,4.41-1.03,8.88-1.19,13.38-1.17,3.27.02,6.54.13,9.74.83,1.98.43,3.99.76,5.91,1.47,1.86.68,3.82,1.13,5.64,1.89,1.97.81,3.86,1.83,5.74,2.82,2.66,1.4,5.19,3.05,7.54,4.91,3.52,2.79,6.75,5.91,9.57,9.45,1.79,2.24,3.42,4.57,4.83,7.05,1.44,2.53,2.71,5.16,3.71,7.92.84,2.33,1.6,4.68,2.16,7.08,1.12,4.83,1.56,9.73,1.21,14.68-.16,2.22.14,4.46-.38,6.66-.69,2.95-1.33,5.9-2.23,8.8-1.59,5.1-3.57,10.03-5.76,14.9-1.35,3-2.79,5.95-4.26,8.89-1.84,3.7-3.82,7.32-5.81,10.94-1.66,3.01-3.42,5.97-5.1,8.96-1.96,3.47-4.06,6.84-6.1,10.26-1.98,3.33-4.15,6.56-6.25,9.82-1.76,2.73-3.5,5.48-5.3,8.18-1.57,2.35-3.21,4.64-4.82,6.96-1.2,1.74-2.39,3.5-3.59,5.24-1.52,2.19-3.04,4.39-4.58,6.56-1,1.42-2.05,2.81-3.13,4.29"/>
          <path class="g" d="M695.67,570.59c22.64,0,40.99-18.35,40.99-40.99s-18.35-40.99-40.99-40.99-40.99,18.35-40.99,40.99,18.35,40.99,40.99,40.99"/>
          <path class="p" d="M695.67,570.59c22.64,0,40.99-18.35,40.99-40.99s-18.35-40.99-40.99-40.99-40.99,18.35-40.99,40.99,18.35,40.99,40.99,40.99Z"/>
          <path class="k" d="M723.13,529.08c-.91,0-1.74.49-2.16,1.27-.65,1.19-.21,2.67.98,3.32.36.19.76.3,1.16.3.87,0,1.69-.47,2.12-1.22l.03-.05c.31-.57.38-1.23.2-1.86-.18-.63-.6-1.14-1.18-1.46-.35-.19-.75-.29-1.16-.29M723.11,536.73c-.86,0-1.72-.22-2.48-.63-2.52-1.37-3.46-4.54-2.09-7.07.92-1.68,2.68-2.72,4.58-2.72.86,0,1.72.22,2.49.64,1.22.67,2.11,1.77,2.51,3.1.39,1.33.24,2.74-.42,3.97-.02.04-.04.08-.06.11-.93,1.61-2.66,2.61-4.52,2.61"/>
          <path class="k" d="M683.3,525.52c-.91,0-1.74.49-2.16,1.27-.65,1.19-.21,2.67.98,3.32.36.19.76.3,1.16.3.87,0,1.69-.47,2.12-1.22l.03-.05c.31-.57.38-1.23.2-1.86-.18-.63-.6-1.14-1.18-1.46-.35-.19-.75-.29-1.16-.29M683.28,533.17c-.86,0-1.72-.22-2.48-.63-2.52-1.37-3.46-4.54-2.09-7.07.92-1.68,2.68-2.72,4.58-2.72.86,0,1.72.22,2.49.64,1.22.67,2.11,1.77,2.51,3.1.39,1.33.24,2.74-.42,3.97-.02.04-.04.08-.06.11-.93,1.61-2.66,2.61-4.52,2.61"/>
        </g>
        <path class="l" d="M687.53,518.51l-1.79-3.99-1.8,3.99h3.59ZM688.15,519.89h-4.83l-.7,1.55h-1.74l4.8-10.42h.09l4.8,10.42h-1.73l-.7-1.55Z"/>
        <polygon class="l" points="696.85 512.82 694.11 512.82 694.11 521.44 692.5 521.44 692.5 512.82 689.77 512.82 689.77 511.23 696.85 511.23 696.85 512.82"/>
        <polygon class="k" points="664.7 522.81 667.63 522.81 669.04 527.48 671.13 522.83 671.33 522.83 673.42 527.47 674.83 522.81 677.76 522.81 674.35 533.08 673.61 533.08 671.22 528.04 668.85 533.08 668.11 533.08 664.7 522.81"/>
        <g>
          <path class="k" d="M692.47,527.34h1.11c.58.01,1.1-.39,1.1-1.02s-.53-1.03-1.1-1.03h-1.11v2.05ZM695.21,533.07l-2.73-4.43v4.43h-2.71v-10.21s3.86,0,3.86,0c2.2,0,3.78,1.49,3.78,3.32,0,1.27-.77,2.34-1.77,2.79l2.74,4.1h-3.17Z"/>
          <path class="l" d="M646.98,542.87l1.27-.91c.46.8,1.3,1.25,2.29,1.25,1.15,0,2.01-.55,2.01-1.33,0-.94-1.34-1.51-2.53-2.03-1.2-.53-2.53-1.15-2.53-2.75s1.45-2.84,3.29-2.84c1.46,0,2.55.7,2.96,1.82l-1.19.82c-.32-.69-1.02-1.08-1.76-1.08-.94,0-1.68.58-1.68,1.3,0,.8.94,1.08,2.18,1.61,1.61.71,2.87,1.49,2.87,3.1,0,1.81-1.57,2.98-3.64,2.98-1.68,0-2.95-.79-3.53-1.96"/>
          <path class="l" d="M660.93,537.81c0-.98-.89-1.77-1.99-1.77h-1.81v3.49h1.81c1.1.01,1.99-.77,1.99-1.72M655.53,534.45h3.41c1.98,0,3.59,1.51,3.59,3.37s-1.61,3.3-3.59,3.3h-1.81v3.54h-1.6v-10.21Z"/>
        </g>
        <polygon class="l" points="671.42 534.45 671.42 544.66 669.82 544.66 669.82 540.35 665.4 540.35 665.4 544.66 663.8 544.66 663.8 534.45 665.4 534.45 665.4 538.76 669.82 538.76 669.82 534.45 671.42 534.45"/>
        <polygon class="l" points="674.99 536.03 674.99 538.65 678.85 538.65 678.85 540.24 674.99 540.24 674.99 543.07 679.46 543.07 679.46 544.66 673.38 544.66 673.38 534.45 679.46 534.45 679.46 536.03 674.99 536.03"/>
        <path class="l" d="M684.34,539.38c.96,0,1.77-.77,1.77-1.68s-.82-1.65-1.77-1.65h-1.61v3.34h1.61ZM686.74,544.66l-2.75-3.95h-1.25v3.95h-1.6v-10.21s3.17,0,3.17,0c1.9,0,3.46,1.46,3.46,3.28,0,1.32-.85,2.46-2.02,2.84l2.97,4.08h-1.97Z"/>
        <polygon class="l" points="691.39 536.03 691.39 538.65 695.25 538.65 695.25 540.24 691.39 540.24 691.39 543.07 695.86 543.07 695.86 544.66 689.79 544.66 689.79 534.45 695.86 534.45 695.86 536.03 691.39 536.03"/>
        <path class="k" d="M743.49,536.03c-.25.45-.71.72-1.22.72-.23,0-.46-.06-.66-.17-.32-.18-.56-.47-.67-.82-.1-.36-.06-.73.11-1.05l.02-.03c.25-.43.71-.69,1.2-.69.23,0,.46.06.66.17.32.18.56.47.67.82.1.35.07.73-.11,1.05M732.74,528.68c.76,2.57.47,5.28-.81,7.64-1.27,2.35-3.4,4.07-5.97,4.83-.93.28-1.89.42-2.86.42-1.66,0-3.31-.42-4.78-1.23-2.35-1.28-4.07-3.4-4.83-5.98-.76-2.57-.47-5.28.81-7.64,1.27-2.35,3.39-4.07,5.97-4.83.93-.28,1.89-.42,2.85-.42,1.66,0,3.31.42,4.78,1.23,2.35,1.28,4.07,3.4,4.83,5.97M721.06,551.2c-.25.45-.71.72-1.22.72-.23,0-.46-.06-.66-.17-.32-.18-.56-.47-.67-.82-.1-.35-.07-.73.11-1.05l.02-.03c.24-.43.71-.69,1.2-.69.23,0,.46.06.66.17.32.18.56.47.67.82.1.35.06.73-.11,1.05M725.56,512.22c.24-.43.7-.69,1.2-.69.23,0,.46.06.66.17.32.18.56.47.66.82.1.35.06.73-.11,1.05-.25.45-.71.72-1.22.72-.23,0-.46-.06-.66-.17-.32-.18-.56-.47-.66-.82s-.07-.73.11-1.05l.02-.03ZM746.2,534.21c-.31-1.05-1.01-1.91-1.97-2.43-.08-.04-.16-.08-.24-.12-.01-1.9-.29-3.81-.84-5.69-1.2-4.08-3.58-7.59-6.82-10.19-.73-.58-1.49-1.12-2.3-1.6l-4.42,5.95h0s-.19.25-.19.25c-.06-.03-.11-.07-.17-.1-1.87-1.02-3.98-1.56-6.11-1.56-3.89,0-7.51,1.75-9.91,4.69l-3.68-2.58c2.25-2.88,5.34-4.99,8.93-6.06,1.43-.42,2.89-.66,4.36-.72,0,0,0,.02,0,.03.31,1.05,1.01,1.91,1.97,2.43.6.33,1.27.5,1.95.5,1.46,0,2.82-.78,3.55-2.04.02-.03.03-.06.05-.09.52-.96.64-2.07.33-3.11-.31-1.05-1.01-1.91-1.97-2.43-.6-.33-1.27-.5-1.95-.5-.39,0-.78.06-1.16.17-1.04.31-1.9,1-2.43,1.97-.05.1-.1.2-.15.3-6.62.16-12.7,3.47-16.41,8.85-.04.06-.08.11-.12.17-.04.06-.09.13-.13.19-.03.05-.06.09-.09.14-1.41,2.18-3.11,4.59-3.98,5.81v-3.56h-2.7v10.21h2.7v-3.88l2.58,3.88h3.29l-3.46-5.19,3.24-4.75,3.74,2.63c-1.48,2.92-1.79,6.24-.85,9.39.74,2.51,2.2,4.69,4.19,6.3l-2.99,3.87c-2.63-2.21-4.56-5.15-5.56-8.53-.23-.77-.4-1.55-.52-2.34h-2.81c.14,1.05.36,2.09.66,3.12,1.16,3.94,3.43,7.37,6.52,9.94.71.59,1.47,1.13,2.26,1.63l4.42-5.7.37-.48c1.77.88,3.73,1.35,5.7,1.35,3.71,0,7.21-1.61,9.61-4.32l4.35,3.2c-2.21,2.64-5.15,4.57-8.54,5.57-1.54.46-3.12.7-4.71.73-.01-.04-.02-.08-.03-.12-.31-1.05-1.01-1.91-1.97-2.43-.6-.33-1.27-.5-1.95-.5-.39,0-.78.06-1.16.17-1.04.31-1.9,1.01-2.43,1.97-.52.96-.64,2.07-.33,3.11.31,1.05,1.01,1.91,1.97,2.43.6.33,1.27.5,1.95.5,1.46,0,2.82-.78,3.55-2.04.02-.03.03-.06.05-.09.04-.07.07-.14.1-.21,6.14-.03,11.91-2.8,15.75-7.43.3-.36.58-.73.86-1.11.27-.38.53-.77.78-1.17t0,0l-6.6-4.85h0s0,0,0,0c.01-.02.03-.05.04-.07,1.63-3,2-6.46,1.03-9.74-.68-2.31-1.96-4.33-3.7-5.89l2.98-4c2.77,2.24,4.8,5.26,5.83,8.74.46,1.54.69,3.11.72,4.67-.03,0-.07.02-.1.02-1.04.31-1.9,1.01-2.43,1.97-.52.96-.64,2.06-.33,3.11.31,1.05,1.01,1.91,1.97,2.43.6.33,1.27.5,1.95.5,1.46,0,2.82-.78,3.55-2.04.02-.03.03-.06.05-.09.52-.96.64-2.06.33-3.11"/>
        <g>
          <path class="j" d="M239.01,527.1l-4.11,4.66,1.38,2.75-2.8,3.18-6.74-14.58,2.71-3.07,15.33,4.83-2.86,3.25-2.91-1.02ZM235.9,525.99l-4.78-1.69,2.28,4.53,2.5-2.84Z"/>
          <path class="j" d="M243.83,503.71l6.87,14.44-2.71,3.07-15.18-5,2.97-3.37,9.82,3.33-4.49-9.38,2.72-3.09Z"/>
          <path class="j" d="M252.87,512.38c-1.07-.94-1.07-2.34-.18-3.35.9-1.02,2.27-1.19,3.35-.24,1.04.92,1.1,2.34.2,3.37-.89,1.01-2.32,1.14-3.36.23Z"/>
          <path class="j" d="M256.58,494.22l-2.98,3.39-2.47-2.18,8.7-9.88,2.47,2.18-2.97,3.37,8.56,7.53-2.75,3.12-8.56-7.54Z"/>
          <path class="j" d="M275.76,485.37l-4.11,4.67,1.38,2.75-2.8,3.18-6.74-14.58,2.71-3.07,15.33,4.83-2.86,3.25-2.91-1.02ZM272.65,484.26l-4.78-1.69,2.28,4.53,2.5-2.84Z"/>
          <path class="j" d="M291.07,472.3l-5.87-5.12,2.26,7.03-1.22,1.39-7.08-1.23,5.69,5.01-2.54,2.88-11.03-9.71,2.26-2.57,9.78,1.73-3.04-9.39,2.26-2.57,11.06,9.68-2.53,2.87Z"/>
          <path class="j" d="M299.9,457.94l-4.11,4.67,1.38,2.75-2.8,3.18-6.74-14.58,2.71-3.07,15.33,4.83-2.86,3.25-2.91-1.02ZM296.8,456.83l-4.78-1.69,2.28,4.53,2.5-2.84Z"/>
          <path class="j" d="M301.24,450.84l-6.11-5.38,2.75-3.12,6.02,5.3c1.89,1.67,3.34,1.54,4.49.23,1.14-1.29,1.08-2.75-.82-4.41l-6.02-5.3,2.71-3.07,6.11,5.38c3.29,2.9,3.44,6.45.57,9.71-2.87,3.26-6.41,3.56-9.7.66Z"/>
          <path class="j" d="M306.12,432.97l2.75-3.12,8.56,7.53,4.63-5.26,2.47,2.18-7.38,8.38-11.03-9.71Z"/>
          <path class="j" d="M314.58,423.35l2.75-3.12,11.03,9.71-2.75,3.12-11.03-9.71Z"/>
          <path class="j" d="M332.12,411.66c2.51,2.21,2.4,5.47-.25,8.48l-1.69,1.92,2.88,2.54-2.75,3.12-11.03-9.71,4.44-5.04c2.65-3.01,5.88-3.53,8.4-1.31ZM329.35,414.81c-1.02-.9-2.19-.78-3.33.51l-1.53,1.73,3.23,2.85,1.53-1.73c1.14-1.29,1.11-2.46.1-3.35Z"/>
          <path class="j" d="M344.29,407.54l-4.11,4.66,1.38,2.75-2.8,3.18-6.74-14.58,2.71-3.07,15.33,4.83-2.86,3.25-2.91-1.02ZM341.18,406.43l-4.78-1.69,2.28,4.53,2.5-2.84Z"/>
          <path class="j" d="M349.16,404.33l-1.4-3.05c1.51-.41,3.17-1.41,4.29-2.68,1.14-1.29,1.22-2.12.68-2.59-1.75-1.54-5.99,5.86-10.09,2.25-1.97-1.74-2.16-4.76.72-8.04,1.26-1.43,2.9-2.62,4.49-3.16l1.47,3c-1.5.56-2.7,1.35-3.54,2.31-1.15,1.31-1.13,2.17-.58,2.65,1.69,1.48,5.93-5.88,10-2.3,1.92,1.69,2.15,4.74-.74,8.02-1.6,1.81-3.67,3.18-5.31,3.58Z"/>
        </g>
        <g>
          <path class="j" d="M227.78,139.24c1.81-3.38,5.68-4.4,9.2-2.51,2.05,1.09,3.3,2.72,3.66,4.65l-2.97.74c-.25-1.22-.86-2.13-1.92-2.7-1.83-.98-3.78-.38-4.79,1.52-1.02,1.91-.43,3.85,1.4,4.83,1.06.57,2.17.57,3.32.1l1.03,2.88c-1.8.77-3.85.64-5.9-.46-3.53-1.88-4.83-5.66-3.03-9.05Z"/>
          <path class="j" d="M245.51,153.09l-4.7-2.51-2.03,1.69-3.21-1.71,10.85-8.49,3.1,1.65-1.02,13.75-3.27-1.75.28-2.63ZM245.82,150.28l.47-4.32-3.33,2.79,2.86,1.53Z"/>
          <path class="j" d="M255.32,146.82l3.14,1.68-4.61,8.62,5.3,2.83-1.33,2.49-8.45-4.51,5.94-11.12Z"/>
          <path class="j" d="M265.01,151.99l3.15,1.68-4.61,8.62,5.3,2.83-1.33,2.49-8.45-4.51,5.94-11.12Z"/>
          <path class="j" d="M278.98,170.62l-1.3,2.43-8.93-4.77,5.94-11.12,8.72,4.66-1.3,2.43-5.61-3-1,1.87,4.94,2.64-1.26,2.35-4.94-2.64-1.09,2.03,5.81,3.11Z"/>
          <path class="j" d="M283.37,174.27l2.8-1.12c.18,1.08.59,1.8,1.3,2.19.91.48,1.69.19,2.26-.87l2.55-4.78-3.84-2.05,1.3-2.43,6.96,3.72-3.75,7.02c-1.54,2.89-3.8,3.52-6.6,2.03-1.62-.87-2.7-2.17-2.98-3.7Z"/>
          <path class="j" d="M295.44,176.17l3.29-6.16,3.14,1.68-3.24,6.07c-1.02,1.91-.63,3.09.69,3.8,1.3.7,2.5.36,3.52-1.55l3.24-6.07,3.1,1.66-3.29,6.16c-1.77,3.32-4.7,4.14-7.99,2.39-3.29-1.76-4.23-4.65-2.46-7.97Z"/>
          <path class="j" d="M313.73,189.53l-4.7-2.51-2.03,1.69-3.21-1.71,10.85-8.5,3.1,1.65-1.02,13.75-3.27-1.75.28-2.63ZM314.04,186.72l.47-4.32-3.33,2.79,2.86,1.53Z"/>
          <path class="j" d="M334.12,188.91l-5.94,11.12-2.59-1.38-1.74-8.54-3.16,5.92-3.08-1.65,5.94-11.12,2.59,1.38,1.74,8.54,3.16-5.92,3.08,1.65Z"/>
          <path class="j" d="M345.24,206.02l-1.3,2.43-8.93-4.77,5.94-11.12,8.72,4.66-1.3,2.43-5.61-3-1,1.87,4.94,2.64-1.26,2.35-4.94-2.64-1.09,2.03,5.81,3.11Z"/>
          <path class="j" d="M345.44,207.97l2.27-1.77c.64,1.18,1.8,2.37,3.08,3.06,1.3.7,2.01.6,2.29.06.94-1.76-6.07-3.85-3.86-7.98,1.06-1.98,3.55-2.74,6.85-.97,1.45.77,2.76,1.9,3.52,3.12l-2.22,1.82c-.76-1.14-1.65-1.99-2.62-2.5-1.32-.7-2.03-.51-2.33.04-.91,1.7,6.08,3.8,3.89,7.89-1.04,1.94-3.54,2.72-6.84.96-1.83-.98-3.37-2.43-4.03-3.73Z"/>
          <path class="j" d="M358.36,209.01c1.81-3.38,5.68-4.4,9.2-2.51,2.05,1.09,3.3,2.72,3.66,4.65l-2.97.74c-.25-1.21-.86-2.13-1.92-2.7-1.83-.98-3.77-.38-4.79,1.52-1.02,1.91-.43,3.86,1.4,4.83,1.06.57,2.17.57,3.32.1l1.03,2.88c-1.8.77-3.85.64-5.9-.46-3.53-1.88-4.83-5.66-3.03-9.05Z"/>
          <path class="j" d="M370.1,216.06l3.29-6.16,3.14,1.68-3.24,6.07c-1.02,1.91-.63,3.09.69,3.8,1.3.7,2.5.36,3.52-1.55l3.24-6.07,3.1,1.66-3.29,6.16c-1.77,3.32-4.7,4.14-7.99,2.38-3.29-1.76-4.23-4.65-2.46-7.97Z"/>
          <path class="j" d="M386.83,220.28l-3.42-1.82,1.33-2.49,9.96,5.32-1.33,2.49-3.4-1.82-4.61,8.62-3.14-1.68,4.61-8.62Z"/>
          <path class="j" d="M395.87,221.91l3.14,1.68-5.94,11.12-3.14-1.68,5.94-11.12Z"/>
          <path class="j" d="M403.92,237.72l-4.7-2.51-2.03,1.69-3.21-1.71,10.85-8.49,3.1,1.65-1.02,13.75-3.27-1.75.28-2.63ZM404.24,234.91l.47-4.32-3.33,2.79,2.86,1.53Z"/>
        </g>
        <g>
          <path class="j" d="M437.27,552.46l-1.2-5.19-2.61-.41-.82-3.54,13.54,2.57.79,3.42-11.02,8.29-.84-3.61,2.16-1.52ZM439.59,550.85l3.56-2.49-4.29-.67.73,3.16Z"/>
          <path class="j" d="M451.18,567.49l-13.5-2.41-.79-3.42,11.06-8.09.87,3.75-7.22,5.19,8.79,1.55.8,3.44Z"/>
          <path class="j" d="M440.62,569.46c1.19-.28,2.17.42,2.43,1.54.26,1.14-.31,2.18-1.5,2.46-1.16.27-2.18-.4-2.45-1.54-.26-1.12.36-2.19,1.52-2.46Z"/>
          <path class="j" d="M456.29,589.53l-12.28,2.85-.66-2.86,5.29-6.94-6.54,1.52-.79-3.4,12.28-2.85.66,2.86-5.29,6.94,6.54-1.52.79,3.4Z"/>
          <path class="j" d="M450.03,593.45l6.81-1.58.81,3.47-6.7,1.55c-2.1.49-2.74,1.56-2.4,3.02.33,1.44,1.38,2.12,3.48,1.63l6.7-1.55.79,3.42-6.81,1.58c-3.67.85-6.21-.81-7.06-4.44-.84-3.63.71-6.25,4.38-7.1Z"/>
          <path class="j" d="M452.75,617.85l-2.68.62-2.29-9.86,12.28-2.85,2.23,9.63-2.68.62-1.44-6.19-2.07.48,1.27,5.46-2.6.6-1.27-5.46-2.25.52,1.49,6.42Z"/>
          <path class="j" d="M465.64,629.82l-13.5-2.41-.79-3.42,11.06-8.09.87,3.75-7.22,5.19,8.79,1.55.8,3.44Z"/>
          <path class="j" d="M459.48,631.17c3.68-.85,7.06,1.41,7.97,5.34.91,3.93-1.12,7.45-4.8,8.3s-7.06-1.41-7.97-5.34,1.12-7.45,4.8-8.3ZM461.83,641.31c2.12-.49,3.17-2.27,2.74-4.13s-2.15-2.99-4.28-2.5c-2.12.49-3.17,2.27-2.74,4.13s2.15,2.99,4.28,2.5Z"/>
          <path class="j" d="M470.39,650.32l.81,3.47-9.52,2.21,1.36,5.86-2.75.64-2.17-9.33,12.28-2.85Z"/>
          <path class="j" d="M465.56,673.1l-2.68.62-2.29-9.86,12.28-2.85,2.23,9.63-2.68.62-1.44-6.19-2.07.48,1.27,5.46-2.6.6-1.27-5.45-2.25.52,1.49,6.42Z"/>
          <path class="j" d="M469.32,673.57c3.68-.85,7.05,1.41,7.97,5.34.91,3.93-1.12,7.45-4.8,8.3-3.68.85-7.06-1.41-7.97-5.34-.91-3.93,1.12-7.45,4.8-8.3ZM471.67,683.71c2.12-.49,3.17-2.27,2.74-4.13-.43-1.86-2.15-2.99-4.28-2.5-2.12.49-3.17,2.27-2.74,4.13.43,1.86,2.15,2.99,4.28,2.5ZM480.85,678.75l.77,3.33-3.43-2.68-.55-2.38,3.21,1.73Z"/>
          <path class="j" d="M481.75,699.29l-12.28,2.85-.66-2.86,5.29-6.94-6.54,1.52-.79-3.4,12.28-2.85.66,2.86-5.28,6.94,6.54-1.52.79,3.4Z"/>
        </g>
      </g>
    </g>
  </g>
</svg>